SplineFontDB: 3.0
FontName: FontSelector_warning
FullName: FontSelector_warning
FamilyName: FontSelector_symbols
Weight: Regular
Copyright: Copyright (c) 2019, tonton
UComments: "2019-3-23: Created with FontForge (http://fontforge.org)"
Version: 001.000
DefaultBaseFilename: FontSelector_Warning_Font
ItalicAngle: 0
UnderlinePosition: -100
UnderlineWidth: 50
Ascent: 800
Descent: 200
InvalidEm: 0
LayerCount: 2
Layer: 0 0 "Arri+AOgA-re" 1
Layer: 1 0 "Avant" 0
XUID: [1021 532 -943755386 5828]
StyleMap: 0x0000
FSType: 0
OS2Version: 0
OS2_WeightWidthSlopeOnly: 0
OS2_UseTypoMetrics: 1
CreationTime: 1553361995
ModificationTime: 1553461892
OS2TypoAscent: 0
OS2TypoAOffset: 1
OS2TypoDescent: 0
OS2TypoDOffset: 1
OS2TypoLinegap: 90
OS2WinAscent: 0
OS2WinAOffset: 1
OS2WinDescent: 0
OS2WinDOffset: 1
HheadAscent: 0
HheadAOffset: 1
HheadDescent: 0
HheadDOffset: 1
MarkAttachClasses: 1
DEI: 91125
Encoding: ISO8859-1
UnicodeInterp: none
NameList: AGL For New Fonts
DisplaySize: -48
AntiAlias: 1
FitToEm: 0
WidthSeparation: 150
WinInfo: 0 38 12
BeginPrivate: 0
EndPrivate
Grid
-602.40234375 375.684570312 m 0
 1497.59765625 375.684570312 l 1024
377.59765625 1005.68457031 m 0
 377.59765625 -394.315429688 l 1024
EndSplineSet
BeginChars: 256 256

StartChar: uni0000
Encoding: 0 0 0
Width: 251
VWidth: 94
Flags: W
LayerCount: 2
Fore
SplineSet
190.087890625 5.9833984375 m 4
 184.576171875 0.4423828125 176 0.4423828125 171.1015625 5.9833984375 c 6
 3.8984375 173.489257812 l 6
 -1.61328125 179.032226562 -1.61328125 187.653320312 3.8984375 192.581054688 c 4
 9.41015625 198.122070312 17.986328125 198.122070312 22.884765625 192.581054688 c 6
 190.087890625 25.0751953125 l 6
 194.986328125 20.1474609375 194.986328125 11.5263671875 190.087890625 5.9833984375 c 4
190.087890625 192.581054688 m 4
 195.599609375 187.038085938 195.599609375 178.416992188 190.087890625 173.489257812 c 6
 22.884765625 5.9833984375 l 6
 17.373046875 0.4423828125 8.798828125 0.4423828125 3.8984375 5.9833984375 c 4
 -1.61328125 11.5263671875 -1.61328125 20.1474609375 3.8984375 25.0751953125 c 6
 170.48828125 192.581054688 l 6
 176 198.122070312 184.576171875 198.122070312 190.087890625 192.581054688 c 4
EndSplineSet
EndChar

StartChar: uni0001
Encoding: 1 1 1
Width: 251
VWidth: 94
Flags: W
LayerCount: 2
Fore
SplineSet
190.087890625 5.9833984375 m 4
 184.576171875 0.4423828125 176 0.4423828125 171.1015625 5.9833984375 c 6
 3.8984375 173.489257812 l 6
 -1.61328125 179.032226562 -1.61328125 187.653320312 3.8984375 192.581054688 c 4
 9.41015625 198.122070312 17.986328125 198.122070312 22.884765625 192.581054688 c 6
 190.087890625 25.0751953125 l 6
 194.986328125 20.1474609375 194.986328125 11.5263671875 190.087890625 5.9833984375 c 4
190.087890625 192.581054688 m 4
 195.599609375 187.038085938 195.599609375 178.416992188 190.087890625 173.489257812 c 6
 22.884765625 5.9833984375 l 6
 17.373046875 0.4423828125 8.798828125 0.4423828125 3.8984375 5.9833984375 c 4
 -1.61328125 11.5263671875 -1.61328125 20.1474609375 3.8984375 25.0751953125 c 6
 170.48828125 192.581054688 l 6
 176 198.122070312 184.576171875 198.122070312 190.087890625 192.581054688 c 4
EndSplineSet
EndChar

StartChar: uni0002
Encoding: 2 2 2
Width: 251
VWidth: 94
Flags: W
LayerCount: 2
Fore
SplineSet
190.087890625 5.9833984375 m 4
 184.576171875 0.4423828125 176 0.4423828125 171.1015625 5.9833984375 c 6
 3.8984375 173.489257812 l 6
 -1.61328125 179.032226562 -1.61328125 187.653320312 3.8984375 192.581054688 c 4
 9.41015625 198.122070312 17.986328125 198.122070312 22.884765625 192.581054688 c 6
 190.087890625 25.0751953125 l 6
 194.986328125 20.1474609375 194.986328125 11.5263671875 190.087890625 5.9833984375 c 4
190.087890625 192.581054688 m 4
 195.599609375 187.038085938 195.599609375 178.416992188 190.087890625 173.489257812 c 6
 22.884765625 5.9833984375 l 6
 17.373046875 0.4423828125 8.798828125 0.4423828125 3.8984375 5.9833984375 c 4
 -1.61328125 11.5263671875 -1.61328125 20.1474609375 3.8984375 25.0751953125 c 6
 170.48828125 192.581054688 l 6
 176 198.122070312 184.576171875 198.122070312 190.087890625 192.581054688 c 4
EndSplineSet
EndChar

StartChar: uni0003
Encoding: 3 3 3
Width: 251
VWidth: 94
Flags: W
LayerCount: 2
Fore
SplineSet
190.087890625 5.9833984375 m 4
 184.576171875 0.4423828125 176 0.4423828125 171.1015625 5.9833984375 c 6
 3.8984375 173.489257812 l 6
 -1.61328125 179.032226562 -1.61328125 187.653320312 3.8984375 192.581054688 c 4
 9.41015625 198.122070312 17.986328125 198.122070312 22.884765625 192.581054688 c 6
 190.087890625 25.0751953125 l 6
 194.986328125 20.1474609375 194.986328125 11.5263671875 190.087890625 5.9833984375 c 4
190.087890625 192.581054688 m 4
 195.599609375 187.038085938 195.599609375 178.416992188 190.087890625 173.489257812 c 6
 22.884765625 5.9833984375 l 6
 17.373046875 0.4423828125 8.798828125 0.4423828125 3.8984375 5.9833984375 c 4
 -1.61328125 11.5263671875 -1.61328125 20.1474609375 3.8984375 25.0751953125 c 6
 170.48828125 192.581054688 l 6
 176 198.122070312 184.576171875 198.122070312 190.087890625 192.581054688 c 4
EndSplineSet
EndChar

StartChar: uni0004
Encoding: 4 4 4
Width: 251
VWidth: 94
Flags: W
LayerCount: 2
Fore
SplineSet
190.087890625 5.9833984375 m 4
 184.576171875 0.4423828125 176 0.4423828125 171.1015625 5.9833984375 c 6
 3.8984375 173.489257812 l 6
 -1.61328125 179.032226562 -1.61328125 187.653320312 3.8984375 192.581054688 c 4
 9.41015625 198.122070312 17.986328125 198.122070312 22.884765625 192.581054688 c 6
 190.087890625 25.0751953125 l 6
 194.986328125 20.1474609375 194.986328125 11.5263671875 190.087890625 5.9833984375 c 4
190.087890625 192.581054688 m 4
 195.599609375 187.038085938 195.599609375 178.416992188 190.087890625 173.489257812 c 6
 22.884765625 5.9833984375 l 6
 17.373046875 0.4423828125 8.798828125 0.4423828125 3.8984375 5.9833984375 c 4
 -1.61328125 11.5263671875 -1.61328125 20.1474609375 3.8984375 25.0751953125 c 6
 170.48828125 192.581054688 l 6
 176 198.122070312 184.576171875 198.122070312 190.087890625 192.581054688 c 4
EndSplineSet
EndChar

StartChar: uni0005
Encoding: 5 5 5
Width: 251
VWidth: 94
Flags: W
LayerCount: 2
Fore
SplineSet
190.087890625 5.9833984375 m 4
 184.576171875 0.4423828125 176 0.4423828125 171.1015625 5.9833984375 c 6
 3.8984375 173.489257812 l 6
 -1.61328125 179.032226562 -1.61328125 187.653320312 3.8984375 192.581054688 c 4
 9.41015625 198.122070312 17.986328125 198.122070312 22.884765625 192.581054688 c 6
 190.087890625 25.0751953125 l 6
 194.986328125 20.1474609375 194.986328125 11.5263671875 190.087890625 5.9833984375 c 4
190.087890625 192.581054688 m 4
 195.599609375 187.038085938 195.599609375 178.416992188 190.087890625 173.489257812 c 6
 22.884765625 5.9833984375 l 6
 17.373046875 0.4423828125 8.798828125 0.4423828125 3.8984375 5.9833984375 c 4
 -1.61328125 11.5263671875 -1.61328125 20.1474609375 3.8984375 25.0751953125 c 6
 170.48828125 192.581054688 l 6
 176 198.122070312 184.576171875 198.122070312 190.087890625 192.581054688 c 4
EndSplineSet
EndChar

StartChar: uni0006
Encoding: 6 6 6
Width: 251
VWidth: 94
Flags: W
LayerCount: 2
Fore
SplineSet
190.087890625 5.9833984375 m 4
 184.576171875 0.4423828125 176 0.4423828125 171.1015625 5.9833984375 c 6
 3.8984375 173.489257812 l 6
 -1.61328125 179.032226562 -1.61328125 187.653320312 3.8984375 192.581054688 c 4
 9.41015625 198.122070312 17.986328125 198.122070312 22.884765625 192.581054688 c 6
 190.087890625 25.0751953125 l 6
 194.986328125 20.1474609375 194.986328125 11.5263671875 190.087890625 5.9833984375 c 4
190.087890625 192.581054688 m 4
 195.599609375 187.038085938 195.599609375 178.416992188 190.087890625 173.489257812 c 6
 22.884765625 5.9833984375 l 6
 17.373046875 0.4423828125 8.798828125 0.4423828125 3.8984375 5.9833984375 c 4
 -1.61328125 11.5263671875 -1.61328125 20.1474609375 3.8984375 25.0751953125 c 6
 170.48828125 192.581054688 l 6
 176 198.122070312 184.576171875 198.122070312 190.087890625 192.581054688 c 4
EndSplineSet
EndChar

StartChar: uni0007
Encoding: 7 7 7
Width: 251
VWidth: 94
Flags: W
LayerCount: 2
Fore
SplineSet
190.087890625 5.9833984375 m 4
 184.576171875 0.4423828125 176 0.4423828125 171.1015625 5.9833984375 c 6
 3.8984375 173.489257812 l 6
 -1.61328125 179.032226562 -1.61328125 187.653320312 3.8984375 192.581054688 c 4
 9.41015625 198.122070312 17.986328125 198.122070312 22.884765625 192.581054688 c 6
 190.087890625 25.0751953125 l 6
 194.986328125 20.1474609375 194.986328125 11.5263671875 190.087890625 5.9833984375 c 4
190.087890625 192.581054688 m 4
 195.599609375 187.038085938 195.599609375 178.416992188 190.087890625 173.489257812 c 6
 22.884765625 5.9833984375 l 6
 17.373046875 0.4423828125 8.798828125 0.4423828125 3.8984375 5.9833984375 c 4
 -1.61328125 11.5263671875 -1.61328125 20.1474609375 3.8984375 25.0751953125 c 6
 170.48828125 192.581054688 l 6
 176 198.122070312 184.576171875 198.122070312 190.087890625 192.581054688 c 4
EndSplineSet
EndChar

StartChar: uni0008
Encoding: 8 8 8
Width: 251
VWidth: 94
Flags: W
LayerCount: 2
Fore
SplineSet
190.087890625 5.9833984375 m 4
 184.576171875 0.4423828125 176 0.4423828125 171.1015625 5.9833984375 c 6
 3.8984375 173.489257812 l 6
 -1.61328125 179.032226562 -1.61328125 187.653320312 3.8984375 192.581054688 c 4
 9.41015625 198.122070312 17.986328125 198.122070312 22.884765625 192.581054688 c 6
 190.087890625 25.0751953125 l 6
 194.986328125 20.1474609375 194.986328125 11.5263671875 190.087890625 5.9833984375 c 4
190.087890625 192.581054688 m 4
 195.599609375 187.038085938 195.599609375 178.416992188 190.087890625 173.489257812 c 6
 22.884765625 5.9833984375 l 6
 17.373046875 0.4423828125 8.798828125 0.4423828125 3.8984375 5.9833984375 c 4
 -1.61328125 11.5263671875 -1.61328125 20.1474609375 3.8984375 25.0751953125 c 6
 170.48828125 192.581054688 l 6
 176 198.122070312 184.576171875 198.122070312 190.087890625 192.581054688 c 4
EndSplineSet
EndChar

StartChar: uni0009
Encoding: 9 9 9
Width: 251
VWidth: 94
Flags: W
LayerCount: 2
Fore
SplineSet
190.087890625 5.9833984375 m 4
 184.576171875 0.4423828125 176 0.4423828125 171.1015625 5.9833984375 c 6
 3.8984375 173.489257812 l 6
 -1.61328125 179.032226562 -1.61328125 187.653320312 3.8984375 192.581054688 c 4
 9.41015625 198.122070312 17.986328125 198.122070312 22.884765625 192.581054688 c 6
 190.087890625 25.0751953125 l 6
 194.986328125 20.1474609375 194.986328125 11.5263671875 190.087890625 5.9833984375 c 4
190.087890625 192.581054688 m 4
 195.599609375 187.038085938 195.599609375 178.416992188 190.087890625 173.489257812 c 6
 22.884765625 5.9833984375 l 6
 17.373046875 0.4423828125 8.798828125 0.4423828125 3.8984375 5.9833984375 c 4
 -1.61328125 11.5263671875 -1.61328125 20.1474609375 3.8984375 25.0751953125 c 6
 170.48828125 192.581054688 l 6
 176 198.122070312 184.576171875 198.122070312 190.087890625 192.581054688 c 4
EndSplineSet
EndChar

StartChar: uni000A
Encoding: 10 10 10
Width: 251
VWidth: 94
Flags: W
LayerCount: 2
Fore
SplineSet
190.087890625 5.9833984375 m 4
 184.576171875 0.4423828125 176 0.4423828125 171.1015625 5.9833984375 c 6
 3.8984375 173.489257812 l 6
 -1.61328125 179.032226562 -1.61328125 187.653320312 3.8984375 192.581054688 c 4
 9.41015625 198.122070312 17.986328125 198.122070312 22.884765625 192.581054688 c 6
 190.087890625 25.0751953125 l 6
 194.986328125 20.1474609375 194.986328125 11.5263671875 190.087890625 5.9833984375 c 4
190.087890625 192.581054688 m 4
 195.599609375 187.038085938 195.599609375 178.416992188 190.087890625 173.489257812 c 6
 22.884765625 5.9833984375 l 6
 17.373046875 0.4423828125 8.798828125 0.4423828125 3.8984375 5.9833984375 c 4
 -1.61328125 11.5263671875 -1.61328125 20.1474609375 3.8984375 25.0751953125 c 6
 170.48828125 192.581054688 l 6
 176 198.122070312 184.576171875 198.122070312 190.087890625 192.581054688 c 4
EndSplineSet
EndChar

StartChar: uni000B
Encoding: 11 11 11
Width: 251
VWidth: 94
Flags: W
LayerCount: 2
Fore
SplineSet
190.087890625 5.9833984375 m 4
 184.576171875 0.4423828125 176 0.4423828125 171.1015625 5.9833984375 c 6
 3.8984375 173.489257812 l 6
 -1.61328125 179.032226562 -1.61328125 187.653320312 3.8984375 192.581054688 c 4
 9.41015625 198.122070312 17.986328125 198.122070312 22.884765625 192.581054688 c 6
 190.087890625 25.0751953125 l 6
 194.986328125 20.1474609375 194.986328125 11.5263671875 190.087890625 5.9833984375 c 4
190.087890625 192.581054688 m 4
 195.599609375 187.038085938 195.599609375 178.416992188 190.087890625 173.489257812 c 6
 22.884765625 5.9833984375 l 6
 17.373046875 0.4423828125 8.798828125 0.4423828125 3.8984375 5.9833984375 c 4
 -1.61328125 11.5263671875 -1.61328125 20.1474609375 3.8984375 25.0751953125 c 6
 170.48828125 192.581054688 l 6
 176 198.122070312 184.576171875 198.122070312 190.087890625 192.581054688 c 4
EndSplineSet
EndChar

StartChar: uni000C
Encoding: 12 12 12
Width: 251
VWidth: 94
Flags: W
LayerCount: 2
Fore
SplineSet
190.087890625 5.9833984375 m 4
 184.576171875 0.4423828125 176 0.4423828125 171.1015625 5.9833984375 c 6
 3.8984375 173.489257812 l 6
 -1.61328125 179.032226562 -1.61328125 187.653320312 3.8984375 192.581054688 c 4
 9.41015625 198.122070312 17.986328125 198.122070312 22.884765625 192.581054688 c 6
 190.087890625 25.0751953125 l 6
 194.986328125 20.1474609375 194.986328125 11.5263671875 190.087890625 5.9833984375 c 4
190.087890625 192.581054688 m 4
 195.599609375 187.038085938 195.599609375 178.416992188 190.087890625 173.489257812 c 6
 22.884765625 5.9833984375 l 6
 17.373046875 0.4423828125 8.798828125 0.4423828125 3.8984375 5.9833984375 c 4
 -1.61328125 11.5263671875 -1.61328125 20.1474609375 3.8984375 25.0751953125 c 6
 170.48828125 192.581054688 l 6
 176 198.122070312 184.576171875 198.122070312 190.087890625 192.581054688 c 4
EndSplineSet
EndChar

StartChar: uni000D
Encoding: 13 13 13
Width: 251
VWidth: 94
Flags: W
LayerCount: 2
Fore
SplineSet
190.087890625 5.9833984375 m 4
 184.576171875 0.4423828125 176 0.4423828125 171.1015625 5.9833984375 c 6
 3.8984375 173.489257812 l 6
 -1.61328125 179.032226562 -1.61328125 187.653320312 3.8984375 192.581054688 c 4
 9.41015625 198.122070312 17.986328125 198.122070312 22.884765625 192.581054688 c 6
 190.087890625 25.0751953125 l 6
 194.986328125 20.1474609375 194.986328125 11.5263671875 190.087890625 5.9833984375 c 4
190.087890625 192.581054688 m 4
 195.599609375 187.038085938 195.599609375 178.416992188 190.087890625 173.489257812 c 6
 22.884765625 5.9833984375 l 6
 17.373046875 0.4423828125 8.798828125 0.4423828125 3.8984375 5.9833984375 c 4
 -1.61328125 11.5263671875 -1.61328125 20.1474609375 3.8984375 25.0751953125 c 6
 170.48828125 192.581054688 l 6
 176 198.122070312 184.576171875 198.122070312 190.087890625 192.581054688 c 4
EndSplineSet
EndChar

StartChar: uni000E
Encoding: 14 14 14
Width: 251
VWidth: 94
Flags: W
LayerCount: 2
Fore
SplineSet
190.087890625 5.9833984375 m 4
 184.576171875 0.4423828125 176 0.4423828125 171.1015625 5.9833984375 c 6
 3.8984375 173.489257812 l 6
 -1.61328125 179.032226562 -1.61328125 187.653320312 3.8984375 192.581054688 c 4
 9.41015625 198.122070312 17.986328125 198.122070312 22.884765625 192.581054688 c 6
 190.087890625 25.0751953125 l 6
 194.986328125 20.1474609375 194.986328125 11.5263671875 190.087890625 5.9833984375 c 4
190.087890625 192.581054688 m 4
 195.599609375 187.038085938 195.599609375 178.416992188 190.087890625 173.489257812 c 6
 22.884765625 5.9833984375 l 6
 17.373046875 0.4423828125 8.798828125 0.4423828125 3.8984375 5.9833984375 c 4
 -1.61328125 11.5263671875 -1.61328125 20.1474609375 3.8984375 25.0751953125 c 6
 170.48828125 192.581054688 l 6
 176 198.122070312 184.576171875 198.122070312 190.087890625 192.581054688 c 4
EndSplineSet
EndChar

StartChar: uni000F
Encoding: 15 15 15
Width: 251
VWidth: 94
Flags: W
LayerCount: 2
Fore
SplineSet
190.087890625 5.9833984375 m 4
 184.576171875 0.4423828125 176 0.4423828125 171.1015625 5.9833984375 c 6
 3.8984375 173.489257812 l 6
 -1.61328125 179.032226562 -1.61328125 187.653320312 3.8984375 192.581054688 c 4
 9.41015625 198.122070312 17.986328125 198.122070312 22.884765625 192.581054688 c 6
 190.087890625 25.0751953125 l 6
 194.986328125 20.1474609375 194.986328125 11.5263671875 190.087890625 5.9833984375 c 4
190.087890625 192.581054688 m 4
 195.599609375 187.038085938 195.599609375 178.416992188 190.087890625 173.489257812 c 6
 22.884765625 5.9833984375 l 6
 17.373046875 0.4423828125 8.798828125 0.4423828125 3.8984375 5.9833984375 c 4
 -1.61328125 11.5263671875 -1.61328125 20.1474609375 3.8984375 25.0751953125 c 6
 170.48828125 192.581054688 l 6
 176 198.122070312 184.576171875 198.122070312 190.087890625 192.581054688 c 4
EndSplineSet
EndChar

StartChar: uni0010
Encoding: 16 16 16
Width: 251
VWidth: 94
Flags: W
LayerCount: 2
Fore
SplineSet
190.087890625 5.9833984375 m 4
 184.576171875 0.4423828125 176 0.4423828125 171.1015625 5.9833984375 c 6
 3.8984375 173.489257812 l 6
 -1.61328125 179.032226562 -1.61328125 187.653320312 3.8984375 192.581054688 c 4
 9.41015625 198.122070312 17.986328125 198.122070312 22.884765625 192.581054688 c 6
 190.087890625 25.0751953125 l 6
 194.986328125 20.1474609375 194.986328125 11.5263671875 190.087890625 5.9833984375 c 4
190.087890625 192.581054688 m 4
 195.599609375 187.038085938 195.599609375 178.416992188 190.087890625 173.489257812 c 6
 22.884765625 5.9833984375 l 6
 17.373046875 0.4423828125 8.798828125 0.4423828125 3.8984375 5.9833984375 c 4
 -1.61328125 11.5263671875 -1.61328125 20.1474609375 3.8984375 25.0751953125 c 6
 170.48828125 192.581054688 l 6
 176 198.122070312 184.576171875 198.122070312 190.087890625 192.581054688 c 4
EndSplineSet
EndChar

StartChar: uni0011
Encoding: 17 17 17
Width: 251
VWidth: 94
Flags: W
LayerCount: 2
Fore
SplineSet
190.087890625 5.9833984375 m 4
 184.576171875 0.4423828125 176 0.4423828125 171.1015625 5.9833984375 c 6
 3.8984375 173.489257812 l 6
 -1.61328125 179.032226562 -1.61328125 187.653320312 3.8984375 192.581054688 c 4
 9.41015625 198.122070312 17.986328125 198.122070312 22.884765625 192.581054688 c 6
 190.087890625 25.0751953125 l 6
 194.986328125 20.1474609375 194.986328125 11.5263671875 190.087890625 5.9833984375 c 4
190.087890625 192.581054688 m 4
 195.599609375 187.038085938 195.599609375 178.416992188 190.087890625 173.489257812 c 6
 22.884765625 5.9833984375 l 6
 17.373046875 0.4423828125 8.798828125 0.4423828125 3.8984375 5.9833984375 c 4
 -1.61328125 11.5263671875 -1.61328125 20.1474609375 3.8984375 25.0751953125 c 6
 170.48828125 192.581054688 l 6
 176 198.122070312 184.576171875 198.122070312 190.087890625 192.581054688 c 4
EndSplineSet
EndChar

StartChar: uni0012
Encoding: 18 18 18
Width: 251
VWidth: 94
Flags: W
LayerCount: 2
Fore
SplineSet
190.087890625 5.9833984375 m 4
 184.576171875 0.4423828125 176 0.4423828125 171.1015625 5.9833984375 c 6
 3.8984375 173.489257812 l 6
 -1.61328125 179.032226562 -1.61328125 187.653320312 3.8984375 192.581054688 c 4
 9.41015625 198.122070312 17.986328125 198.122070312 22.884765625 192.581054688 c 6
 190.087890625 25.0751953125 l 6
 194.986328125 20.1474609375 194.986328125 11.5263671875 190.087890625 5.9833984375 c 4
190.087890625 192.581054688 m 4
 195.599609375 187.038085938 195.599609375 178.416992188 190.087890625 173.489257812 c 6
 22.884765625 5.9833984375 l 6
 17.373046875 0.4423828125 8.798828125 0.4423828125 3.8984375 5.9833984375 c 4
 -1.61328125 11.5263671875 -1.61328125 20.1474609375 3.8984375 25.0751953125 c 6
 170.48828125 192.581054688 l 6
 176 198.122070312 184.576171875 198.122070312 190.087890625 192.581054688 c 4
EndSplineSet
EndChar

StartChar: uni0013
Encoding: 19 19 19
Width: 251
VWidth: 94
Flags: W
LayerCount: 2
Fore
SplineSet
190.087890625 5.9833984375 m 4
 184.576171875 0.4423828125 176 0.4423828125 171.1015625 5.9833984375 c 6
 3.8984375 173.489257812 l 6
 -1.61328125 179.032226562 -1.61328125 187.653320312 3.8984375 192.581054688 c 4
 9.41015625 198.122070312 17.986328125 198.122070312 22.884765625 192.581054688 c 6
 190.087890625 25.0751953125 l 6
 194.986328125 20.1474609375 194.986328125 11.5263671875 190.087890625 5.9833984375 c 4
190.087890625 192.581054688 m 4
 195.599609375 187.038085938 195.599609375 178.416992188 190.087890625 173.489257812 c 6
 22.884765625 5.9833984375 l 6
 17.373046875 0.4423828125 8.798828125 0.4423828125 3.8984375 5.9833984375 c 4
 -1.61328125 11.5263671875 -1.61328125 20.1474609375 3.8984375 25.0751953125 c 6
 170.48828125 192.581054688 l 6
 176 198.122070312 184.576171875 198.122070312 190.087890625 192.581054688 c 4
EndSplineSet
EndChar

StartChar: uni0014
Encoding: 20 20 20
Width: 251
VWidth: 94
Flags: W
LayerCount: 2
Fore
SplineSet
190.087890625 5.9833984375 m 4
 184.576171875 0.4423828125 176 0.4423828125 171.1015625 5.9833984375 c 6
 3.8984375 173.489257812 l 6
 -1.61328125 179.032226562 -1.61328125 187.653320312 3.8984375 192.581054688 c 4
 9.41015625 198.122070312 17.986328125 198.122070312 22.884765625 192.581054688 c 6
 190.087890625 25.0751953125 l 6
 194.986328125 20.1474609375 194.986328125 11.5263671875 190.087890625 5.9833984375 c 4
190.087890625 192.581054688 m 4
 195.599609375 187.038085938 195.599609375 178.416992188 190.087890625 173.489257812 c 6
 22.884765625 5.9833984375 l 6
 17.373046875 0.4423828125 8.798828125 0.4423828125 3.8984375 5.9833984375 c 4
 -1.61328125 11.5263671875 -1.61328125 20.1474609375 3.8984375 25.0751953125 c 6
 170.48828125 192.581054688 l 6
 176 198.122070312 184.576171875 198.122070312 190.087890625 192.581054688 c 4
EndSplineSet
EndChar

StartChar: uni0015
Encoding: 21 21 21
Width: 251
VWidth: 94
Flags: W
LayerCount: 2
Fore
SplineSet
190.087890625 5.9833984375 m 4
 184.576171875 0.4423828125 176 0.4423828125 171.1015625 5.9833984375 c 6
 3.8984375 173.489257812 l 6
 -1.61328125 179.032226562 -1.61328125 187.653320312 3.8984375 192.581054688 c 4
 9.41015625 198.122070312 17.986328125 198.122070312 22.884765625 192.581054688 c 6
 190.087890625 25.0751953125 l 6
 194.986328125 20.1474609375 194.986328125 11.5263671875 190.087890625 5.9833984375 c 4
190.087890625 192.581054688 m 4
 195.599609375 187.038085938 195.599609375 178.416992188 190.087890625 173.489257812 c 6
 22.884765625 5.9833984375 l 6
 17.373046875 0.4423828125 8.798828125 0.4423828125 3.8984375 5.9833984375 c 4
 -1.61328125 11.5263671875 -1.61328125 20.1474609375 3.8984375 25.0751953125 c 6
 170.48828125 192.581054688 l 6
 176 198.122070312 184.576171875 198.122070312 190.087890625 192.581054688 c 4
EndSplineSet
EndChar

StartChar: uni0016
Encoding: 22 22 22
Width: 251
VWidth: 94
Flags: W
LayerCount: 2
Fore
SplineSet
190.087890625 5.9833984375 m 4
 184.576171875 0.4423828125 176 0.4423828125 171.1015625 5.9833984375 c 6
 3.8984375 173.489257812 l 6
 -1.61328125 179.032226562 -1.61328125 187.653320312 3.8984375 192.581054688 c 4
 9.41015625 198.122070312 17.986328125 198.122070312 22.884765625 192.581054688 c 6
 190.087890625 25.0751953125 l 6
 194.986328125 20.1474609375 194.986328125 11.5263671875 190.087890625 5.9833984375 c 4
190.087890625 192.581054688 m 4
 195.599609375 187.038085938 195.599609375 178.416992188 190.087890625 173.489257812 c 6
 22.884765625 5.9833984375 l 6
 17.373046875 0.4423828125 8.798828125 0.4423828125 3.8984375 5.9833984375 c 4
 -1.61328125 11.5263671875 -1.61328125 20.1474609375 3.8984375 25.0751953125 c 6
 170.48828125 192.581054688 l 6
 176 198.122070312 184.576171875 198.122070312 190.087890625 192.581054688 c 4
EndSplineSet
EndChar

StartChar: uni0017
Encoding: 23 23 23
Width: 251
VWidth: 94
Flags: W
LayerCount: 2
Fore
SplineSet
190.087890625 5.9833984375 m 4
 184.576171875 0.4423828125 176 0.4423828125 171.1015625 5.9833984375 c 6
 3.8984375 173.489257812 l 6
 -1.61328125 179.032226562 -1.61328125 187.653320312 3.8984375 192.581054688 c 4
 9.41015625 198.122070312 17.986328125 198.122070312 22.884765625 192.581054688 c 6
 190.087890625 25.0751953125 l 6
 194.986328125 20.1474609375 194.986328125 11.5263671875 190.087890625 5.9833984375 c 4
190.087890625 192.581054688 m 4
 195.599609375 187.038085938 195.599609375 178.416992188 190.087890625 173.489257812 c 6
 22.884765625 5.9833984375 l 6
 17.373046875 0.4423828125 8.798828125 0.4423828125 3.8984375 5.9833984375 c 4
 -1.61328125 11.5263671875 -1.61328125 20.1474609375 3.8984375 25.0751953125 c 6
 170.48828125 192.581054688 l 6
 176 198.122070312 184.576171875 198.122070312 190.087890625 192.581054688 c 4
EndSplineSet
EndChar

StartChar: uni0018
Encoding: 24 24 24
Width: 251
VWidth: 94
Flags: W
LayerCount: 2
Fore
SplineSet
190.087890625 5.9833984375 m 4
 184.576171875 0.4423828125 176 0.4423828125 171.1015625 5.9833984375 c 6
 3.8984375 173.489257812 l 6
 -1.61328125 179.032226562 -1.61328125 187.653320312 3.8984375 192.581054688 c 4
 9.41015625 198.122070312 17.986328125 198.122070312 22.884765625 192.581054688 c 6
 190.087890625 25.0751953125 l 6
 194.986328125 20.1474609375 194.986328125 11.5263671875 190.087890625 5.9833984375 c 4
190.087890625 192.581054688 m 4
 195.599609375 187.038085938 195.599609375 178.416992188 190.087890625 173.489257812 c 6
 22.884765625 5.9833984375 l 6
 17.373046875 0.4423828125 8.798828125 0.4423828125 3.8984375 5.9833984375 c 4
 -1.61328125 11.5263671875 -1.61328125 20.1474609375 3.8984375 25.0751953125 c 6
 170.48828125 192.581054688 l 6
 176 198.122070312 184.576171875 198.122070312 190.087890625 192.581054688 c 4
EndSplineSet
EndChar

StartChar: uni0019
Encoding: 25 25 25
Width: 251
VWidth: 94
Flags: W
LayerCount: 2
Fore
SplineSet
190.087890625 5.9833984375 m 4
 184.576171875 0.4423828125 176 0.4423828125 171.1015625 5.9833984375 c 6
 3.8984375 173.489257812 l 6
 -1.61328125 179.032226562 -1.61328125 187.653320312 3.8984375 192.581054688 c 4
 9.41015625 198.122070312 17.986328125 198.122070312 22.884765625 192.581054688 c 6
 190.087890625 25.0751953125 l 6
 194.986328125 20.1474609375 194.986328125 11.5263671875 190.087890625 5.9833984375 c 4
190.087890625 192.581054688 m 4
 195.599609375 187.038085938 195.599609375 178.416992188 190.087890625 173.489257812 c 6
 22.884765625 5.9833984375 l 6
 17.373046875 0.4423828125 8.798828125 0.4423828125 3.8984375 5.9833984375 c 4
 -1.61328125 11.5263671875 -1.61328125 20.1474609375 3.8984375 25.0751953125 c 6
 170.48828125 192.581054688 l 6
 176 198.122070312 184.576171875 198.122070312 190.087890625 192.581054688 c 4
EndSplineSet
EndChar

StartChar: uni001A
Encoding: 26 26 26
Width: 251
VWidth: 94
Flags: W
LayerCount: 2
Fore
SplineSet
190.087890625 5.9833984375 m 4
 184.576171875 0.4423828125 176 0.4423828125 171.1015625 5.9833984375 c 6
 3.8984375 173.489257812 l 6
 -1.61328125 179.032226562 -1.61328125 187.653320312 3.8984375 192.581054688 c 4
 9.41015625 198.122070312 17.986328125 198.122070312 22.884765625 192.581054688 c 6
 190.087890625 25.0751953125 l 6
 194.986328125 20.1474609375 194.986328125 11.5263671875 190.087890625 5.9833984375 c 4
190.087890625 192.581054688 m 4
 195.599609375 187.038085938 195.599609375 178.416992188 190.087890625 173.489257812 c 6
 22.884765625 5.9833984375 l 6
 17.373046875 0.4423828125 8.798828125 0.4423828125 3.8984375 5.9833984375 c 4
 -1.61328125 11.5263671875 -1.61328125 20.1474609375 3.8984375 25.0751953125 c 6
 170.48828125 192.581054688 l 6
 176 198.122070312 184.576171875 198.122070312 190.087890625 192.581054688 c 4
EndSplineSet
EndChar

StartChar: uni001B
Encoding: 27 27 27
Width: 251
VWidth: 94
Flags: W
LayerCount: 2
Fore
SplineSet
190.087890625 5.9833984375 m 4
 184.576171875 0.4423828125 176 0.4423828125 171.1015625 5.9833984375 c 6
 3.8984375 173.489257812 l 6
 -1.61328125 179.032226562 -1.61328125 187.653320312 3.8984375 192.581054688 c 4
 9.41015625 198.122070312 17.986328125 198.122070312 22.884765625 192.581054688 c 6
 190.087890625 25.0751953125 l 6
 194.986328125 20.1474609375 194.986328125 11.5263671875 190.087890625 5.9833984375 c 4
190.087890625 192.581054688 m 4
 195.599609375 187.038085938 195.599609375 178.416992188 190.087890625 173.489257812 c 6
 22.884765625 5.9833984375 l 6
 17.373046875 0.4423828125 8.798828125 0.4423828125 3.8984375 5.9833984375 c 4
 -1.61328125 11.5263671875 -1.61328125 20.1474609375 3.8984375 25.0751953125 c 6
 170.48828125 192.581054688 l 6
 176 198.122070312 184.576171875 198.122070312 190.087890625 192.581054688 c 4
EndSplineSet
EndChar

StartChar: uni001C
Encoding: 28 28 28
Width: 251
VWidth: 94
Flags: W
LayerCount: 2
Fore
SplineSet
190.087890625 5.9833984375 m 4
 184.576171875 0.4423828125 176 0.4423828125 171.1015625 5.9833984375 c 6
 3.8984375 173.489257812 l 6
 -1.61328125 179.032226562 -1.61328125 187.653320312 3.8984375 192.581054688 c 4
 9.41015625 198.122070312 17.986328125 198.122070312 22.884765625 192.581054688 c 6
 190.087890625 25.0751953125 l 6
 194.986328125 20.1474609375 194.986328125 11.5263671875 190.087890625 5.9833984375 c 4
190.087890625 192.581054688 m 4
 195.599609375 187.038085938 195.599609375 178.416992188 190.087890625 173.489257812 c 6
 22.884765625 5.9833984375 l 6
 17.373046875 0.4423828125 8.798828125 0.4423828125 3.8984375 5.9833984375 c 4
 -1.61328125 11.5263671875 -1.61328125 20.1474609375 3.8984375 25.0751953125 c 6
 170.48828125 192.581054688 l 6
 176 198.122070312 184.576171875 198.122070312 190.087890625 192.581054688 c 4
EndSplineSet
EndChar

StartChar: uni001D
Encoding: 29 29 29
Width: 251
VWidth: 94
Flags: W
LayerCount: 2
Fore
SplineSet
190.087890625 5.9833984375 m 4
 184.576171875 0.4423828125 176 0.4423828125 171.1015625 5.9833984375 c 6
 3.8984375 173.489257812 l 6
 -1.61328125 179.032226562 -1.61328125 187.653320312 3.8984375 192.581054688 c 4
 9.41015625 198.122070312 17.986328125 198.122070312 22.884765625 192.581054688 c 6
 190.087890625 25.0751953125 l 6
 194.986328125 20.1474609375 194.986328125 11.5263671875 190.087890625 5.9833984375 c 4
190.087890625 192.581054688 m 4
 195.599609375 187.038085938 195.599609375 178.416992188 190.087890625 173.489257812 c 6
 22.884765625 5.9833984375 l 6
 17.373046875 0.4423828125 8.798828125 0.4423828125 3.8984375 5.9833984375 c 4
 -1.61328125 11.5263671875 -1.61328125 20.1474609375 3.8984375 25.0751953125 c 6
 170.48828125 192.581054688 l 6
 176 198.122070312 184.576171875 198.122070312 190.087890625 192.581054688 c 4
EndSplineSet
EndChar

StartChar: uni001E
Encoding: 30 30 30
Width: 251
VWidth: 94
Flags: W
LayerCount: 2
Fore
SplineSet
190.087890625 5.9833984375 m 4
 184.576171875 0.4423828125 176 0.4423828125 171.1015625 5.9833984375 c 6
 3.8984375 173.489257812 l 6
 -1.61328125 179.032226562 -1.61328125 187.653320312 3.8984375 192.581054688 c 4
 9.41015625 198.122070312 17.986328125 198.122070312 22.884765625 192.581054688 c 6
 190.087890625 25.0751953125 l 6
 194.986328125 20.1474609375 194.986328125 11.5263671875 190.087890625 5.9833984375 c 4
190.087890625 192.581054688 m 4
 195.599609375 187.038085938 195.599609375 178.416992188 190.087890625 173.489257812 c 6
 22.884765625 5.9833984375 l 6
 17.373046875 0.4423828125 8.798828125 0.4423828125 3.8984375 5.9833984375 c 4
 -1.61328125 11.5263671875 -1.61328125 20.1474609375 3.8984375 25.0751953125 c 6
 170.48828125 192.581054688 l 6
 176 198.122070312 184.576171875 198.122070312 190.087890625 192.581054688 c 4
EndSplineSet
EndChar

StartChar: uni001F
Encoding: 31 31 31
Width: 251
VWidth: 94
Flags: W
LayerCount: 2
Fore
SplineSet
190.087890625 5.9833984375 m 4
 184.576171875 0.4423828125 176 0.4423828125 171.1015625 5.9833984375 c 6
 3.8984375 173.489257812 l 6
 -1.61328125 179.032226562 -1.61328125 187.653320312 3.8984375 192.581054688 c 4
 9.41015625 198.122070312 17.986328125 198.122070312 22.884765625 192.581054688 c 6
 190.087890625 25.0751953125 l 6
 194.986328125 20.1474609375 194.986328125 11.5263671875 190.087890625 5.9833984375 c 4
190.087890625 192.581054688 m 4
 195.599609375 187.038085938 195.599609375 178.416992188 190.087890625 173.489257812 c 6
 22.884765625 5.9833984375 l 6
 17.373046875 0.4423828125 8.798828125 0.4423828125 3.8984375 5.9833984375 c 4
 -1.61328125 11.5263671875 -1.61328125 20.1474609375 3.8984375 25.0751953125 c 6
 170.48828125 192.581054688 l 6
 176 198.122070312 184.576171875 198.122070312 190.087890625 192.581054688 c 4
EndSplineSet
EndChar

StartChar: space
Encoding: 32 32 32
Width: 251
VWidth: 94
Flags: W
LayerCount: 2
Fore
SplineSet
190.087890625 5.9833984375 m 4
 184.576171875 0.4423828125 176 0.4423828125 171.1015625 5.9833984375 c 6
 3.8984375 173.489257812 l 6
 -1.61328125 179.032226562 -1.61328125 187.653320312 3.8984375 192.581054688 c 4
 9.41015625 198.122070312 17.986328125 198.122070312 22.884765625 192.581054688 c 6
 190.087890625 25.0751953125 l 6
 194.986328125 20.1474609375 194.986328125 11.5263671875 190.087890625 5.9833984375 c 4
190.087890625 192.581054688 m 4
 195.599609375 187.038085938 195.599609375 178.416992188 190.087890625 173.489257812 c 6
 22.884765625 5.9833984375 l 6
 17.373046875 0.4423828125 8.798828125 0.4423828125 3.8984375 5.9833984375 c 4
 -1.61328125 11.5263671875 -1.61328125 20.1474609375 3.8984375 25.0751953125 c 6
 170.48828125 192.581054688 l 6
 176 198.122070312 184.576171875 198.122070312 190.087890625 192.581054688 c 4
EndSplineSet
EndChar

StartChar: exclam
Encoding: 33 33 33
Width: 251
VWidth: 94
Flags: W
LayerCount: 2
Fore
SplineSet
190.087890625 5.9833984375 m 4
 184.576171875 0.4423828125 176 0.4423828125 171.1015625 5.9833984375 c 6
 3.8984375 173.489257812 l 6
 -1.61328125 179.032226562 -1.61328125 187.653320312 3.8984375 192.581054688 c 4
 9.41015625 198.122070312 17.986328125 198.122070312 22.884765625 192.581054688 c 6
 190.087890625 25.0751953125 l 6
 194.986328125 20.1474609375 194.986328125 11.5263671875 190.087890625 5.9833984375 c 4
190.087890625 192.581054688 m 4
 195.599609375 187.038085938 195.599609375 178.416992188 190.087890625 173.489257812 c 6
 22.884765625 5.9833984375 l 6
 17.373046875 0.4423828125 8.798828125 0.4423828125 3.8984375 5.9833984375 c 4
 -1.61328125 11.5263671875 -1.61328125 20.1474609375 3.8984375 25.0751953125 c 6
 170.48828125 192.581054688 l 6
 176 198.122070312 184.576171875 198.122070312 190.087890625 192.581054688 c 4
EndSplineSet
EndChar

StartChar: quotedbl
Encoding: 34 34 34
Width: 251
VWidth: 94
Flags: W
LayerCount: 2
Fore
SplineSet
190.087890625 5.9833984375 m 4
 184.576171875 0.4423828125 176 0.4423828125 171.1015625 5.9833984375 c 6
 3.8984375 173.489257812 l 6
 -1.61328125 179.032226562 -1.61328125 187.653320312 3.8984375 192.581054688 c 4
 9.41015625 198.122070312 17.986328125 198.122070312 22.884765625 192.581054688 c 6
 190.087890625 25.0751953125 l 6
 194.986328125 20.1474609375 194.986328125 11.5263671875 190.087890625 5.9833984375 c 4
190.087890625 192.581054688 m 4
 195.599609375 187.038085938 195.599609375 178.416992188 190.087890625 173.489257812 c 6
 22.884765625 5.9833984375 l 6
 17.373046875 0.4423828125 8.798828125 0.4423828125 3.8984375 5.9833984375 c 4
 -1.61328125 11.5263671875 -1.61328125 20.1474609375 3.8984375 25.0751953125 c 6
 170.48828125 192.581054688 l 6
 176 198.122070312 184.576171875 198.122070312 190.087890625 192.581054688 c 4
EndSplineSet
EndChar

StartChar: numbersign
Encoding: 35 35 35
Width: 251
VWidth: 94
Flags: W
LayerCount: 2
Fore
SplineSet
190.087890625 5.9833984375 m 4
 184.576171875 0.4423828125 176 0.4423828125 171.1015625 5.9833984375 c 6
 3.8984375 173.489257812 l 6
 -1.61328125 179.032226562 -1.61328125 187.653320312 3.8984375 192.581054688 c 4
 9.41015625 198.122070312 17.986328125 198.122070312 22.884765625 192.581054688 c 6
 190.087890625 25.0751953125 l 6
 194.986328125 20.1474609375 194.986328125 11.5263671875 190.087890625 5.9833984375 c 4
190.087890625 192.581054688 m 4
 195.599609375 187.038085938 195.599609375 178.416992188 190.087890625 173.489257812 c 6
 22.884765625 5.9833984375 l 6
 17.373046875 0.4423828125 8.798828125 0.4423828125 3.8984375 5.9833984375 c 4
 -1.61328125 11.5263671875 -1.61328125 20.1474609375 3.8984375 25.0751953125 c 6
 170.48828125 192.581054688 l 6
 176 198.122070312 184.576171875 198.122070312 190.087890625 192.581054688 c 4
EndSplineSet
EndChar

StartChar: dollar
Encoding: 36 36 36
Width: 251
VWidth: 94
Flags: W
LayerCount: 2
Fore
SplineSet
190.087890625 5.9833984375 m 4
 184.576171875 0.4423828125 176 0.4423828125 171.1015625 5.9833984375 c 6
 3.8984375 173.489257812 l 6
 -1.61328125 179.032226562 -1.61328125 187.653320312 3.8984375 192.581054688 c 4
 9.41015625 198.122070312 17.986328125 198.122070312 22.884765625 192.581054688 c 6
 190.087890625 25.0751953125 l 6
 194.986328125 20.1474609375 194.986328125 11.5263671875 190.087890625 5.9833984375 c 4
190.087890625 192.581054688 m 4
 195.599609375 187.038085938 195.599609375 178.416992188 190.087890625 173.489257812 c 6
 22.884765625 5.9833984375 l 6
 17.373046875 0.4423828125 8.798828125 0.4423828125 3.8984375 5.9833984375 c 4
 -1.61328125 11.5263671875 -1.61328125 20.1474609375 3.8984375 25.0751953125 c 6
 170.48828125 192.581054688 l 6
 176 198.122070312 184.576171875 198.122070312 190.087890625 192.581054688 c 4
EndSplineSet
EndChar

StartChar: percent
Encoding: 37 37 37
Width: 251
VWidth: 94
Flags: W
LayerCount: 2
Fore
SplineSet
190.087890625 5.9833984375 m 4
 184.576171875 0.4423828125 176 0.4423828125 171.1015625 5.9833984375 c 6
 3.8984375 173.489257812 l 6
 -1.61328125 179.032226562 -1.61328125 187.653320312 3.8984375 192.581054688 c 4
 9.41015625 198.122070312 17.986328125 198.122070312 22.884765625 192.581054688 c 6
 190.087890625 25.0751953125 l 6
 194.986328125 20.1474609375 194.986328125 11.5263671875 190.087890625 5.9833984375 c 4
190.087890625 192.581054688 m 4
 195.599609375 187.038085938 195.599609375 178.416992188 190.087890625 173.489257812 c 6
 22.884765625 5.9833984375 l 6
 17.373046875 0.4423828125 8.798828125 0.4423828125 3.8984375 5.9833984375 c 4
 -1.61328125 11.5263671875 -1.61328125 20.1474609375 3.8984375 25.0751953125 c 6
 170.48828125 192.581054688 l 6
 176 198.122070312 184.576171875 198.122070312 190.087890625 192.581054688 c 4
EndSplineSet
EndChar

StartChar: ampersand
Encoding: 38 38 38
Width: 251
VWidth: 94
Flags: W
LayerCount: 2
Fore
SplineSet
190.087890625 5.9833984375 m 4
 184.576171875 0.4423828125 176 0.4423828125 171.1015625 5.9833984375 c 6
 3.8984375 173.489257812 l 6
 -1.61328125 179.032226562 -1.61328125 187.653320312 3.8984375 192.581054688 c 4
 9.41015625 198.122070312 17.986328125 198.122070312 22.884765625 192.581054688 c 6
 190.087890625 25.0751953125 l 6
 194.986328125 20.1474609375 194.986328125 11.5263671875 190.087890625 5.9833984375 c 4
190.087890625 192.581054688 m 4
 195.599609375 187.038085938 195.599609375 178.416992188 190.087890625 173.489257812 c 6
 22.884765625 5.9833984375 l 6
 17.373046875 0.4423828125 8.798828125 0.4423828125 3.8984375 5.9833984375 c 4
 -1.61328125 11.5263671875 -1.61328125 20.1474609375 3.8984375 25.0751953125 c 6
 170.48828125 192.581054688 l 6
 176 198.122070312 184.576171875 198.122070312 190.087890625 192.581054688 c 4
EndSplineSet
EndChar

StartChar: quotesingle
Encoding: 39 39 39
Width: 251
VWidth: 94
Flags: W
LayerCount: 2
Fore
SplineSet
190.087890625 5.9833984375 m 4
 184.576171875 0.4423828125 176 0.4423828125 171.1015625 5.9833984375 c 6
 3.8984375 173.489257812 l 6
 -1.61328125 179.032226562 -1.61328125 187.653320312 3.8984375 192.581054688 c 4
 9.41015625 198.122070312 17.986328125 198.122070312 22.884765625 192.581054688 c 6
 190.087890625 25.0751953125 l 6
 194.986328125 20.1474609375 194.986328125 11.5263671875 190.087890625 5.9833984375 c 4
190.087890625 192.581054688 m 4
 195.599609375 187.038085938 195.599609375 178.416992188 190.087890625 173.489257812 c 6
 22.884765625 5.9833984375 l 6
 17.373046875 0.4423828125 8.798828125 0.4423828125 3.8984375 5.9833984375 c 4
 -1.61328125 11.5263671875 -1.61328125 20.1474609375 3.8984375 25.0751953125 c 6
 170.48828125 192.581054688 l 6
 176 198.122070312 184.576171875 198.122070312 190.087890625 192.581054688 c 4
EndSplineSet
EndChar

StartChar: parenleft
Encoding: 40 40 40
Width: 251
VWidth: 94
Flags: W
LayerCount: 2
Fore
SplineSet
190.087890625 5.9833984375 m 4
 184.576171875 0.4423828125 176 0.4423828125 171.1015625 5.9833984375 c 6
 3.8984375 173.489257812 l 6
 -1.61328125 179.032226562 -1.61328125 187.653320312 3.8984375 192.581054688 c 4
 9.41015625 198.122070312 17.986328125 198.122070312 22.884765625 192.581054688 c 6
 190.087890625 25.0751953125 l 6
 194.986328125 20.1474609375 194.986328125 11.5263671875 190.087890625 5.9833984375 c 4
190.087890625 192.581054688 m 4
 195.599609375 187.038085938 195.599609375 178.416992188 190.087890625 173.489257812 c 6
 22.884765625 5.9833984375 l 6
 17.373046875 0.4423828125 8.798828125 0.4423828125 3.8984375 5.9833984375 c 4
 -1.61328125 11.5263671875 -1.61328125 20.1474609375 3.8984375 25.0751953125 c 6
 170.48828125 192.581054688 l 6
 176 198.122070312 184.576171875 198.122070312 190.087890625 192.581054688 c 4
EndSplineSet
EndChar

StartChar: parenright
Encoding: 41 41 41
Width: 251
VWidth: 94
Flags: W
LayerCount: 2
Fore
SplineSet
190.087890625 5.9833984375 m 4
 184.576171875 0.4423828125 176 0.4423828125 171.1015625 5.9833984375 c 6
 3.8984375 173.489257812 l 6
 -1.61328125 179.032226562 -1.61328125 187.653320312 3.8984375 192.581054688 c 4
 9.41015625 198.122070312 17.986328125 198.122070312 22.884765625 192.581054688 c 6
 190.087890625 25.0751953125 l 6
 194.986328125 20.1474609375 194.986328125 11.5263671875 190.087890625 5.9833984375 c 4
190.087890625 192.581054688 m 4
 195.599609375 187.038085938 195.599609375 178.416992188 190.087890625 173.489257812 c 6
 22.884765625 5.9833984375 l 6
 17.373046875 0.4423828125 8.798828125 0.4423828125 3.8984375 5.9833984375 c 4
 -1.61328125 11.5263671875 -1.61328125 20.1474609375 3.8984375 25.0751953125 c 6
 170.48828125 192.581054688 l 6
 176 198.122070312 184.576171875 198.122070312 190.087890625 192.581054688 c 4
EndSplineSet
EndChar

StartChar: asterisk
Encoding: 42 42 42
Width: 251
VWidth: 94
Flags: W
LayerCount: 2
Fore
SplineSet
190.087890625 5.9833984375 m 4
 184.576171875 0.4423828125 176 0.4423828125 171.1015625 5.9833984375 c 6
 3.8984375 173.489257812 l 6
 -1.61328125 179.032226562 -1.61328125 187.653320312 3.8984375 192.581054688 c 4
 9.41015625 198.122070312 17.986328125 198.122070312 22.884765625 192.581054688 c 6
 190.087890625 25.0751953125 l 6
 194.986328125 20.1474609375 194.986328125 11.5263671875 190.087890625 5.9833984375 c 4
190.087890625 192.581054688 m 4
 195.599609375 187.038085938 195.599609375 178.416992188 190.087890625 173.489257812 c 6
 22.884765625 5.9833984375 l 6
 17.373046875 0.4423828125 8.798828125 0.4423828125 3.8984375 5.9833984375 c 4
 -1.61328125 11.5263671875 -1.61328125 20.1474609375 3.8984375 25.0751953125 c 6
 170.48828125 192.581054688 l 6
 176 198.122070312 184.576171875 198.122070312 190.087890625 192.581054688 c 4
EndSplineSet
EndChar

StartChar: plus
Encoding: 43 43 43
Width: 251
VWidth: 94
Flags: W
LayerCount: 2
Fore
SplineSet
190.087890625 5.9833984375 m 4
 184.576171875 0.4423828125 176 0.4423828125 171.1015625 5.9833984375 c 6
 3.8984375 173.489257812 l 6
 -1.61328125 179.032226562 -1.61328125 187.653320312 3.8984375 192.581054688 c 4
 9.41015625 198.122070312 17.986328125 198.122070312 22.884765625 192.581054688 c 6
 190.087890625 25.0751953125 l 6
 194.986328125 20.1474609375 194.986328125 11.5263671875 190.087890625 5.9833984375 c 4
190.087890625 192.581054688 m 4
 195.599609375 187.038085938 195.599609375 178.416992188 190.087890625 173.489257812 c 6
 22.884765625 5.9833984375 l 6
 17.373046875 0.4423828125 8.798828125 0.4423828125 3.8984375 5.9833984375 c 4
 -1.61328125 11.5263671875 -1.61328125 20.1474609375 3.8984375 25.0751953125 c 6
 170.48828125 192.581054688 l 6
 176 198.122070312 184.576171875 198.122070312 190.087890625 192.581054688 c 4
EndSplineSet
EndChar

StartChar: comma
Encoding: 44 44 44
Width: 251
VWidth: 94
Flags: W
LayerCount: 2
Fore
SplineSet
190.087890625 5.9833984375 m 4
 184.576171875 0.4423828125 176 0.4423828125 171.1015625 5.9833984375 c 6
 3.8984375 173.489257812 l 6
 -1.61328125 179.032226562 -1.61328125 187.653320312 3.8984375 192.581054688 c 4
 9.41015625 198.122070312 17.986328125 198.122070312 22.884765625 192.581054688 c 6
 190.087890625 25.0751953125 l 6
 194.986328125 20.1474609375 194.986328125 11.5263671875 190.087890625 5.9833984375 c 4
190.087890625 192.581054688 m 4
 195.599609375 187.038085938 195.599609375 178.416992188 190.087890625 173.489257812 c 6
 22.884765625 5.9833984375 l 6
 17.373046875 0.4423828125 8.798828125 0.4423828125 3.8984375 5.9833984375 c 4
 -1.61328125 11.5263671875 -1.61328125 20.1474609375 3.8984375 25.0751953125 c 6
 170.48828125 192.581054688 l 6
 176 198.122070312 184.576171875 198.122070312 190.087890625 192.581054688 c 4
EndSplineSet
EndChar

StartChar: hyphen
Encoding: 45 45 45
Width: 251
VWidth: 94
Flags: W
LayerCount: 2
Fore
SplineSet
190.087890625 5.9833984375 m 4
 184.576171875 0.4423828125 176 0.4423828125 171.1015625 5.9833984375 c 6
 3.8984375 173.489257812 l 6
 -1.61328125 179.032226562 -1.61328125 187.653320312 3.8984375 192.581054688 c 4
 9.41015625 198.122070312 17.986328125 198.122070312 22.884765625 192.581054688 c 6
 190.087890625 25.0751953125 l 6
 194.986328125 20.1474609375 194.986328125 11.5263671875 190.087890625 5.9833984375 c 4
190.087890625 192.581054688 m 4
 195.599609375 187.038085938 195.599609375 178.416992188 190.087890625 173.489257812 c 6
 22.884765625 5.9833984375 l 6
 17.373046875 0.4423828125 8.798828125 0.4423828125 3.8984375 5.9833984375 c 4
 -1.61328125 11.5263671875 -1.61328125 20.1474609375 3.8984375 25.0751953125 c 6
 170.48828125 192.581054688 l 6
 176 198.122070312 184.576171875 198.122070312 190.087890625 192.581054688 c 4
EndSplineSet
EndChar

StartChar: period
Encoding: 46 46 46
Width: 251
VWidth: 94
Flags: W
LayerCount: 2
Fore
SplineSet
190.087890625 5.9833984375 m 4
 184.576171875 0.4423828125 176 0.4423828125 171.1015625 5.9833984375 c 6
 3.8984375 173.489257812 l 6
 -1.61328125 179.032226562 -1.61328125 187.653320312 3.8984375 192.581054688 c 4
 9.41015625 198.122070312 17.986328125 198.122070312 22.884765625 192.581054688 c 6
 190.087890625 25.0751953125 l 6
 194.986328125 20.1474609375 194.986328125 11.5263671875 190.087890625 5.9833984375 c 4
190.087890625 192.581054688 m 4
 195.599609375 187.038085938 195.599609375 178.416992188 190.087890625 173.489257812 c 6
 22.884765625 5.9833984375 l 6
 17.373046875 0.4423828125 8.798828125 0.4423828125 3.8984375 5.9833984375 c 4
 -1.61328125 11.5263671875 -1.61328125 20.1474609375 3.8984375 25.0751953125 c 6
 170.48828125 192.581054688 l 6
 176 198.122070312 184.576171875 198.122070312 190.087890625 192.581054688 c 4
EndSplineSet
EndChar

StartChar: slash
Encoding: 47 47 47
Width: 251
VWidth: 94
Flags: W
LayerCount: 2
Fore
SplineSet
190.087890625 5.9833984375 m 4
 184.576171875 0.4423828125 176 0.4423828125 171.1015625 5.9833984375 c 6
 3.8984375 173.489257812 l 6
 -1.61328125 179.032226562 -1.61328125 187.653320312 3.8984375 192.581054688 c 4
 9.41015625 198.122070312 17.986328125 198.122070312 22.884765625 192.581054688 c 6
 190.087890625 25.0751953125 l 6
 194.986328125 20.1474609375 194.986328125 11.5263671875 190.087890625 5.9833984375 c 4
190.087890625 192.581054688 m 4
 195.599609375 187.038085938 195.599609375 178.416992188 190.087890625 173.489257812 c 6
 22.884765625 5.9833984375 l 6
 17.373046875 0.4423828125 8.798828125 0.4423828125 3.8984375 5.9833984375 c 4
 -1.61328125 11.5263671875 -1.61328125 20.1474609375 3.8984375 25.0751953125 c 6
 170.48828125 192.581054688 l 6
 176 198.122070312 184.576171875 198.122070312 190.087890625 192.581054688 c 4
EndSplineSet
EndChar

StartChar: zero
Encoding: 48 48 48
Width: 251
VWidth: 94
Flags: W
LayerCount: 2
Fore
SplineSet
190.087890625 5.9833984375 m 4
 184.576171875 0.4423828125 176 0.4423828125 171.1015625 5.9833984375 c 6
 3.8984375 173.489257812 l 6
 -1.61328125 179.032226562 -1.61328125 187.653320312 3.8984375 192.581054688 c 4
 9.41015625 198.122070312 17.986328125 198.122070312 22.884765625 192.581054688 c 6
 190.087890625 25.0751953125 l 6
 194.986328125 20.1474609375 194.986328125 11.5263671875 190.087890625 5.9833984375 c 4
190.087890625 192.581054688 m 4
 195.599609375 187.038085938 195.599609375 178.416992188 190.087890625 173.489257812 c 6
 22.884765625 5.9833984375 l 6
 17.373046875 0.4423828125 8.798828125 0.4423828125 3.8984375 5.9833984375 c 4
 -1.61328125 11.5263671875 -1.61328125 20.1474609375 3.8984375 25.0751953125 c 6
 170.48828125 192.581054688 l 6
 176 198.122070312 184.576171875 198.122070312 190.087890625 192.581054688 c 4
EndSplineSet
EndChar

StartChar: one
Encoding: 49 49 49
Width: 251
VWidth: 94
Flags: W
LayerCount: 2
Fore
SplineSet
190.087890625 5.9833984375 m 4
 184.576171875 0.4423828125 176 0.4423828125 171.1015625 5.9833984375 c 6
 3.8984375 173.489257812 l 6
 -1.61328125 179.032226562 -1.61328125 187.653320312 3.8984375 192.581054688 c 4
 9.41015625 198.122070312 17.986328125 198.122070312 22.884765625 192.581054688 c 6
 190.087890625 25.0751953125 l 6
 194.986328125 20.1474609375 194.986328125 11.5263671875 190.087890625 5.9833984375 c 4
190.087890625 192.581054688 m 4
 195.599609375 187.038085938 195.599609375 178.416992188 190.087890625 173.489257812 c 6
 22.884765625 5.9833984375 l 6
 17.373046875 0.4423828125 8.798828125 0.4423828125 3.8984375 5.9833984375 c 4
 -1.61328125 11.5263671875 -1.61328125 20.1474609375 3.8984375 25.0751953125 c 6
 170.48828125 192.581054688 l 6
 176 198.122070312 184.576171875 198.122070312 190.087890625 192.581054688 c 4
EndSplineSet
EndChar

StartChar: two
Encoding: 50 50 50
Width: 251
VWidth: 94
Flags: W
LayerCount: 2
Fore
SplineSet
190.087890625 5.9833984375 m 4
 184.576171875 0.4423828125 176 0.4423828125 171.1015625 5.9833984375 c 6
 3.8984375 173.489257812 l 6
 -1.61328125 179.032226562 -1.61328125 187.653320312 3.8984375 192.581054688 c 4
 9.41015625 198.122070312 17.986328125 198.122070312 22.884765625 192.581054688 c 6
 190.087890625 25.0751953125 l 6
 194.986328125 20.1474609375 194.986328125 11.5263671875 190.087890625 5.9833984375 c 4
190.087890625 192.581054688 m 4
 195.599609375 187.038085938 195.599609375 178.416992188 190.087890625 173.489257812 c 6
 22.884765625 5.9833984375 l 6
 17.373046875 0.4423828125 8.798828125 0.4423828125 3.8984375 5.9833984375 c 4
 -1.61328125 11.5263671875 -1.61328125 20.1474609375 3.8984375 25.0751953125 c 6
 170.48828125 192.581054688 l 6
 176 198.122070312 184.576171875 198.122070312 190.087890625 192.581054688 c 4
EndSplineSet
EndChar

StartChar: three
Encoding: 51 51 51
Width: 251
VWidth: 94
Flags: W
LayerCount: 2
Fore
SplineSet
190.087890625 5.9833984375 m 4
 184.576171875 0.4423828125 176 0.4423828125 171.1015625 5.9833984375 c 6
 3.8984375 173.489257812 l 6
 -1.61328125 179.032226562 -1.61328125 187.653320312 3.8984375 192.581054688 c 4
 9.41015625 198.122070312 17.986328125 198.122070312 22.884765625 192.581054688 c 6
 190.087890625 25.0751953125 l 6
 194.986328125 20.1474609375 194.986328125 11.5263671875 190.087890625 5.9833984375 c 4
190.087890625 192.581054688 m 4
 195.599609375 187.038085938 195.599609375 178.416992188 190.087890625 173.489257812 c 6
 22.884765625 5.9833984375 l 6
 17.373046875 0.4423828125 8.798828125 0.4423828125 3.8984375 5.9833984375 c 4
 -1.61328125 11.5263671875 -1.61328125 20.1474609375 3.8984375 25.0751953125 c 6
 170.48828125 192.581054688 l 6
 176 198.122070312 184.576171875 198.122070312 190.087890625 192.581054688 c 4
EndSplineSet
EndChar

StartChar: four
Encoding: 52 52 52
Width: 251
VWidth: 94
Flags: W
LayerCount: 2
Fore
SplineSet
190.087890625 5.9833984375 m 4
 184.576171875 0.4423828125 176 0.4423828125 171.1015625 5.9833984375 c 6
 3.8984375 173.489257812 l 6
 -1.61328125 179.032226562 -1.61328125 187.653320312 3.8984375 192.581054688 c 4
 9.41015625 198.122070312 17.986328125 198.122070312 22.884765625 192.581054688 c 6
 190.087890625 25.0751953125 l 6
 194.986328125 20.1474609375 194.986328125 11.5263671875 190.087890625 5.9833984375 c 4
190.087890625 192.581054688 m 4
 195.599609375 187.038085938 195.599609375 178.416992188 190.087890625 173.489257812 c 6
 22.884765625 5.9833984375 l 6
 17.373046875 0.4423828125 8.798828125 0.4423828125 3.8984375 5.9833984375 c 4
 -1.61328125 11.5263671875 -1.61328125 20.1474609375 3.8984375 25.0751953125 c 6
 170.48828125 192.581054688 l 6
 176 198.122070312 184.576171875 198.122070312 190.087890625 192.581054688 c 4
EndSplineSet
EndChar

StartChar: five
Encoding: 53 53 53
Width: 251
VWidth: 94
Flags: W
LayerCount: 2
Fore
SplineSet
190.087890625 5.9833984375 m 4
 184.576171875 0.4423828125 176 0.4423828125 171.1015625 5.9833984375 c 6
 3.8984375 173.489257812 l 6
 -1.61328125 179.032226562 -1.61328125 187.653320312 3.8984375 192.581054688 c 4
 9.41015625 198.122070312 17.986328125 198.122070312 22.884765625 192.581054688 c 6
 190.087890625 25.0751953125 l 6
 194.986328125 20.1474609375 194.986328125 11.5263671875 190.087890625 5.9833984375 c 4
190.087890625 192.581054688 m 4
 195.599609375 187.038085938 195.599609375 178.416992188 190.087890625 173.489257812 c 6
 22.884765625 5.9833984375 l 6
 17.373046875 0.4423828125 8.798828125 0.4423828125 3.8984375 5.9833984375 c 4
 -1.61328125 11.5263671875 -1.61328125 20.1474609375 3.8984375 25.0751953125 c 6
 170.48828125 192.581054688 l 6
 176 198.122070312 184.576171875 198.122070312 190.087890625 192.581054688 c 4
EndSplineSet
EndChar

StartChar: six
Encoding: 54 54 54
Width: 251
VWidth: 94
Flags: W
LayerCount: 2
Fore
SplineSet
190.087890625 5.9833984375 m 4
 184.576171875 0.4423828125 176 0.4423828125 171.1015625 5.9833984375 c 6
 3.8984375 173.489257812 l 6
 -1.61328125 179.032226562 -1.61328125 187.653320312 3.8984375 192.581054688 c 4
 9.41015625 198.122070312 17.986328125 198.122070312 22.884765625 192.581054688 c 6
 190.087890625 25.0751953125 l 6
 194.986328125 20.1474609375 194.986328125 11.5263671875 190.087890625 5.9833984375 c 4
190.087890625 192.581054688 m 4
 195.599609375 187.038085938 195.599609375 178.416992188 190.087890625 173.489257812 c 6
 22.884765625 5.9833984375 l 6
 17.373046875 0.4423828125 8.798828125 0.4423828125 3.8984375 5.9833984375 c 4
 -1.61328125 11.5263671875 -1.61328125 20.1474609375 3.8984375 25.0751953125 c 6
 170.48828125 192.581054688 l 6
 176 198.122070312 184.576171875 198.122070312 190.087890625 192.581054688 c 4
EndSplineSet
EndChar

StartChar: seven
Encoding: 55 55 55
Width: 251
VWidth: 94
Flags: W
LayerCount: 2
Fore
SplineSet
190.087890625 5.9833984375 m 4
 184.576171875 0.4423828125 176 0.4423828125 171.1015625 5.9833984375 c 6
 3.8984375 173.489257812 l 6
 -1.61328125 179.032226562 -1.61328125 187.653320312 3.8984375 192.581054688 c 4
 9.41015625 198.122070312 17.986328125 198.122070312 22.884765625 192.581054688 c 6
 190.087890625 25.0751953125 l 6
 194.986328125 20.1474609375 194.986328125 11.5263671875 190.087890625 5.9833984375 c 4
190.087890625 192.581054688 m 4
 195.599609375 187.038085938 195.599609375 178.416992188 190.087890625 173.489257812 c 6
 22.884765625 5.9833984375 l 6
 17.373046875 0.4423828125 8.798828125 0.4423828125 3.8984375 5.9833984375 c 4
 -1.61328125 11.5263671875 -1.61328125 20.1474609375 3.8984375 25.0751953125 c 6
 170.48828125 192.581054688 l 6
 176 198.122070312 184.576171875 198.122070312 190.087890625 192.581054688 c 4
EndSplineSet
EndChar

StartChar: eight
Encoding: 56 56 56
Width: 251
VWidth: 94
Flags: W
LayerCount: 2
Fore
SplineSet
190.087890625 5.9833984375 m 4
 184.576171875 0.4423828125 176 0.4423828125 171.1015625 5.9833984375 c 6
 3.8984375 173.489257812 l 6
 -1.61328125 179.032226562 -1.61328125 187.653320312 3.8984375 192.581054688 c 4
 9.41015625 198.122070312 17.986328125 198.122070312 22.884765625 192.581054688 c 6
 190.087890625 25.0751953125 l 6
 194.986328125 20.1474609375 194.986328125 11.5263671875 190.087890625 5.9833984375 c 4
190.087890625 192.581054688 m 4
 195.599609375 187.038085938 195.599609375 178.416992188 190.087890625 173.489257812 c 6
 22.884765625 5.9833984375 l 6
 17.373046875 0.4423828125 8.798828125 0.4423828125 3.8984375 5.9833984375 c 4
 -1.61328125 11.5263671875 -1.61328125 20.1474609375 3.8984375 25.0751953125 c 6
 170.48828125 192.581054688 l 6
 176 198.122070312 184.576171875 198.122070312 190.087890625 192.581054688 c 4
EndSplineSet
EndChar

StartChar: nine
Encoding: 57 57 57
Width: 251
VWidth: 94
Flags: W
LayerCount: 2
Fore
SplineSet
190.087890625 5.9833984375 m 4
 184.576171875 0.4423828125 176 0.4423828125 171.1015625 5.9833984375 c 6
 3.8984375 173.489257812 l 6
 -1.61328125 179.032226562 -1.61328125 187.653320312 3.8984375 192.581054688 c 4
 9.41015625 198.122070312 17.986328125 198.122070312 22.884765625 192.581054688 c 6
 190.087890625 25.0751953125 l 6
 194.986328125 20.1474609375 194.986328125 11.5263671875 190.087890625 5.9833984375 c 4
190.087890625 192.581054688 m 4
 195.599609375 187.038085938 195.599609375 178.416992188 190.087890625 173.489257812 c 6
 22.884765625 5.9833984375 l 6
 17.373046875 0.4423828125 8.798828125 0.4423828125 3.8984375 5.9833984375 c 4
 -1.61328125 11.5263671875 -1.61328125 20.1474609375 3.8984375 25.0751953125 c 6
 170.48828125 192.581054688 l 6
 176 198.122070312 184.576171875 198.122070312 190.087890625 192.581054688 c 4
EndSplineSet
EndChar

StartChar: colon
Encoding: 58 58 58
Width: 251
VWidth: 94
Flags: W
LayerCount: 2
Fore
SplineSet
190.087890625 5.9833984375 m 4
 184.576171875 0.4423828125 176 0.4423828125 171.1015625 5.9833984375 c 6
 3.8984375 173.489257812 l 6
 -1.61328125 179.032226562 -1.61328125 187.653320312 3.8984375 192.581054688 c 4
 9.41015625 198.122070312 17.986328125 198.122070312 22.884765625 192.581054688 c 6
 190.087890625 25.0751953125 l 6
 194.986328125 20.1474609375 194.986328125 11.5263671875 190.087890625 5.9833984375 c 4
190.087890625 192.581054688 m 4
 195.599609375 187.038085938 195.599609375 178.416992188 190.087890625 173.489257812 c 6
 22.884765625 5.9833984375 l 6
 17.373046875 0.4423828125 8.798828125 0.4423828125 3.8984375 5.9833984375 c 4
 -1.61328125 11.5263671875 -1.61328125 20.1474609375 3.8984375 25.0751953125 c 6
 170.48828125 192.581054688 l 6
 176 198.122070312 184.576171875 198.122070312 190.087890625 192.581054688 c 4
EndSplineSet
EndChar

StartChar: semicolon
Encoding: 59 59 59
Width: 251
VWidth: 94
Flags: W
LayerCount: 2
Fore
SplineSet
190.087890625 5.9833984375 m 4
 184.576171875 0.4423828125 176 0.4423828125 171.1015625 5.9833984375 c 6
 3.8984375 173.489257812 l 6
 -1.61328125 179.032226562 -1.61328125 187.653320312 3.8984375 192.581054688 c 4
 9.41015625 198.122070312 17.986328125 198.122070312 22.884765625 192.581054688 c 6
 190.087890625 25.0751953125 l 6
 194.986328125 20.1474609375 194.986328125 11.5263671875 190.087890625 5.9833984375 c 4
190.087890625 192.581054688 m 4
 195.599609375 187.038085938 195.599609375 178.416992188 190.087890625 173.489257812 c 6
 22.884765625 5.9833984375 l 6
 17.373046875 0.4423828125 8.798828125 0.4423828125 3.8984375 5.9833984375 c 4
 -1.61328125 11.5263671875 -1.61328125 20.1474609375 3.8984375 25.0751953125 c 6
 170.48828125 192.581054688 l 6
 176 198.122070312 184.576171875 198.122070312 190.087890625 192.581054688 c 4
EndSplineSet
EndChar

StartChar: less
Encoding: 60 60 60
Width: 251
VWidth: 94
Flags: W
LayerCount: 2
Fore
SplineSet
190.087890625 5.9833984375 m 4
 184.576171875 0.4423828125 176 0.4423828125 171.1015625 5.9833984375 c 6
 3.8984375 173.489257812 l 6
 -1.61328125 179.032226562 -1.61328125 187.653320312 3.8984375 192.581054688 c 4
 9.41015625 198.122070312 17.986328125 198.122070312 22.884765625 192.581054688 c 6
 190.087890625 25.0751953125 l 6
 194.986328125 20.1474609375 194.986328125 11.5263671875 190.087890625 5.9833984375 c 4
190.087890625 192.581054688 m 4
 195.599609375 187.038085938 195.599609375 178.416992188 190.087890625 173.489257812 c 6
 22.884765625 5.9833984375 l 6
 17.373046875 0.4423828125 8.798828125 0.4423828125 3.8984375 5.9833984375 c 4
 -1.61328125 11.5263671875 -1.61328125 20.1474609375 3.8984375 25.0751953125 c 6
 170.48828125 192.581054688 l 6
 176 198.122070312 184.576171875 198.122070312 190.087890625 192.581054688 c 4
EndSplineSet
EndChar

StartChar: equal
Encoding: 61 61 61
Width: 251
VWidth: 94
Flags: W
LayerCount: 2
Fore
SplineSet
190.087890625 5.9833984375 m 4
 184.576171875 0.4423828125 176 0.4423828125 171.1015625 5.9833984375 c 6
 3.8984375 173.489257812 l 6
 -1.61328125 179.032226562 -1.61328125 187.653320312 3.8984375 192.581054688 c 4
 9.41015625 198.122070312 17.986328125 198.122070312 22.884765625 192.581054688 c 6
 190.087890625 25.0751953125 l 6
 194.986328125 20.1474609375 194.986328125 11.5263671875 190.087890625 5.9833984375 c 4
190.087890625 192.581054688 m 4
 195.599609375 187.038085938 195.599609375 178.416992188 190.087890625 173.489257812 c 6
 22.884765625 5.9833984375 l 6
 17.373046875 0.4423828125 8.798828125 0.4423828125 3.8984375 5.9833984375 c 4
 -1.61328125 11.5263671875 -1.61328125 20.1474609375 3.8984375 25.0751953125 c 6
 170.48828125 192.581054688 l 6
 176 198.122070312 184.576171875 198.122070312 190.087890625 192.581054688 c 4
EndSplineSet
EndChar

StartChar: greater
Encoding: 62 62 62
Width: 251
VWidth: 94
Flags: W
LayerCount: 2
Fore
SplineSet
190.087890625 5.9833984375 m 4
 184.576171875 0.4423828125 176 0.4423828125 171.1015625 5.9833984375 c 6
 3.8984375 173.489257812 l 6
 -1.61328125 179.032226562 -1.61328125 187.653320312 3.8984375 192.581054688 c 4
 9.41015625 198.122070312 17.986328125 198.122070312 22.884765625 192.581054688 c 6
 190.087890625 25.0751953125 l 6
 194.986328125 20.1474609375 194.986328125 11.5263671875 190.087890625 5.9833984375 c 4
190.087890625 192.581054688 m 4
 195.599609375 187.038085938 195.599609375 178.416992188 190.087890625 173.489257812 c 6
 22.884765625 5.9833984375 l 6
 17.373046875 0.4423828125 8.798828125 0.4423828125 3.8984375 5.9833984375 c 4
 -1.61328125 11.5263671875 -1.61328125 20.1474609375 3.8984375 25.0751953125 c 6
 170.48828125 192.581054688 l 6
 176 198.122070312 184.576171875 198.122070312 190.087890625 192.581054688 c 4
EndSplineSet
EndChar

StartChar: question
Encoding: 63 63 63
Width: 251
VWidth: 94
Flags: W
LayerCount: 2
Fore
SplineSet
190.087890625 5.9833984375 m 4
 184.576171875 0.4423828125 176 0.4423828125 171.1015625 5.9833984375 c 6
 3.8984375 173.489257812 l 6
 -1.61328125 179.032226562 -1.61328125 187.653320312 3.8984375 192.581054688 c 4
 9.41015625 198.122070312 17.986328125 198.122070312 22.884765625 192.581054688 c 6
 190.087890625 25.0751953125 l 6
 194.986328125 20.1474609375 194.986328125 11.5263671875 190.087890625 5.9833984375 c 4
190.087890625 192.581054688 m 4
 195.599609375 187.038085938 195.599609375 178.416992188 190.087890625 173.489257812 c 6
 22.884765625 5.9833984375 l 6
 17.373046875 0.4423828125 8.798828125 0.4423828125 3.8984375 5.9833984375 c 4
 -1.61328125 11.5263671875 -1.61328125 20.1474609375 3.8984375 25.0751953125 c 6
 170.48828125 192.581054688 l 6
 176 198.122070312 184.576171875 198.122070312 190.087890625 192.581054688 c 4
EndSplineSet
EndChar

StartChar: at
Encoding: 64 64 64
Width: 251
VWidth: 94
Flags: W
LayerCount: 2
Fore
SplineSet
190.087890625 5.9833984375 m 4
 184.576171875 0.4423828125 176 0.4423828125 171.1015625 5.9833984375 c 6
 3.8984375 173.489257812 l 6
 -1.61328125 179.032226562 -1.61328125 187.653320312 3.8984375 192.581054688 c 4
 9.41015625 198.122070312 17.986328125 198.122070312 22.884765625 192.581054688 c 6
 190.087890625 25.0751953125 l 6
 194.986328125 20.1474609375 194.986328125 11.5263671875 190.087890625 5.9833984375 c 4
190.087890625 192.581054688 m 4
 195.599609375 187.038085938 195.599609375 178.416992188 190.087890625 173.489257812 c 6
 22.884765625 5.9833984375 l 6
 17.373046875 0.4423828125 8.798828125 0.4423828125 3.8984375 5.9833984375 c 4
 -1.61328125 11.5263671875 -1.61328125 20.1474609375 3.8984375 25.0751953125 c 6
 170.48828125 192.581054688 l 6
 176 198.122070312 184.576171875 198.122070312 190.087890625 192.581054688 c 4
EndSplineSet
EndChar

StartChar: A
Encoding: 65 65 65
Width: 251
VWidth: 94
Flags: W
LayerCount: 2
Fore
SplineSet
190.087890625 5.9833984375 m 4
 184.576171875 0.4423828125 176 0.4423828125 171.1015625 5.9833984375 c 6
 3.8984375 173.489257812 l 6
 -1.61328125 179.032226562 -1.61328125 187.653320312 3.8984375 192.581054688 c 4
 9.41015625 198.122070312 17.986328125 198.122070312 22.884765625 192.581054688 c 6
 190.087890625 25.0751953125 l 6
 194.986328125 20.1474609375 194.986328125 11.5263671875 190.087890625 5.9833984375 c 4
190.087890625 192.581054688 m 4
 195.599609375 187.038085938 195.599609375 178.416992188 190.087890625 173.489257812 c 6
 22.884765625 5.9833984375 l 6
 17.373046875 0.4423828125 8.798828125 0.4423828125 3.8984375 5.9833984375 c 4
 -1.61328125 11.5263671875 -1.61328125 20.1474609375 3.8984375 25.0751953125 c 6
 170.48828125 192.581054688 l 6
 176 198.122070312 184.576171875 198.122070312 190.087890625 192.581054688 c 4
EndSplineSet
EndChar

StartChar: B
Encoding: 66 66 66
Width: 251
VWidth: 94
Flags: W
LayerCount: 2
Fore
SplineSet
190.087890625 5.9833984375 m 4
 184.576171875 0.4423828125 176 0.4423828125 171.1015625 5.9833984375 c 6
 3.8984375 173.489257812 l 6
 -1.61328125 179.032226562 -1.61328125 187.653320312 3.8984375 192.581054688 c 4
 9.41015625 198.122070312 17.986328125 198.122070312 22.884765625 192.581054688 c 6
 190.087890625 25.0751953125 l 6
 194.986328125 20.1474609375 194.986328125 11.5263671875 190.087890625 5.9833984375 c 4
190.087890625 192.581054688 m 4
 195.599609375 187.038085938 195.599609375 178.416992188 190.087890625 173.489257812 c 6
 22.884765625 5.9833984375 l 6
 17.373046875 0.4423828125 8.798828125 0.4423828125 3.8984375 5.9833984375 c 4
 -1.61328125 11.5263671875 -1.61328125 20.1474609375 3.8984375 25.0751953125 c 6
 170.48828125 192.581054688 l 6
 176 198.122070312 184.576171875 198.122070312 190.087890625 192.581054688 c 4
EndSplineSet
EndChar

StartChar: C
Encoding: 67 67 67
Width: 251
VWidth: 94
Flags: W
LayerCount: 2
Fore
SplineSet
190.087890625 5.9833984375 m 4
 184.576171875 0.4423828125 176 0.4423828125 171.1015625 5.9833984375 c 6
 3.8984375 173.489257812 l 6
 -1.61328125 179.032226562 -1.61328125 187.653320312 3.8984375 192.581054688 c 4
 9.41015625 198.122070312 17.986328125 198.122070312 22.884765625 192.581054688 c 6
 190.087890625 25.0751953125 l 6
 194.986328125 20.1474609375 194.986328125 11.5263671875 190.087890625 5.9833984375 c 4
190.087890625 192.581054688 m 4
 195.599609375 187.038085938 195.599609375 178.416992188 190.087890625 173.489257812 c 6
 22.884765625 5.9833984375 l 6
 17.373046875 0.4423828125 8.798828125 0.4423828125 3.8984375 5.9833984375 c 4
 -1.61328125 11.5263671875 -1.61328125 20.1474609375 3.8984375 25.0751953125 c 6
 170.48828125 192.581054688 l 6
 176 198.122070312 184.576171875 198.122070312 190.087890625 192.581054688 c 4
EndSplineSet
EndChar

StartChar: D
Encoding: 68 68 68
Width: 251
VWidth: 94
Flags: W
LayerCount: 2
Fore
SplineSet
190.087890625 5.9833984375 m 4
 184.576171875 0.4423828125 176 0.4423828125 171.1015625 5.9833984375 c 6
 3.8984375 173.489257812 l 6
 -1.61328125 179.032226562 -1.61328125 187.653320312 3.8984375 192.581054688 c 4
 9.41015625 198.122070312 17.986328125 198.122070312 22.884765625 192.581054688 c 6
 190.087890625 25.0751953125 l 6
 194.986328125 20.1474609375 194.986328125 11.5263671875 190.087890625 5.9833984375 c 4
190.087890625 192.581054688 m 4
 195.599609375 187.038085938 195.599609375 178.416992188 190.087890625 173.489257812 c 6
 22.884765625 5.9833984375 l 6
 17.373046875 0.4423828125 8.798828125 0.4423828125 3.8984375 5.9833984375 c 4
 -1.61328125 11.5263671875 -1.61328125 20.1474609375 3.8984375 25.0751953125 c 6
 170.48828125 192.581054688 l 6
 176 198.122070312 184.576171875 198.122070312 190.087890625 192.581054688 c 4
EndSplineSet
EndChar

StartChar: E
Encoding: 69 69 69
Width: 251
VWidth: 94
Flags: W
LayerCount: 2
Fore
SplineSet
190.087890625 5.9833984375 m 4
 184.576171875 0.4423828125 176 0.4423828125 171.1015625 5.9833984375 c 6
 3.8984375 173.489257812 l 6
 -1.61328125 179.032226562 -1.61328125 187.653320312 3.8984375 192.581054688 c 4
 9.41015625 198.122070312 17.986328125 198.122070312 22.884765625 192.581054688 c 6
 190.087890625 25.0751953125 l 6
 194.986328125 20.1474609375 194.986328125 11.5263671875 190.087890625 5.9833984375 c 4
190.087890625 192.581054688 m 4
 195.599609375 187.038085938 195.599609375 178.416992188 190.087890625 173.489257812 c 6
 22.884765625 5.9833984375 l 6
 17.373046875 0.4423828125 8.798828125 0.4423828125 3.8984375 5.9833984375 c 4
 -1.61328125 11.5263671875 -1.61328125 20.1474609375 3.8984375 25.0751953125 c 6
 170.48828125 192.581054688 l 6
 176 198.122070312 184.576171875 198.122070312 190.087890625 192.581054688 c 4
EndSplineSet
EndChar

StartChar: F
Encoding: 70 70 70
Width: 251
VWidth: 94
Flags: W
LayerCount: 2
Fore
SplineSet
190.087890625 5.9833984375 m 4
 184.576171875 0.4423828125 176 0.4423828125 171.1015625 5.9833984375 c 6
 3.8984375 173.489257812 l 6
 -1.61328125 179.032226562 -1.61328125 187.653320312 3.8984375 192.581054688 c 4
 9.41015625 198.122070312 17.986328125 198.122070312 22.884765625 192.581054688 c 6
 190.087890625 25.0751953125 l 6
 194.986328125 20.1474609375 194.986328125 11.5263671875 190.087890625 5.9833984375 c 4
190.087890625 192.581054688 m 4
 195.599609375 187.038085938 195.599609375 178.416992188 190.087890625 173.489257812 c 6
 22.884765625 5.9833984375 l 6
 17.373046875 0.4423828125 8.798828125 0.4423828125 3.8984375 5.9833984375 c 4
 -1.61328125 11.5263671875 -1.61328125 20.1474609375 3.8984375 25.0751953125 c 6
 170.48828125 192.581054688 l 6
 176 198.122070312 184.576171875 198.122070312 190.087890625 192.581054688 c 4
EndSplineSet
EndChar

StartChar: G
Encoding: 71 71 71
Width: 251
VWidth: 94
Flags: W
LayerCount: 2
Fore
SplineSet
190.087890625 5.9833984375 m 4
 184.576171875 0.4423828125 176 0.4423828125 171.1015625 5.9833984375 c 6
 3.8984375 173.489257812 l 6
 -1.61328125 179.032226562 -1.61328125 187.653320312 3.8984375 192.581054688 c 4
 9.41015625 198.122070312 17.986328125 198.122070312 22.884765625 192.581054688 c 6
 190.087890625 25.0751953125 l 6
 194.986328125 20.1474609375 194.986328125 11.5263671875 190.087890625 5.9833984375 c 4
190.087890625 192.581054688 m 4
 195.599609375 187.038085938 195.599609375 178.416992188 190.087890625 173.489257812 c 6
 22.884765625 5.9833984375 l 6
 17.373046875 0.4423828125 8.798828125 0.4423828125 3.8984375 5.9833984375 c 4
 -1.61328125 11.5263671875 -1.61328125 20.1474609375 3.8984375 25.0751953125 c 6
 170.48828125 192.581054688 l 6
 176 198.122070312 184.576171875 198.122070312 190.087890625 192.581054688 c 4
EndSplineSet
EndChar

StartChar: H
Encoding: 72 72 72
Width: 251
VWidth: 94
Flags: W
LayerCount: 2
Fore
SplineSet
190.087890625 5.9833984375 m 4
 184.576171875 0.4423828125 176 0.4423828125 171.1015625 5.9833984375 c 6
 3.8984375 173.489257812 l 6
 -1.61328125 179.032226562 -1.61328125 187.653320312 3.8984375 192.581054688 c 4
 9.41015625 198.122070312 17.986328125 198.122070312 22.884765625 192.581054688 c 6
 190.087890625 25.0751953125 l 6
 194.986328125 20.1474609375 194.986328125 11.5263671875 190.087890625 5.9833984375 c 4
190.087890625 192.581054688 m 4
 195.599609375 187.038085938 195.599609375 178.416992188 190.087890625 173.489257812 c 6
 22.884765625 5.9833984375 l 6
 17.373046875 0.4423828125 8.798828125 0.4423828125 3.8984375 5.9833984375 c 4
 -1.61328125 11.5263671875 -1.61328125 20.1474609375 3.8984375 25.0751953125 c 6
 170.48828125 192.581054688 l 6
 176 198.122070312 184.576171875 198.122070312 190.087890625 192.581054688 c 4
EndSplineSet
EndChar

StartChar: I
Encoding: 73 73 73
Width: 251
VWidth: 94
Flags: W
LayerCount: 2
Fore
SplineSet
190.087890625 5.9833984375 m 4
 184.576171875 0.4423828125 176 0.4423828125 171.1015625 5.9833984375 c 6
 3.8984375 173.489257812 l 6
 -1.61328125 179.032226562 -1.61328125 187.653320312 3.8984375 192.581054688 c 4
 9.41015625 198.122070312 17.986328125 198.122070312 22.884765625 192.581054688 c 6
 190.087890625 25.0751953125 l 6
 194.986328125 20.1474609375 194.986328125 11.5263671875 190.087890625 5.9833984375 c 4
190.087890625 192.581054688 m 4
 195.599609375 187.038085938 195.599609375 178.416992188 190.087890625 173.489257812 c 6
 22.884765625 5.9833984375 l 6
 17.373046875 0.4423828125 8.798828125 0.4423828125 3.8984375 5.9833984375 c 4
 -1.61328125 11.5263671875 -1.61328125 20.1474609375 3.8984375 25.0751953125 c 6
 170.48828125 192.581054688 l 6
 176 198.122070312 184.576171875 198.122070312 190.087890625 192.581054688 c 4
EndSplineSet
EndChar

StartChar: J
Encoding: 74 74 74
Width: 251
VWidth: 94
Flags: W
LayerCount: 2
Fore
SplineSet
190.087890625 5.9833984375 m 4
 184.576171875 0.4423828125 176 0.4423828125 171.1015625 5.9833984375 c 6
 3.8984375 173.489257812 l 6
 -1.61328125 179.032226562 -1.61328125 187.653320312 3.8984375 192.581054688 c 4
 9.41015625 198.122070312 17.986328125 198.122070312 22.884765625 192.581054688 c 6
 190.087890625 25.0751953125 l 6
 194.986328125 20.1474609375 194.986328125 11.5263671875 190.087890625 5.9833984375 c 4
190.087890625 192.581054688 m 4
 195.599609375 187.038085938 195.599609375 178.416992188 190.087890625 173.489257812 c 6
 22.884765625 5.9833984375 l 6
 17.373046875 0.4423828125 8.798828125 0.4423828125 3.8984375 5.9833984375 c 4
 -1.61328125 11.5263671875 -1.61328125 20.1474609375 3.8984375 25.0751953125 c 6
 170.48828125 192.581054688 l 6
 176 198.122070312 184.576171875 198.122070312 190.087890625 192.581054688 c 4
EndSplineSet
EndChar

StartChar: K
Encoding: 75 75 75
Width: 251
VWidth: 94
Flags: W
LayerCount: 2
Fore
SplineSet
190.087890625 5.9833984375 m 4
 184.576171875 0.4423828125 176 0.4423828125 171.1015625 5.9833984375 c 6
 3.8984375 173.489257812 l 6
 -1.61328125 179.032226562 -1.61328125 187.653320312 3.8984375 192.581054688 c 4
 9.41015625 198.122070312 17.986328125 198.122070312 22.884765625 192.581054688 c 6
 190.087890625 25.0751953125 l 6
 194.986328125 20.1474609375 194.986328125 11.5263671875 190.087890625 5.9833984375 c 4
190.087890625 192.581054688 m 4
 195.599609375 187.038085938 195.599609375 178.416992188 190.087890625 173.489257812 c 6
 22.884765625 5.9833984375 l 6
 17.373046875 0.4423828125 8.798828125 0.4423828125 3.8984375 5.9833984375 c 4
 -1.61328125 11.5263671875 -1.61328125 20.1474609375 3.8984375 25.0751953125 c 6
 170.48828125 192.581054688 l 6
 176 198.122070312 184.576171875 198.122070312 190.087890625 192.581054688 c 4
EndSplineSet
EndChar

StartChar: L
Encoding: 76 76 76
Width: 251
VWidth: 94
Flags: W
LayerCount: 2
Fore
SplineSet
190.087890625 5.9833984375 m 4
 184.576171875 0.4423828125 176 0.4423828125 171.1015625 5.9833984375 c 6
 3.8984375 173.489257812 l 6
 -1.61328125 179.032226562 -1.61328125 187.653320312 3.8984375 192.581054688 c 4
 9.41015625 198.122070312 17.986328125 198.122070312 22.884765625 192.581054688 c 6
 190.087890625 25.0751953125 l 6
 194.986328125 20.1474609375 194.986328125 11.5263671875 190.087890625 5.9833984375 c 4
190.087890625 192.581054688 m 4
 195.599609375 187.038085938 195.599609375 178.416992188 190.087890625 173.489257812 c 6
 22.884765625 5.9833984375 l 6
 17.373046875 0.4423828125 8.798828125 0.4423828125 3.8984375 5.9833984375 c 4
 -1.61328125 11.5263671875 -1.61328125 20.1474609375 3.8984375 25.0751953125 c 6
 170.48828125 192.581054688 l 6
 176 198.122070312 184.576171875 198.122070312 190.087890625 192.581054688 c 4
EndSplineSet
EndChar

StartChar: M
Encoding: 77 77 77
Width: 251
VWidth: 94
Flags: W
LayerCount: 2
Fore
SplineSet
190.087890625 5.9833984375 m 4
 184.576171875 0.4423828125 176 0.4423828125 171.1015625 5.9833984375 c 6
 3.8984375 173.489257812 l 6
 -1.61328125 179.032226562 -1.61328125 187.653320312 3.8984375 192.581054688 c 4
 9.41015625 198.122070312 17.986328125 198.122070312 22.884765625 192.581054688 c 6
 190.087890625 25.0751953125 l 6
 194.986328125 20.1474609375 194.986328125 11.5263671875 190.087890625 5.9833984375 c 4
190.087890625 192.581054688 m 4
 195.599609375 187.038085938 195.599609375 178.416992188 190.087890625 173.489257812 c 6
 22.884765625 5.9833984375 l 6
 17.373046875 0.4423828125 8.798828125 0.4423828125 3.8984375 5.9833984375 c 4
 -1.61328125 11.5263671875 -1.61328125 20.1474609375 3.8984375 25.0751953125 c 6
 170.48828125 192.581054688 l 6
 176 198.122070312 184.576171875 198.122070312 190.087890625 192.581054688 c 4
EndSplineSet
EndChar

StartChar: N
Encoding: 78 78 78
Width: 251
VWidth: 94
Flags: W
LayerCount: 2
Fore
SplineSet
190.087890625 5.9833984375 m 4
 184.576171875 0.4423828125 176 0.4423828125 171.1015625 5.9833984375 c 6
 3.8984375 173.489257812 l 6
 -1.61328125 179.032226562 -1.61328125 187.653320312 3.8984375 192.581054688 c 4
 9.41015625 198.122070312 17.986328125 198.122070312 22.884765625 192.581054688 c 6
 190.087890625 25.0751953125 l 6
 194.986328125 20.1474609375 194.986328125 11.5263671875 190.087890625 5.9833984375 c 4
190.087890625 192.581054688 m 4
 195.599609375 187.038085938 195.599609375 178.416992188 190.087890625 173.489257812 c 6
 22.884765625 5.9833984375 l 6
 17.373046875 0.4423828125 8.798828125 0.4423828125 3.8984375 5.9833984375 c 4
 -1.61328125 11.5263671875 -1.61328125 20.1474609375 3.8984375 25.0751953125 c 6
 170.48828125 192.581054688 l 6
 176 198.122070312 184.576171875 198.122070312 190.087890625 192.581054688 c 4
EndSplineSet
EndChar

StartChar: O
Encoding: 79 79 79
Width: 251
VWidth: 94
Flags: W
LayerCount: 2
Fore
SplineSet
190.087890625 5.9833984375 m 4
 184.576171875 0.4423828125 176 0.4423828125 171.1015625 5.9833984375 c 6
 3.8984375 173.489257812 l 6
 -1.61328125 179.032226562 -1.61328125 187.653320312 3.8984375 192.581054688 c 4
 9.41015625 198.122070312 17.986328125 198.122070312 22.884765625 192.581054688 c 6
 190.087890625 25.0751953125 l 6
 194.986328125 20.1474609375 194.986328125 11.5263671875 190.087890625 5.9833984375 c 4
190.087890625 192.581054688 m 4
 195.599609375 187.038085938 195.599609375 178.416992188 190.087890625 173.489257812 c 6
 22.884765625 5.9833984375 l 6
 17.373046875 0.4423828125 8.798828125 0.4423828125 3.8984375 5.9833984375 c 4
 -1.61328125 11.5263671875 -1.61328125 20.1474609375 3.8984375 25.0751953125 c 6
 170.48828125 192.581054688 l 6
 176 198.122070312 184.576171875 198.122070312 190.087890625 192.581054688 c 4
EndSplineSet
EndChar

StartChar: P
Encoding: 80 80 80
Width: 251
VWidth: 94
Flags: W
LayerCount: 2
Fore
SplineSet
190.087890625 5.9833984375 m 4
 184.576171875 0.4423828125 176 0.4423828125 171.1015625 5.9833984375 c 6
 3.8984375 173.489257812 l 6
 -1.61328125 179.032226562 -1.61328125 187.653320312 3.8984375 192.581054688 c 4
 9.41015625 198.122070312 17.986328125 198.122070312 22.884765625 192.581054688 c 6
 190.087890625 25.0751953125 l 6
 194.986328125 20.1474609375 194.986328125 11.5263671875 190.087890625 5.9833984375 c 4
190.087890625 192.581054688 m 4
 195.599609375 187.038085938 195.599609375 178.416992188 190.087890625 173.489257812 c 6
 22.884765625 5.9833984375 l 6
 17.373046875 0.4423828125 8.798828125 0.4423828125 3.8984375 5.9833984375 c 4
 -1.61328125 11.5263671875 -1.61328125 20.1474609375 3.8984375 25.0751953125 c 6
 170.48828125 192.581054688 l 6
 176 198.122070312 184.576171875 198.122070312 190.087890625 192.581054688 c 4
EndSplineSet
EndChar

StartChar: Q
Encoding: 81 81 81
Width: 251
VWidth: 94
Flags: W
LayerCount: 2
Fore
SplineSet
190.087890625 5.9833984375 m 4
 184.576171875 0.4423828125 176 0.4423828125 171.1015625 5.9833984375 c 6
 3.8984375 173.489257812 l 6
 -1.61328125 179.032226562 -1.61328125 187.653320312 3.8984375 192.581054688 c 4
 9.41015625 198.122070312 17.986328125 198.122070312 22.884765625 192.581054688 c 6
 190.087890625 25.0751953125 l 6
 194.986328125 20.1474609375 194.986328125 11.5263671875 190.087890625 5.9833984375 c 4
190.087890625 192.581054688 m 4
 195.599609375 187.038085938 195.599609375 178.416992188 190.087890625 173.489257812 c 6
 22.884765625 5.9833984375 l 6
 17.373046875 0.4423828125 8.798828125 0.4423828125 3.8984375 5.9833984375 c 4
 -1.61328125 11.5263671875 -1.61328125 20.1474609375 3.8984375 25.0751953125 c 6
 170.48828125 192.581054688 l 6
 176 198.122070312 184.576171875 198.122070312 190.087890625 192.581054688 c 4
EndSplineSet
EndChar

StartChar: R
Encoding: 82 82 82
Width: 251
VWidth: 94
Flags: W
LayerCount: 2
Fore
SplineSet
190.087890625 5.9833984375 m 4
 184.576171875 0.4423828125 176 0.4423828125 171.1015625 5.9833984375 c 6
 3.8984375 173.489257812 l 6
 -1.61328125 179.032226562 -1.61328125 187.653320312 3.8984375 192.581054688 c 4
 9.41015625 198.122070312 17.986328125 198.122070312 22.884765625 192.581054688 c 6
 190.087890625 25.0751953125 l 6
 194.986328125 20.1474609375 194.986328125 11.5263671875 190.087890625 5.9833984375 c 4
190.087890625 192.581054688 m 4
 195.599609375 187.038085938 195.599609375 178.416992188 190.087890625 173.489257812 c 6
 22.884765625 5.9833984375 l 6
 17.373046875 0.4423828125 8.798828125 0.4423828125 3.8984375 5.9833984375 c 4
 -1.61328125 11.5263671875 -1.61328125 20.1474609375 3.8984375 25.0751953125 c 6
 170.48828125 192.581054688 l 6
 176 198.122070312 184.576171875 198.122070312 190.087890625 192.581054688 c 4
EndSplineSet
EndChar

StartChar: S
Encoding: 83 83 83
Width: 251
VWidth: 94
Flags: W
LayerCount: 2
Fore
SplineSet
190.087890625 5.9833984375 m 4
 184.576171875 0.4423828125 176 0.4423828125 171.1015625 5.9833984375 c 6
 3.8984375 173.489257812 l 6
 -1.61328125 179.032226562 -1.61328125 187.653320312 3.8984375 192.581054688 c 4
 9.41015625 198.122070312 17.986328125 198.122070312 22.884765625 192.581054688 c 6
 190.087890625 25.0751953125 l 6
 194.986328125 20.1474609375 194.986328125 11.5263671875 190.087890625 5.9833984375 c 4
190.087890625 192.581054688 m 4
 195.599609375 187.038085938 195.599609375 178.416992188 190.087890625 173.489257812 c 6
 22.884765625 5.9833984375 l 6
 17.373046875 0.4423828125 8.798828125 0.4423828125 3.8984375 5.9833984375 c 4
 -1.61328125 11.5263671875 -1.61328125 20.1474609375 3.8984375 25.0751953125 c 6
 170.48828125 192.581054688 l 6
 176 198.122070312 184.576171875 198.122070312 190.087890625 192.581054688 c 4
EndSplineSet
EndChar

StartChar: T
Encoding: 84 84 84
Width: 251
VWidth: 94
Flags: W
LayerCount: 2
Fore
SplineSet
190.087890625 5.9833984375 m 4
 184.576171875 0.4423828125 176 0.4423828125 171.1015625 5.9833984375 c 6
 3.8984375 173.489257812 l 6
 -1.61328125 179.032226562 -1.61328125 187.653320312 3.8984375 192.581054688 c 4
 9.41015625 198.122070312 17.986328125 198.122070312 22.884765625 192.581054688 c 6
 190.087890625 25.0751953125 l 6
 194.986328125 20.1474609375 194.986328125 11.5263671875 190.087890625 5.9833984375 c 4
190.087890625 192.581054688 m 4
 195.599609375 187.038085938 195.599609375 178.416992188 190.087890625 173.489257812 c 6
 22.884765625 5.9833984375 l 6
 17.373046875 0.4423828125 8.798828125 0.4423828125 3.8984375 5.9833984375 c 4
 -1.61328125 11.5263671875 -1.61328125 20.1474609375 3.8984375 25.0751953125 c 6
 170.48828125 192.581054688 l 6
 176 198.122070312 184.576171875 198.122070312 190.087890625 192.581054688 c 4
EndSplineSet
EndChar

StartChar: U
Encoding: 85 85 85
Width: 251
VWidth: 94
Flags: W
LayerCount: 2
Fore
SplineSet
190.087890625 5.9833984375 m 4
 184.576171875 0.4423828125 176 0.4423828125 171.1015625 5.9833984375 c 6
 3.8984375 173.489257812 l 6
 -1.61328125 179.032226562 -1.61328125 187.653320312 3.8984375 192.581054688 c 4
 9.41015625 198.122070312 17.986328125 198.122070312 22.884765625 192.581054688 c 6
 190.087890625 25.0751953125 l 6
 194.986328125 20.1474609375 194.986328125 11.5263671875 190.087890625 5.9833984375 c 4
190.087890625 192.581054688 m 4
 195.599609375 187.038085938 195.599609375 178.416992188 190.087890625 173.489257812 c 6
 22.884765625 5.9833984375 l 6
 17.373046875 0.4423828125 8.798828125 0.4423828125 3.8984375 5.9833984375 c 4
 -1.61328125 11.5263671875 -1.61328125 20.1474609375 3.8984375 25.0751953125 c 6
 170.48828125 192.581054688 l 6
 176 198.122070312 184.576171875 198.122070312 190.087890625 192.581054688 c 4
EndSplineSet
EndChar

StartChar: V
Encoding: 86 86 86
Width: 251
VWidth: 94
Flags: W
LayerCount: 2
Fore
SplineSet
190.087890625 5.9833984375 m 4
 184.576171875 0.4423828125 176 0.4423828125 171.1015625 5.9833984375 c 6
 3.8984375 173.489257812 l 6
 -1.61328125 179.032226562 -1.61328125 187.653320312 3.8984375 192.581054688 c 4
 9.41015625 198.122070312 17.986328125 198.122070312 22.884765625 192.581054688 c 6
 190.087890625 25.0751953125 l 6
 194.986328125 20.1474609375 194.986328125 11.5263671875 190.087890625 5.9833984375 c 4
190.087890625 192.581054688 m 4
 195.599609375 187.038085938 195.599609375 178.416992188 190.087890625 173.489257812 c 6
 22.884765625 5.9833984375 l 6
 17.373046875 0.4423828125 8.798828125 0.4423828125 3.8984375 5.9833984375 c 4
 -1.61328125 11.5263671875 -1.61328125 20.1474609375 3.8984375 25.0751953125 c 6
 170.48828125 192.581054688 l 6
 176 198.122070312 184.576171875 198.122070312 190.087890625 192.581054688 c 4
EndSplineSet
EndChar

StartChar: W
Encoding: 87 87 87
Width: 251
VWidth: 94
Flags: W
LayerCount: 2
Fore
SplineSet
190.087890625 5.9833984375 m 4
 184.576171875 0.4423828125 176 0.4423828125 171.1015625 5.9833984375 c 6
 3.8984375 173.489257812 l 6
 -1.61328125 179.032226562 -1.61328125 187.653320312 3.8984375 192.581054688 c 4
 9.41015625 198.122070312 17.986328125 198.122070312 22.884765625 192.581054688 c 6
 190.087890625 25.0751953125 l 6
 194.986328125 20.1474609375 194.986328125 11.5263671875 190.087890625 5.9833984375 c 4
190.087890625 192.581054688 m 4
 195.599609375 187.038085938 195.599609375 178.416992188 190.087890625 173.489257812 c 6
 22.884765625 5.9833984375 l 6
 17.373046875 0.4423828125 8.798828125 0.4423828125 3.8984375 5.9833984375 c 4
 -1.61328125 11.5263671875 -1.61328125 20.1474609375 3.8984375 25.0751953125 c 6
 170.48828125 192.581054688 l 6
 176 198.122070312 184.576171875 198.122070312 190.087890625 192.581054688 c 4
EndSplineSet
EndChar

StartChar: X
Encoding: 88 88 88
Width: 251
VWidth: 94
Flags: W
LayerCount: 2
Fore
SplineSet
190.087890625 5.9833984375 m 4
 184.576171875 0.4423828125 176 0.4423828125 171.1015625 5.9833984375 c 6
 3.8984375 173.489257812 l 6
 -1.61328125 179.032226562 -1.61328125 187.653320312 3.8984375 192.581054688 c 4
 9.41015625 198.122070312 17.986328125 198.122070312 22.884765625 192.581054688 c 6
 190.087890625 25.0751953125 l 6
 194.986328125 20.1474609375 194.986328125 11.5263671875 190.087890625 5.9833984375 c 4
190.087890625 192.581054688 m 4
 195.599609375 187.038085938 195.599609375 178.416992188 190.087890625 173.489257812 c 6
 22.884765625 5.9833984375 l 6
 17.373046875 0.4423828125 8.798828125 0.4423828125 3.8984375 5.9833984375 c 4
 -1.61328125 11.5263671875 -1.61328125 20.1474609375 3.8984375 25.0751953125 c 6
 170.48828125 192.581054688 l 6
 176 198.122070312 184.576171875 198.122070312 190.087890625 192.581054688 c 4
EndSplineSet
EndChar

StartChar: Y
Encoding: 89 89 89
Width: 251
VWidth: 94
Flags: W
LayerCount: 2
Fore
SplineSet
190.087890625 5.9833984375 m 4
 184.576171875 0.4423828125 176 0.4423828125 171.1015625 5.9833984375 c 6
 3.8984375 173.489257812 l 6
 -1.61328125 179.032226562 -1.61328125 187.653320312 3.8984375 192.581054688 c 4
 9.41015625 198.122070312 17.986328125 198.122070312 22.884765625 192.581054688 c 6
 190.087890625 25.0751953125 l 6
 194.986328125 20.1474609375 194.986328125 11.5263671875 190.087890625 5.9833984375 c 4
190.087890625 192.581054688 m 4
 195.599609375 187.038085938 195.599609375 178.416992188 190.087890625 173.489257812 c 6
 22.884765625 5.9833984375 l 6
 17.373046875 0.4423828125 8.798828125 0.4423828125 3.8984375 5.9833984375 c 4
 -1.61328125 11.5263671875 -1.61328125 20.1474609375 3.8984375 25.0751953125 c 6
 170.48828125 192.581054688 l 6
 176 198.122070312 184.576171875 198.122070312 190.087890625 192.581054688 c 4
EndSplineSet
EndChar

StartChar: Z
Encoding: 90 90 90
Width: 251
VWidth: 94
Flags: W
LayerCount: 2
Fore
SplineSet
190.087890625 5.9833984375 m 4
 184.576171875 0.4423828125 176 0.4423828125 171.1015625 5.9833984375 c 6
 3.8984375 173.489257812 l 6
 -1.61328125 179.032226562 -1.61328125 187.653320312 3.8984375 192.581054688 c 4
 9.41015625 198.122070312 17.986328125 198.122070312 22.884765625 192.581054688 c 6
 190.087890625 25.0751953125 l 6
 194.986328125 20.1474609375 194.986328125 11.5263671875 190.087890625 5.9833984375 c 4
190.087890625 192.581054688 m 4
 195.599609375 187.038085938 195.599609375 178.416992188 190.087890625 173.489257812 c 6
 22.884765625 5.9833984375 l 6
 17.373046875 0.4423828125 8.798828125 0.4423828125 3.8984375 5.9833984375 c 4
 -1.61328125 11.5263671875 -1.61328125 20.1474609375 3.8984375 25.0751953125 c 6
 170.48828125 192.581054688 l 6
 176 198.122070312 184.576171875 198.122070312 190.087890625 192.581054688 c 4
EndSplineSet
EndChar

StartChar: bracketleft
Encoding: 91 91 91
Width: 251
VWidth: 94
Flags: W
LayerCount: 2
Fore
SplineSet
190.087890625 5.9833984375 m 4
 184.576171875 0.4423828125 176 0.4423828125 171.1015625 5.9833984375 c 6
 3.8984375 173.489257812 l 6
 -1.61328125 179.032226562 -1.61328125 187.653320312 3.8984375 192.581054688 c 4
 9.41015625 198.122070312 17.986328125 198.122070312 22.884765625 192.581054688 c 6
 190.087890625 25.0751953125 l 6
 194.986328125 20.1474609375 194.986328125 11.5263671875 190.087890625 5.9833984375 c 4
190.087890625 192.581054688 m 4
 195.599609375 187.038085938 195.599609375 178.416992188 190.087890625 173.489257812 c 6
 22.884765625 5.9833984375 l 6
 17.373046875 0.4423828125 8.798828125 0.4423828125 3.8984375 5.9833984375 c 4
 -1.61328125 11.5263671875 -1.61328125 20.1474609375 3.8984375 25.0751953125 c 6
 170.48828125 192.581054688 l 6
 176 198.122070312 184.576171875 198.122070312 190.087890625 192.581054688 c 4
EndSplineSet
EndChar

StartChar: backslash
Encoding: 92 92 92
Width: 251
VWidth: 94
Flags: W
LayerCount: 2
Fore
SplineSet
190.087890625 5.9833984375 m 4
 184.576171875 0.4423828125 176 0.4423828125 171.1015625 5.9833984375 c 6
 3.8984375 173.489257812 l 6
 -1.61328125 179.032226562 -1.61328125 187.653320312 3.8984375 192.581054688 c 4
 9.41015625 198.122070312 17.986328125 198.122070312 22.884765625 192.581054688 c 6
 190.087890625 25.0751953125 l 6
 194.986328125 20.1474609375 194.986328125 11.5263671875 190.087890625 5.9833984375 c 4
190.087890625 192.581054688 m 4
 195.599609375 187.038085938 195.599609375 178.416992188 190.087890625 173.489257812 c 6
 22.884765625 5.9833984375 l 6
 17.373046875 0.4423828125 8.798828125 0.4423828125 3.8984375 5.9833984375 c 4
 -1.61328125 11.5263671875 -1.61328125 20.1474609375 3.8984375 25.0751953125 c 6
 170.48828125 192.581054688 l 6
 176 198.122070312 184.576171875 198.122070312 190.087890625 192.581054688 c 4
EndSplineSet
EndChar

StartChar: bracketright
Encoding: 93 93 93
Width: 251
VWidth: 94
Flags: W
LayerCount: 2
Fore
SplineSet
190.087890625 5.9833984375 m 4
 184.576171875 0.4423828125 176 0.4423828125 171.1015625 5.9833984375 c 6
 3.8984375 173.489257812 l 6
 -1.61328125 179.032226562 -1.61328125 187.653320312 3.8984375 192.581054688 c 4
 9.41015625 198.122070312 17.986328125 198.122070312 22.884765625 192.581054688 c 6
 190.087890625 25.0751953125 l 6
 194.986328125 20.1474609375 194.986328125 11.5263671875 190.087890625 5.9833984375 c 4
190.087890625 192.581054688 m 4
 195.599609375 187.038085938 195.599609375 178.416992188 190.087890625 173.489257812 c 6
 22.884765625 5.9833984375 l 6
 17.373046875 0.4423828125 8.798828125 0.4423828125 3.8984375 5.9833984375 c 4
 -1.61328125 11.5263671875 -1.61328125 20.1474609375 3.8984375 25.0751953125 c 6
 170.48828125 192.581054688 l 6
 176 198.122070312 184.576171875 198.122070312 190.087890625 192.581054688 c 4
EndSplineSet
EndChar

StartChar: asciicircum
Encoding: 94 94 94
Width: 251
VWidth: 94
Flags: W
LayerCount: 2
Fore
SplineSet
190.087890625 5.9833984375 m 4
 184.576171875 0.4423828125 176 0.4423828125 171.1015625 5.9833984375 c 6
 3.8984375 173.489257812 l 6
 -1.61328125 179.032226562 -1.61328125 187.653320312 3.8984375 192.581054688 c 4
 9.41015625 198.122070312 17.986328125 198.122070312 22.884765625 192.581054688 c 6
 190.087890625 25.0751953125 l 6
 194.986328125 20.1474609375 194.986328125 11.5263671875 190.087890625 5.9833984375 c 4
190.087890625 192.581054688 m 4
 195.599609375 187.038085938 195.599609375 178.416992188 190.087890625 173.489257812 c 6
 22.884765625 5.9833984375 l 6
 17.373046875 0.4423828125 8.798828125 0.4423828125 3.8984375 5.9833984375 c 4
 -1.61328125 11.5263671875 -1.61328125 20.1474609375 3.8984375 25.0751953125 c 6
 170.48828125 192.581054688 l 6
 176 198.122070312 184.576171875 198.122070312 190.087890625 192.581054688 c 4
EndSplineSet
EndChar

StartChar: underscore
Encoding: 95 95 95
Width: 251
VWidth: 94
Flags: W
LayerCount: 2
Fore
SplineSet
190.087890625 5.9833984375 m 4
 184.576171875 0.4423828125 176 0.4423828125 171.1015625 5.9833984375 c 6
 3.8984375 173.489257812 l 6
 -1.61328125 179.032226562 -1.61328125 187.653320312 3.8984375 192.581054688 c 4
 9.41015625 198.122070312 17.986328125 198.122070312 22.884765625 192.581054688 c 6
 190.087890625 25.0751953125 l 6
 194.986328125 20.1474609375 194.986328125 11.5263671875 190.087890625 5.9833984375 c 4
190.087890625 192.581054688 m 4
 195.599609375 187.038085938 195.599609375 178.416992188 190.087890625 173.489257812 c 6
 22.884765625 5.9833984375 l 6
 17.373046875 0.4423828125 8.798828125 0.4423828125 3.8984375 5.9833984375 c 4
 -1.61328125 11.5263671875 -1.61328125 20.1474609375 3.8984375 25.0751953125 c 6
 170.48828125 192.581054688 l 6
 176 198.122070312 184.576171875 198.122070312 190.087890625 192.581054688 c 4
EndSplineSet
EndChar

StartChar: grave
Encoding: 96 96 96
Width: 251
VWidth: 94
Flags: W
LayerCount: 2
Fore
SplineSet
190.087890625 5.9833984375 m 4
 184.576171875 0.4423828125 176 0.4423828125 171.1015625 5.9833984375 c 6
 3.8984375 173.489257812 l 6
 -1.61328125 179.032226562 -1.61328125 187.653320312 3.8984375 192.581054688 c 4
 9.41015625 198.122070312 17.986328125 198.122070312 22.884765625 192.581054688 c 6
 190.087890625 25.0751953125 l 6
 194.986328125 20.1474609375 194.986328125 11.5263671875 190.087890625 5.9833984375 c 4
190.087890625 192.581054688 m 4
 195.599609375 187.038085938 195.599609375 178.416992188 190.087890625 173.489257812 c 6
 22.884765625 5.9833984375 l 6
 17.373046875 0.4423828125 8.798828125 0.4423828125 3.8984375 5.9833984375 c 4
 -1.61328125 11.5263671875 -1.61328125 20.1474609375 3.8984375 25.0751953125 c 6
 170.48828125 192.581054688 l 6
 176 198.122070312 184.576171875 198.122070312 190.087890625 192.581054688 c 4
EndSplineSet
EndChar

StartChar: a
Encoding: 97 97 97
Width: 251
VWidth: 94
Flags: W
LayerCount: 2
Fore
SplineSet
190.087890625 5.9833984375 m 4
 184.576171875 0.4423828125 176 0.4423828125 171.1015625 5.9833984375 c 6
 3.8984375 173.489257812 l 6
 -1.61328125 179.032226562 -1.61328125 187.653320312 3.8984375 192.581054688 c 4
 9.41015625 198.122070312 17.986328125 198.122070312 22.884765625 192.581054688 c 6
 190.087890625 25.0751953125 l 6
 194.986328125 20.1474609375 194.986328125 11.5263671875 190.087890625 5.9833984375 c 4
190.087890625 192.581054688 m 4
 195.599609375 187.038085938 195.599609375 178.416992188 190.087890625 173.489257812 c 6
 22.884765625 5.9833984375 l 6
 17.373046875 0.4423828125 8.798828125 0.4423828125 3.8984375 5.9833984375 c 4
 -1.61328125 11.5263671875 -1.61328125 20.1474609375 3.8984375 25.0751953125 c 6
 170.48828125 192.581054688 l 6
 176 198.122070312 184.576171875 198.122070312 190.087890625 192.581054688 c 4
EndSplineSet
EndChar

StartChar: b
Encoding: 98 98 98
Width: 251
VWidth: 94
Flags: W
LayerCount: 2
Fore
SplineSet
190.087890625 5.9833984375 m 4
 184.576171875 0.4423828125 176 0.4423828125 171.1015625 5.9833984375 c 6
 3.8984375 173.489257812 l 6
 -1.61328125 179.032226562 -1.61328125 187.653320312 3.8984375 192.581054688 c 4
 9.41015625 198.122070312 17.986328125 198.122070312 22.884765625 192.581054688 c 6
 190.087890625 25.0751953125 l 6
 194.986328125 20.1474609375 194.986328125 11.5263671875 190.087890625 5.9833984375 c 4
190.087890625 192.581054688 m 4
 195.599609375 187.038085938 195.599609375 178.416992188 190.087890625 173.489257812 c 6
 22.884765625 5.9833984375 l 6
 17.373046875 0.4423828125 8.798828125 0.4423828125 3.8984375 5.9833984375 c 4
 -1.61328125 11.5263671875 -1.61328125 20.1474609375 3.8984375 25.0751953125 c 6
 170.48828125 192.581054688 l 6
 176 198.122070312 184.576171875 198.122070312 190.087890625 192.581054688 c 4
EndSplineSet
EndChar

StartChar: c
Encoding: 99 99 99
Width: 251
VWidth: 94
Flags: W
LayerCount: 2
Fore
SplineSet
190.087890625 5.9833984375 m 4
 184.576171875 0.4423828125 176 0.4423828125 171.1015625 5.9833984375 c 6
 3.8984375 173.489257812 l 6
 -1.61328125 179.032226562 -1.61328125 187.653320312 3.8984375 192.581054688 c 4
 9.41015625 198.122070312 17.986328125 198.122070312 22.884765625 192.581054688 c 6
 190.087890625 25.0751953125 l 6
 194.986328125 20.1474609375 194.986328125 11.5263671875 190.087890625 5.9833984375 c 4
190.087890625 192.581054688 m 4
 195.599609375 187.038085938 195.599609375 178.416992188 190.087890625 173.489257812 c 6
 22.884765625 5.9833984375 l 6
 17.373046875 0.4423828125 8.798828125 0.4423828125 3.8984375 5.9833984375 c 4
 -1.61328125 11.5263671875 -1.61328125 20.1474609375 3.8984375 25.0751953125 c 6
 170.48828125 192.581054688 l 6
 176 198.122070312 184.576171875 198.122070312 190.087890625 192.581054688 c 4
EndSplineSet
EndChar

StartChar: d
Encoding: 100 100 100
Width: 251
VWidth: 94
Flags: W
LayerCount: 2
Fore
SplineSet
190.087890625 5.9833984375 m 4
 184.576171875 0.4423828125 176 0.4423828125 171.1015625 5.9833984375 c 6
 3.8984375 173.489257812 l 6
 -1.61328125 179.032226562 -1.61328125 187.653320312 3.8984375 192.581054688 c 4
 9.41015625 198.122070312 17.986328125 198.122070312 22.884765625 192.581054688 c 6
 190.087890625 25.0751953125 l 6
 194.986328125 20.1474609375 194.986328125 11.5263671875 190.087890625 5.9833984375 c 4
190.087890625 192.581054688 m 4
 195.599609375 187.038085938 195.599609375 178.416992188 190.087890625 173.489257812 c 6
 22.884765625 5.9833984375 l 6
 17.373046875 0.4423828125 8.798828125 0.4423828125 3.8984375 5.9833984375 c 4
 -1.61328125 11.5263671875 -1.61328125 20.1474609375 3.8984375 25.0751953125 c 6
 170.48828125 192.581054688 l 6
 176 198.122070312 184.576171875 198.122070312 190.087890625 192.581054688 c 4
EndSplineSet
EndChar

StartChar: e
Encoding: 101 101 101
Width: 251
VWidth: 94
Flags: W
LayerCount: 2
Fore
SplineSet
190.087890625 5.9833984375 m 4
 184.576171875 0.4423828125 176 0.4423828125 171.1015625 5.9833984375 c 6
 3.8984375 173.489257812 l 6
 -1.61328125 179.032226562 -1.61328125 187.653320312 3.8984375 192.581054688 c 4
 9.41015625 198.122070312 17.986328125 198.122070312 22.884765625 192.581054688 c 6
 190.087890625 25.0751953125 l 6
 194.986328125 20.1474609375 194.986328125 11.5263671875 190.087890625 5.9833984375 c 4
190.087890625 192.581054688 m 4
 195.599609375 187.038085938 195.599609375 178.416992188 190.087890625 173.489257812 c 6
 22.884765625 5.9833984375 l 6
 17.373046875 0.4423828125 8.798828125 0.4423828125 3.8984375 5.9833984375 c 4
 -1.61328125 11.5263671875 -1.61328125 20.1474609375 3.8984375 25.0751953125 c 6
 170.48828125 192.581054688 l 6
 176 198.122070312 184.576171875 198.122070312 190.087890625 192.581054688 c 4
EndSplineSet
EndChar

StartChar: f
Encoding: 102 102 102
Width: 251
VWidth: 94
Flags: W
LayerCount: 2
Fore
SplineSet
190.087890625 5.9833984375 m 4
 184.576171875 0.4423828125 176 0.4423828125 171.1015625 5.9833984375 c 6
 3.8984375 173.489257812 l 6
 -1.61328125 179.032226562 -1.61328125 187.653320312 3.8984375 192.581054688 c 4
 9.41015625 198.122070312 17.986328125 198.122070312 22.884765625 192.581054688 c 6
 190.087890625 25.0751953125 l 6
 194.986328125 20.1474609375 194.986328125 11.5263671875 190.087890625 5.9833984375 c 4
190.087890625 192.581054688 m 4
 195.599609375 187.038085938 195.599609375 178.416992188 190.087890625 173.489257812 c 6
 22.884765625 5.9833984375 l 6
 17.373046875 0.4423828125 8.798828125 0.4423828125 3.8984375 5.9833984375 c 4
 -1.61328125 11.5263671875 -1.61328125 20.1474609375 3.8984375 25.0751953125 c 6
 170.48828125 192.581054688 l 6
 176 198.122070312 184.576171875 198.122070312 190.087890625 192.581054688 c 4
EndSplineSet
EndChar

StartChar: g
Encoding: 103 103 103
Width: 251
VWidth: 94
Flags: W
LayerCount: 2
Fore
SplineSet
190.087890625 5.9833984375 m 4
 184.576171875 0.4423828125 176 0.4423828125 171.1015625 5.9833984375 c 6
 3.8984375 173.489257812 l 6
 -1.61328125 179.032226562 -1.61328125 187.653320312 3.8984375 192.581054688 c 4
 9.41015625 198.122070312 17.986328125 198.122070312 22.884765625 192.581054688 c 6
 190.087890625 25.0751953125 l 6
 194.986328125 20.1474609375 194.986328125 11.5263671875 190.087890625 5.9833984375 c 4
190.087890625 192.581054688 m 4
 195.599609375 187.038085938 195.599609375 178.416992188 190.087890625 173.489257812 c 6
 22.884765625 5.9833984375 l 6
 17.373046875 0.4423828125 8.798828125 0.4423828125 3.8984375 5.9833984375 c 4
 -1.61328125 11.5263671875 -1.61328125 20.1474609375 3.8984375 25.0751953125 c 6
 170.48828125 192.581054688 l 6
 176 198.122070312 184.576171875 198.122070312 190.087890625 192.581054688 c 4
EndSplineSet
EndChar

StartChar: h
Encoding: 104 104 104
Width: 251
VWidth: 94
Flags: W
LayerCount: 2
Fore
SplineSet
190.087890625 5.9833984375 m 4
 184.576171875 0.4423828125 176 0.4423828125 171.1015625 5.9833984375 c 6
 3.8984375 173.489257812 l 6
 -1.61328125 179.032226562 -1.61328125 187.653320312 3.8984375 192.581054688 c 4
 9.41015625 198.122070312 17.986328125 198.122070312 22.884765625 192.581054688 c 6
 190.087890625 25.0751953125 l 6
 194.986328125 20.1474609375 194.986328125 11.5263671875 190.087890625 5.9833984375 c 4
190.087890625 192.581054688 m 4
 195.599609375 187.038085938 195.599609375 178.416992188 190.087890625 173.489257812 c 6
 22.884765625 5.9833984375 l 6
 17.373046875 0.4423828125 8.798828125 0.4423828125 3.8984375 5.9833984375 c 4
 -1.61328125 11.5263671875 -1.61328125 20.1474609375 3.8984375 25.0751953125 c 6
 170.48828125 192.581054688 l 6
 176 198.122070312 184.576171875 198.122070312 190.087890625 192.581054688 c 4
EndSplineSet
EndChar

StartChar: i
Encoding: 105 105 105
Width: 251
VWidth: 94
Flags: W
LayerCount: 2
Fore
SplineSet
190.087890625 5.9833984375 m 4
 184.576171875 0.4423828125 176 0.4423828125 171.1015625 5.9833984375 c 6
 3.8984375 173.489257812 l 6
 -1.61328125 179.032226562 -1.61328125 187.653320312 3.8984375 192.581054688 c 4
 9.41015625 198.122070312 17.986328125 198.122070312 22.884765625 192.581054688 c 6
 190.087890625 25.0751953125 l 6
 194.986328125 20.1474609375 194.986328125 11.5263671875 190.087890625 5.9833984375 c 4
190.087890625 192.581054688 m 4
 195.599609375 187.038085938 195.599609375 178.416992188 190.087890625 173.489257812 c 6
 22.884765625 5.9833984375 l 6
 17.373046875 0.4423828125 8.798828125 0.4423828125 3.8984375 5.9833984375 c 4
 -1.61328125 11.5263671875 -1.61328125 20.1474609375 3.8984375 25.0751953125 c 6
 170.48828125 192.581054688 l 6
 176 198.122070312 184.576171875 198.122070312 190.087890625 192.581054688 c 4
EndSplineSet
EndChar

StartChar: j
Encoding: 106 106 106
Width: 251
VWidth: 94
Flags: W
LayerCount: 2
Fore
SplineSet
190.087890625 5.9833984375 m 4
 184.576171875 0.4423828125 176 0.4423828125 171.1015625 5.9833984375 c 6
 3.8984375 173.489257812 l 6
 -1.61328125 179.032226562 -1.61328125 187.653320312 3.8984375 192.581054688 c 4
 9.41015625 198.122070312 17.986328125 198.122070312 22.884765625 192.581054688 c 6
 190.087890625 25.0751953125 l 6
 194.986328125 20.1474609375 194.986328125 11.5263671875 190.087890625 5.9833984375 c 4
190.087890625 192.581054688 m 4
 195.599609375 187.038085938 195.599609375 178.416992188 190.087890625 173.489257812 c 6
 22.884765625 5.9833984375 l 6
 17.373046875 0.4423828125 8.798828125 0.4423828125 3.8984375 5.9833984375 c 4
 -1.61328125 11.5263671875 -1.61328125 20.1474609375 3.8984375 25.0751953125 c 6
 170.48828125 192.581054688 l 6
 176 198.122070312 184.576171875 198.122070312 190.087890625 192.581054688 c 4
EndSplineSet
EndChar

StartChar: k
Encoding: 107 107 107
Width: 251
VWidth: 94
Flags: W
LayerCount: 2
Fore
SplineSet
190.087890625 5.9833984375 m 4
 184.576171875 0.4423828125 176 0.4423828125 171.1015625 5.9833984375 c 6
 3.8984375 173.489257812 l 6
 -1.61328125 179.032226562 -1.61328125 187.653320312 3.8984375 192.581054688 c 4
 9.41015625 198.122070312 17.986328125 198.122070312 22.884765625 192.581054688 c 6
 190.087890625 25.0751953125 l 6
 194.986328125 20.1474609375 194.986328125 11.5263671875 190.087890625 5.9833984375 c 4
190.087890625 192.581054688 m 4
 195.599609375 187.038085938 195.599609375 178.416992188 190.087890625 173.489257812 c 6
 22.884765625 5.9833984375 l 6
 17.373046875 0.4423828125 8.798828125 0.4423828125 3.8984375 5.9833984375 c 4
 -1.61328125 11.5263671875 -1.61328125 20.1474609375 3.8984375 25.0751953125 c 6
 170.48828125 192.581054688 l 6
 176 198.122070312 184.576171875 198.122070312 190.087890625 192.581054688 c 4
EndSplineSet
EndChar

StartChar: l
Encoding: 108 108 108
Width: 251
VWidth: 94
Flags: W
LayerCount: 2
Fore
SplineSet
190.087890625 5.9833984375 m 4
 184.576171875 0.4423828125 176 0.4423828125 171.1015625 5.9833984375 c 6
 3.8984375 173.489257812 l 6
 -1.61328125 179.032226562 -1.61328125 187.653320312 3.8984375 192.581054688 c 4
 9.41015625 198.122070312 17.986328125 198.122070312 22.884765625 192.581054688 c 6
 190.087890625 25.0751953125 l 6
 194.986328125 20.1474609375 194.986328125 11.5263671875 190.087890625 5.9833984375 c 4
190.087890625 192.581054688 m 4
 195.599609375 187.038085938 195.599609375 178.416992188 190.087890625 173.489257812 c 6
 22.884765625 5.9833984375 l 6
 17.373046875 0.4423828125 8.798828125 0.4423828125 3.8984375 5.9833984375 c 4
 -1.61328125 11.5263671875 -1.61328125 20.1474609375 3.8984375 25.0751953125 c 6
 170.48828125 192.581054688 l 6
 176 198.122070312 184.576171875 198.122070312 190.087890625 192.581054688 c 4
EndSplineSet
EndChar

StartChar: m
Encoding: 109 109 109
Width: 251
VWidth: 94
Flags: W
LayerCount: 2
Fore
SplineSet
190.087890625 5.9833984375 m 4
 184.576171875 0.4423828125 176 0.4423828125 171.1015625 5.9833984375 c 6
 3.8984375 173.489257812 l 6
 -1.61328125 179.032226562 -1.61328125 187.653320312 3.8984375 192.581054688 c 4
 9.41015625 198.122070312 17.986328125 198.122070312 22.884765625 192.581054688 c 6
 190.087890625 25.0751953125 l 6
 194.986328125 20.1474609375 194.986328125 11.5263671875 190.087890625 5.9833984375 c 4
190.087890625 192.581054688 m 4
 195.599609375 187.038085938 195.599609375 178.416992188 190.087890625 173.489257812 c 6
 22.884765625 5.9833984375 l 6
 17.373046875 0.4423828125 8.798828125 0.4423828125 3.8984375 5.9833984375 c 4
 -1.61328125 11.5263671875 -1.61328125 20.1474609375 3.8984375 25.0751953125 c 6
 170.48828125 192.581054688 l 6
 176 198.122070312 184.576171875 198.122070312 190.087890625 192.581054688 c 4
EndSplineSet
EndChar

StartChar: n
Encoding: 110 110 110
Width: 251
VWidth: 94
Flags: W
LayerCount: 2
Fore
SplineSet
190.087890625 5.9833984375 m 4
 184.576171875 0.4423828125 176 0.4423828125 171.1015625 5.9833984375 c 6
 3.8984375 173.489257812 l 6
 -1.61328125 179.032226562 -1.61328125 187.653320312 3.8984375 192.581054688 c 4
 9.41015625 198.122070312 17.986328125 198.122070312 22.884765625 192.581054688 c 6
 190.087890625 25.0751953125 l 6
 194.986328125 20.1474609375 194.986328125 11.5263671875 190.087890625 5.9833984375 c 4
190.087890625 192.581054688 m 4
 195.599609375 187.038085938 195.599609375 178.416992188 190.087890625 173.489257812 c 6
 22.884765625 5.9833984375 l 6
 17.373046875 0.4423828125 8.798828125 0.4423828125 3.8984375 5.9833984375 c 4
 -1.61328125 11.5263671875 -1.61328125 20.1474609375 3.8984375 25.0751953125 c 6
 170.48828125 192.581054688 l 6
 176 198.122070312 184.576171875 198.122070312 190.087890625 192.581054688 c 4
EndSplineSet
EndChar

StartChar: o
Encoding: 111 111 111
Width: 251
VWidth: 94
Flags: W
LayerCount: 2
Fore
SplineSet
190.087890625 5.9833984375 m 4
 184.576171875 0.4423828125 176 0.4423828125 171.1015625 5.9833984375 c 6
 3.8984375 173.489257812 l 6
 -1.61328125 179.032226562 -1.61328125 187.653320312 3.8984375 192.581054688 c 4
 9.41015625 198.122070312 17.986328125 198.122070312 22.884765625 192.581054688 c 6
 190.087890625 25.0751953125 l 6
 194.986328125 20.1474609375 194.986328125 11.5263671875 190.087890625 5.9833984375 c 4
190.087890625 192.581054688 m 4
 195.599609375 187.038085938 195.599609375 178.416992188 190.087890625 173.489257812 c 6
 22.884765625 5.9833984375 l 6
 17.373046875 0.4423828125 8.798828125 0.4423828125 3.8984375 5.9833984375 c 4
 -1.61328125 11.5263671875 -1.61328125 20.1474609375 3.8984375 25.0751953125 c 6
 170.48828125 192.581054688 l 6
 176 198.122070312 184.576171875 198.122070312 190.087890625 192.581054688 c 4
EndSplineSet
EndChar

StartChar: p
Encoding: 112 112 112
Width: 251
VWidth: 94
Flags: W
LayerCount: 2
Fore
SplineSet
190.087890625 5.9833984375 m 4
 184.576171875 0.4423828125 176 0.4423828125 171.1015625 5.9833984375 c 6
 3.8984375 173.489257812 l 6
 -1.61328125 179.032226562 -1.61328125 187.653320312 3.8984375 192.581054688 c 4
 9.41015625 198.122070312 17.986328125 198.122070312 22.884765625 192.581054688 c 6
 190.087890625 25.0751953125 l 6
 194.986328125 20.1474609375 194.986328125 11.5263671875 190.087890625 5.9833984375 c 4
190.087890625 192.581054688 m 4
 195.599609375 187.038085938 195.599609375 178.416992188 190.087890625 173.489257812 c 6
 22.884765625 5.9833984375 l 6
 17.373046875 0.4423828125 8.798828125 0.4423828125 3.8984375 5.9833984375 c 4
 -1.61328125 11.5263671875 -1.61328125 20.1474609375 3.8984375 25.0751953125 c 6
 170.48828125 192.581054688 l 6
 176 198.122070312 184.576171875 198.122070312 190.087890625 192.581054688 c 4
EndSplineSet
EndChar

StartChar: q
Encoding: 113 113 113
Width: 251
VWidth: 94
Flags: W
LayerCount: 2
Fore
SplineSet
190.087890625 5.9833984375 m 4
 184.576171875 0.4423828125 176 0.4423828125 171.1015625 5.9833984375 c 6
 3.8984375 173.489257812 l 6
 -1.61328125 179.032226562 -1.61328125 187.653320312 3.8984375 192.581054688 c 4
 9.41015625 198.122070312 17.986328125 198.122070312 22.884765625 192.581054688 c 6
 190.087890625 25.0751953125 l 6
 194.986328125 20.1474609375 194.986328125 11.5263671875 190.087890625 5.9833984375 c 4
190.087890625 192.581054688 m 4
 195.599609375 187.038085938 195.599609375 178.416992188 190.087890625 173.489257812 c 6
 22.884765625 5.9833984375 l 6
 17.373046875 0.4423828125 8.798828125 0.4423828125 3.8984375 5.9833984375 c 4
 -1.61328125 11.5263671875 -1.61328125 20.1474609375 3.8984375 25.0751953125 c 6
 170.48828125 192.581054688 l 6
 176 198.122070312 184.576171875 198.122070312 190.087890625 192.581054688 c 4
EndSplineSet
EndChar

StartChar: r
Encoding: 114 114 114
Width: 251
VWidth: 94
Flags: W
LayerCount: 2
Fore
SplineSet
190.087890625 5.9833984375 m 4
 184.576171875 0.4423828125 176 0.4423828125 171.1015625 5.9833984375 c 6
 3.8984375 173.489257812 l 6
 -1.61328125 179.032226562 -1.61328125 187.653320312 3.8984375 192.581054688 c 4
 9.41015625 198.122070312 17.986328125 198.122070312 22.884765625 192.581054688 c 6
 190.087890625 25.0751953125 l 6
 194.986328125 20.1474609375 194.986328125 11.5263671875 190.087890625 5.9833984375 c 4
190.087890625 192.581054688 m 4
 195.599609375 187.038085938 195.599609375 178.416992188 190.087890625 173.489257812 c 6
 22.884765625 5.9833984375 l 6
 17.373046875 0.4423828125 8.798828125 0.4423828125 3.8984375 5.9833984375 c 4
 -1.61328125 11.5263671875 -1.61328125 20.1474609375 3.8984375 25.0751953125 c 6
 170.48828125 192.581054688 l 6
 176 198.122070312 184.576171875 198.122070312 190.087890625 192.581054688 c 4
EndSplineSet
EndChar

StartChar: s
Encoding: 115 115 115
Width: 251
VWidth: 94
Flags: W
LayerCount: 2
Fore
SplineSet
190.087890625 5.9833984375 m 4
 184.576171875 0.4423828125 176 0.4423828125 171.1015625 5.9833984375 c 6
 3.8984375 173.489257812 l 6
 -1.61328125 179.032226562 -1.61328125 187.653320312 3.8984375 192.581054688 c 4
 9.41015625 198.122070312 17.986328125 198.122070312 22.884765625 192.581054688 c 6
 190.087890625 25.0751953125 l 6
 194.986328125 20.1474609375 194.986328125 11.5263671875 190.087890625 5.9833984375 c 4
190.087890625 192.581054688 m 4
 195.599609375 187.038085938 195.599609375 178.416992188 190.087890625 173.489257812 c 6
 22.884765625 5.9833984375 l 6
 17.373046875 0.4423828125 8.798828125 0.4423828125 3.8984375 5.9833984375 c 4
 -1.61328125 11.5263671875 -1.61328125 20.1474609375 3.8984375 25.0751953125 c 6
 170.48828125 192.581054688 l 6
 176 198.122070312 184.576171875 198.122070312 190.087890625 192.581054688 c 4
EndSplineSet
EndChar

StartChar: t
Encoding: 116 116 116
Width: 251
VWidth: 94
Flags: W
LayerCount: 2
Fore
SplineSet
190.087890625 5.9833984375 m 4
 184.576171875 0.4423828125 176 0.4423828125 171.1015625 5.9833984375 c 6
 3.8984375 173.489257812 l 6
 -1.61328125 179.032226562 -1.61328125 187.653320312 3.8984375 192.581054688 c 4
 9.41015625 198.122070312 17.986328125 198.122070312 22.884765625 192.581054688 c 6
 190.087890625 25.0751953125 l 6
 194.986328125 20.1474609375 194.986328125 11.5263671875 190.087890625 5.9833984375 c 4
190.087890625 192.581054688 m 4
 195.599609375 187.038085938 195.599609375 178.416992188 190.087890625 173.489257812 c 6
 22.884765625 5.9833984375 l 6
 17.373046875 0.4423828125 8.798828125 0.4423828125 3.8984375 5.9833984375 c 4
 -1.61328125 11.5263671875 -1.61328125 20.1474609375 3.8984375 25.0751953125 c 6
 170.48828125 192.581054688 l 6
 176 198.122070312 184.576171875 198.122070312 190.087890625 192.581054688 c 4
EndSplineSet
EndChar

StartChar: u
Encoding: 117 117 117
Width: 251
VWidth: 94
Flags: W
LayerCount: 2
Fore
SplineSet
190.087890625 5.9833984375 m 4
 184.576171875 0.4423828125 176 0.4423828125 171.1015625 5.9833984375 c 6
 3.8984375 173.489257812 l 6
 -1.61328125 179.032226562 -1.61328125 187.653320312 3.8984375 192.581054688 c 4
 9.41015625 198.122070312 17.986328125 198.122070312 22.884765625 192.581054688 c 6
 190.087890625 25.0751953125 l 6
 194.986328125 20.1474609375 194.986328125 11.5263671875 190.087890625 5.9833984375 c 4
190.087890625 192.581054688 m 4
 195.599609375 187.038085938 195.599609375 178.416992188 190.087890625 173.489257812 c 6
 22.884765625 5.9833984375 l 6
 17.373046875 0.4423828125 8.798828125 0.4423828125 3.8984375 5.9833984375 c 4
 -1.61328125 11.5263671875 -1.61328125 20.1474609375 3.8984375 25.0751953125 c 6
 170.48828125 192.581054688 l 6
 176 198.122070312 184.576171875 198.122070312 190.087890625 192.581054688 c 4
EndSplineSet
EndChar

StartChar: v
Encoding: 118 118 118
Width: 251
VWidth: 94
Flags: W
LayerCount: 2
Fore
SplineSet
190.087890625 5.9833984375 m 4
 184.576171875 0.4423828125 176 0.4423828125 171.1015625 5.9833984375 c 6
 3.8984375 173.489257812 l 6
 -1.61328125 179.032226562 -1.61328125 187.653320312 3.8984375 192.581054688 c 4
 9.41015625 198.122070312 17.986328125 198.122070312 22.884765625 192.581054688 c 6
 190.087890625 25.0751953125 l 6
 194.986328125 20.1474609375 194.986328125 11.5263671875 190.087890625 5.9833984375 c 4
190.087890625 192.581054688 m 4
 195.599609375 187.038085938 195.599609375 178.416992188 190.087890625 173.489257812 c 6
 22.884765625 5.9833984375 l 6
 17.373046875 0.4423828125 8.798828125 0.4423828125 3.8984375 5.9833984375 c 4
 -1.61328125 11.5263671875 -1.61328125 20.1474609375 3.8984375 25.0751953125 c 6
 170.48828125 192.581054688 l 6
 176 198.122070312 184.576171875 198.122070312 190.087890625 192.581054688 c 4
EndSplineSet
EndChar

StartChar: w
Encoding: 119 119 119
Width: 251
VWidth: 94
Flags: W
LayerCount: 2
Fore
SplineSet
190.087890625 5.9833984375 m 4
 184.576171875 0.4423828125 176 0.4423828125 171.1015625 5.9833984375 c 6
 3.8984375 173.489257812 l 6
 -1.61328125 179.032226562 -1.61328125 187.653320312 3.8984375 192.581054688 c 4
 9.41015625 198.122070312 17.986328125 198.122070312 22.884765625 192.581054688 c 6
 190.087890625 25.0751953125 l 6
 194.986328125 20.1474609375 194.986328125 11.5263671875 190.087890625 5.9833984375 c 4
190.087890625 192.581054688 m 4
 195.599609375 187.038085938 195.599609375 178.416992188 190.087890625 173.489257812 c 6
 22.884765625 5.9833984375 l 6
 17.373046875 0.4423828125 8.798828125 0.4423828125 3.8984375 5.9833984375 c 4
 -1.61328125 11.5263671875 -1.61328125 20.1474609375 3.8984375 25.0751953125 c 6
 170.48828125 192.581054688 l 6
 176 198.122070312 184.576171875 198.122070312 190.087890625 192.581054688 c 4
EndSplineSet
EndChar

StartChar: x
Encoding: 120 120 120
Width: 251
VWidth: 94
Flags: W
LayerCount: 2
Fore
SplineSet
190.087890625 5.9833984375 m 4
 184.576171875 0.4423828125 176 0.4423828125 171.1015625 5.9833984375 c 6
 3.8984375 173.489257812 l 6
 -1.61328125 179.032226562 -1.61328125 187.653320312 3.8984375 192.581054688 c 4
 9.41015625 198.122070312 17.986328125 198.122070312 22.884765625 192.581054688 c 6
 190.087890625 25.0751953125 l 6
 194.986328125 20.1474609375 194.986328125 11.5263671875 190.087890625 5.9833984375 c 4
190.087890625 192.581054688 m 4
 195.599609375 187.038085938 195.599609375 178.416992188 190.087890625 173.489257812 c 6
 22.884765625 5.9833984375 l 6
 17.373046875 0.4423828125 8.798828125 0.4423828125 3.8984375 5.9833984375 c 4
 -1.61328125 11.5263671875 -1.61328125 20.1474609375 3.8984375 25.0751953125 c 6
 170.48828125 192.581054688 l 6
 176 198.122070312 184.576171875 198.122070312 190.087890625 192.581054688 c 4
EndSplineSet
EndChar

StartChar: y
Encoding: 121 121 121
Width: 251
VWidth: 94
Flags: W
LayerCount: 2
Fore
SplineSet
190.087890625 5.9833984375 m 4
 184.576171875 0.4423828125 176 0.4423828125 171.1015625 5.9833984375 c 6
 3.8984375 173.489257812 l 6
 -1.61328125 179.032226562 -1.61328125 187.653320312 3.8984375 192.581054688 c 4
 9.41015625 198.122070312 17.986328125 198.122070312 22.884765625 192.581054688 c 6
 190.087890625 25.0751953125 l 6
 194.986328125 20.1474609375 194.986328125 11.5263671875 190.087890625 5.9833984375 c 4
190.087890625 192.581054688 m 4
 195.599609375 187.038085938 195.599609375 178.416992188 190.087890625 173.489257812 c 6
 22.884765625 5.9833984375 l 6
 17.373046875 0.4423828125 8.798828125 0.4423828125 3.8984375 5.9833984375 c 4
 -1.61328125 11.5263671875 -1.61328125 20.1474609375 3.8984375 25.0751953125 c 6
 170.48828125 192.581054688 l 6
 176 198.122070312 184.576171875 198.122070312 190.087890625 192.581054688 c 4
EndSplineSet
EndChar

StartChar: z
Encoding: 122 122 122
Width: 251
VWidth: 94
Flags: W
LayerCount: 2
Fore
SplineSet
190.087890625 5.9833984375 m 4
 184.576171875 0.4423828125 176 0.4423828125 171.1015625 5.9833984375 c 6
 3.8984375 173.489257812 l 6
 -1.61328125 179.032226562 -1.61328125 187.653320312 3.8984375 192.581054688 c 4
 9.41015625 198.122070312 17.986328125 198.122070312 22.884765625 192.581054688 c 6
 190.087890625 25.0751953125 l 6
 194.986328125 20.1474609375 194.986328125 11.5263671875 190.087890625 5.9833984375 c 4
190.087890625 192.581054688 m 4
 195.599609375 187.038085938 195.599609375 178.416992188 190.087890625 173.489257812 c 6
 22.884765625 5.9833984375 l 6
 17.373046875 0.4423828125 8.798828125 0.4423828125 3.8984375 5.9833984375 c 4
 -1.61328125 11.5263671875 -1.61328125 20.1474609375 3.8984375 25.0751953125 c 6
 170.48828125 192.581054688 l 6
 176 198.122070312 184.576171875 198.122070312 190.087890625 192.581054688 c 4
EndSplineSet
EndChar

StartChar: braceleft
Encoding: 123 123 123
Width: 251
VWidth: 94
Flags: W
LayerCount: 2
Fore
SplineSet
190.087890625 5.9833984375 m 4
 184.576171875 0.4423828125 176 0.4423828125 171.1015625 5.9833984375 c 6
 3.8984375 173.489257812 l 6
 -1.61328125 179.032226562 -1.61328125 187.653320312 3.8984375 192.581054688 c 4
 9.41015625 198.122070312 17.986328125 198.122070312 22.884765625 192.581054688 c 6
 190.087890625 25.0751953125 l 6
 194.986328125 20.1474609375 194.986328125 11.5263671875 190.087890625 5.9833984375 c 4
190.087890625 192.581054688 m 4
 195.599609375 187.038085938 195.599609375 178.416992188 190.087890625 173.489257812 c 6
 22.884765625 5.9833984375 l 6
 17.373046875 0.4423828125 8.798828125 0.4423828125 3.8984375 5.9833984375 c 4
 -1.61328125 11.5263671875 -1.61328125 20.1474609375 3.8984375 25.0751953125 c 6
 170.48828125 192.581054688 l 6
 176 198.122070312 184.576171875 198.122070312 190.087890625 192.581054688 c 4
EndSplineSet
EndChar

StartChar: bar
Encoding: 124 124 124
Width: 251
VWidth: 94
Flags: W
LayerCount: 2
Fore
SplineSet
190.087890625 5.9833984375 m 4
 184.576171875 0.4423828125 176 0.4423828125 171.1015625 5.9833984375 c 6
 3.8984375 173.489257812 l 6
 -1.61328125 179.032226562 -1.61328125 187.653320312 3.8984375 192.581054688 c 4
 9.41015625 198.122070312 17.986328125 198.122070312 22.884765625 192.581054688 c 6
 190.087890625 25.0751953125 l 6
 194.986328125 20.1474609375 194.986328125 11.5263671875 190.087890625 5.9833984375 c 4
190.087890625 192.581054688 m 4
 195.599609375 187.038085938 195.599609375 178.416992188 190.087890625 173.489257812 c 6
 22.884765625 5.9833984375 l 6
 17.373046875 0.4423828125 8.798828125 0.4423828125 3.8984375 5.9833984375 c 4
 -1.61328125 11.5263671875 -1.61328125 20.1474609375 3.8984375 25.0751953125 c 6
 170.48828125 192.581054688 l 6
 176 198.122070312 184.576171875 198.122070312 190.087890625 192.581054688 c 4
EndSplineSet
EndChar

StartChar: braceright
Encoding: 125 125 125
Width: 251
VWidth: 94
Flags: W
LayerCount: 2
Fore
SplineSet
190.087890625 5.9833984375 m 4
 184.576171875 0.4423828125 176 0.4423828125 171.1015625 5.9833984375 c 6
 3.8984375 173.489257812 l 6
 -1.61328125 179.032226562 -1.61328125 187.653320312 3.8984375 192.581054688 c 4
 9.41015625 198.122070312 17.986328125 198.122070312 22.884765625 192.581054688 c 6
 190.087890625 25.0751953125 l 6
 194.986328125 20.1474609375 194.986328125 11.5263671875 190.087890625 5.9833984375 c 4
190.087890625 192.581054688 m 4
 195.599609375 187.038085938 195.599609375 178.416992188 190.087890625 173.489257812 c 6
 22.884765625 5.9833984375 l 6
 17.373046875 0.4423828125 8.798828125 0.4423828125 3.8984375 5.9833984375 c 4
 -1.61328125 11.5263671875 -1.61328125 20.1474609375 3.8984375 25.0751953125 c 6
 170.48828125 192.581054688 l 6
 176 198.122070312 184.576171875 198.122070312 190.087890625 192.581054688 c 4
EndSplineSet
EndChar

StartChar: asciitilde
Encoding: 126 126 126
Width: 251
VWidth: 94
Flags: W
LayerCount: 2
Fore
SplineSet
190.087890625 5.9833984375 m 4
 184.576171875 0.4423828125 176 0.4423828125 171.1015625 5.9833984375 c 6
 3.8984375 173.489257812 l 6
 -1.61328125 179.032226562 -1.61328125 187.653320312 3.8984375 192.581054688 c 4
 9.41015625 198.122070312 17.986328125 198.122070312 22.884765625 192.581054688 c 6
 190.087890625 25.0751953125 l 6
 194.986328125 20.1474609375 194.986328125 11.5263671875 190.087890625 5.9833984375 c 4
190.087890625 192.581054688 m 4
 195.599609375 187.038085938 195.599609375 178.416992188 190.087890625 173.489257812 c 6
 22.884765625 5.9833984375 l 6
 17.373046875 0.4423828125 8.798828125 0.4423828125 3.8984375 5.9833984375 c 4
 -1.61328125 11.5263671875 -1.61328125 20.1474609375 3.8984375 25.0751953125 c 6
 170.48828125 192.581054688 l 6
 176 198.122070312 184.576171875 198.122070312 190.087890625 192.581054688 c 4
EndSplineSet
EndChar

StartChar: uni007F
Encoding: 127 127 127
Width: 251
VWidth: 94
Flags: W
LayerCount: 2
Fore
SplineSet
190.087890625 5.9833984375 m 4
 184.576171875 0.4423828125 176 0.4423828125 171.1015625 5.9833984375 c 6
 3.8984375 173.489257812 l 6
 -1.61328125 179.032226562 -1.61328125 187.653320312 3.8984375 192.581054688 c 4
 9.41015625 198.122070312 17.986328125 198.122070312 22.884765625 192.581054688 c 6
 190.087890625 25.0751953125 l 6
 194.986328125 20.1474609375 194.986328125 11.5263671875 190.087890625 5.9833984375 c 4
190.087890625 192.581054688 m 4
 195.599609375 187.038085938 195.599609375 178.416992188 190.087890625 173.489257812 c 6
 22.884765625 5.9833984375 l 6
 17.373046875 0.4423828125 8.798828125 0.4423828125 3.8984375 5.9833984375 c 4
 -1.61328125 11.5263671875 -1.61328125 20.1474609375 3.8984375 25.0751953125 c 6
 170.48828125 192.581054688 l 6
 176 198.122070312 184.576171875 198.122070312 190.087890625 192.581054688 c 4
EndSplineSet
EndChar

StartChar: uni0080
Encoding: 128 128 128
Width: 251
VWidth: 94
Flags: W
LayerCount: 2
Fore
SplineSet
190.087890625 5.9833984375 m 4
 184.576171875 0.4423828125 176 0.4423828125 171.1015625 5.9833984375 c 6
 3.8984375 173.489257812 l 6
 -1.61328125 179.032226562 -1.61328125 187.653320312 3.8984375 192.581054688 c 4
 9.41015625 198.122070312 17.986328125 198.122070312 22.884765625 192.581054688 c 6
 190.087890625 25.0751953125 l 6
 194.986328125 20.1474609375 194.986328125 11.5263671875 190.087890625 5.9833984375 c 4
190.087890625 192.581054688 m 4
 195.599609375 187.038085938 195.599609375 178.416992188 190.087890625 173.489257812 c 6
 22.884765625 5.9833984375 l 6
 17.373046875 0.4423828125 8.798828125 0.4423828125 3.8984375 5.9833984375 c 4
 -1.61328125 11.5263671875 -1.61328125 20.1474609375 3.8984375 25.0751953125 c 6
 170.48828125 192.581054688 l 6
 176 198.122070312 184.576171875 198.122070312 190.087890625 192.581054688 c 4
EndSplineSet
EndChar

StartChar: uni0081
Encoding: 129 129 129
Width: 251
VWidth: 94
Flags: W
LayerCount: 2
Fore
SplineSet
190.087890625 5.9833984375 m 4
 184.576171875 0.4423828125 176 0.4423828125 171.1015625 5.9833984375 c 6
 3.8984375 173.489257812 l 6
 -1.61328125 179.032226562 -1.61328125 187.653320312 3.8984375 192.581054688 c 4
 9.41015625 198.122070312 17.986328125 198.122070312 22.884765625 192.581054688 c 6
 190.087890625 25.0751953125 l 6
 194.986328125 20.1474609375 194.986328125 11.5263671875 190.087890625 5.9833984375 c 4
190.087890625 192.581054688 m 4
 195.599609375 187.038085938 195.599609375 178.416992188 190.087890625 173.489257812 c 6
 22.884765625 5.9833984375 l 6
 17.373046875 0.4423828125 8.798828125 0.4423828125 3.8984375 5.9833984375 c 4
 -1.61328125 11.5263671875 -1.61328125 20.1474609375 3.8984375 25.0751953125 c 6
 170.48828125 192.581054688 l 6
 176 198.122070312 184.576171875 198.122070312 190.087890625 192.581054688 c 4
EndSplineSet
EndChar

StartChar: uni0082
Encoding: 130 130 130
Width: 251
VWidth: 94
Flags: W
LayerCount: 2
Fore
SplineSet
190.087890625 5.9833984375 m 4
 184.576171875 0.4423828125 176 0.4423828125 171.1015625 5.9833984375 c 6
 3.8984375 173.489257812 l 6
 -1.61328125 179.032226562 -1.61328125 187.653320312 3.8984375 192.581054688 c 4
 9.41015625 198.122070312 17.986328125 198.122070312 22.884765625 192.581054688 c 6
 190.087890625 25.0751953125 l 6
 194.986328125 20.1474609375 194.986328125 11.5263671875 190.087890625 5.9833984375 c 4
190.087890625 192.581054688 m 4
 195.599609375 187.038085938 195.599609375 178.416992188 190.087890625 173.489257812 c 6
 22.884765625 5.9833984375 l 6
 17.373046875 0.4423828125 8.798828125 0.4423828125 3.8984375 5.9833984375 c 4
 -1.61328125 11.5263671875 -1.61328125 20.1474609375 3.8984375 25.0751953125 c 6
 170.48828125 192.581054688 l 6
 176 198.122070312 184.576171875 198.122070312 190.087890625 192.581054688 c 4
EndSplineSet
EndChar

StartChar: uni0083
Encoding: 131 131 131
Width: 251
VWidth: 94
Flags: W
LayerCount: 2
Fore
SplineSet
190.087890625 5.9833984375 m 4
 184.576171875 0.4423828125 176 0.4423828125 171.1015625 5.9833984375 c 6
 3.8984375 173.489257812 l 6
 -1.61328125 179.032226562 -1.61328125 187.653320312 3.8984375 192.581054688 c 4
 9.41015625 198.122070312 17.986328125 198.122070312 22.884765625 192.581054688 c 6
 190.087890625 25.0751953125 l 6
 194.986328125 20.1474609375 194.986328125 11.5263671875 190.087890625 5.9833984375 c 4
190.087890625 192.581054688 m 4
 195.599609375 187.038085938 195.599609375 178.416992188 190.087890625 173.489257812 c 6
 22.884765625 5.9833984375 l 6
 17.373046875 0.4423828125 8.798828125 0.4423828125 3.8984375 5.9833984375 c 4
 -1.61328125 11.5263671875 -1.61328125 20.1474609375 3.8984375 25.0751953125 c 6
 170.48828125 192.581054688 l 6
 176 198.122070312 184.576171875 198.122070312 190.087890625 192.581054688 c 4
EndSplineSet
EndChar

StartChar: uni0084
Encoding: 132 132 132
Width: 251
VWidth: 94
Flags: W
LayerCount: 2
Fore
SplineSet
190.087890625 5.9833984375 m 4
 184.576171875 0.4423828125 176 0.4423828125 171.1015625 5.9833984375 c 6
 3.8984375 173.489257812 l 6
 -1.61328125 179.032226562 -1.61328125 187.653320312 3.8984375 192.581054688 c 4
 9.41015625 198.122070312 17.986328125 198.122070312 22.884765625 192.581054688 c 6
 190.087890625 25.0751953125 l 6
 194.986328125 20.1474609375 194.986328125 11.5263671875 190.087890625 5.9833984375 c 4
190.087890625 192.581054688 m 4
 195.599609375 187.038085938 195.599609375 178.416992188 190.087890625 173.489257812 c 6
 22.884765625 5.9833984375 l 6
 17.373046875 0.4423828125 8.798828125 0.4423828125 3.8984375 5.9833984375 c 4
 -1.61328125 11.5263671875 -1.61328125 20.1474609375 3.8984375 25.0751953125 c 6
 170.48828125 192.581054688 l 6
 176 198.122070312 184.576171875 198.122070312 190.087890625 192.581054688 c 4
EndSplineSet
EndChar

StartChar: uni0085
Encoding: 133 133 133
Width: 251
VWidth: 94
Flags: W
LayerCount: 2
Fore
SplineSet
190.087890625 5.9833984375 m 4
 184.576171875 0.4423828125 176 0.4423828125 171.1015625 5.9833984375 c 6
 3.8984375 173.489257812 l 6
 -1.61328125 179.032226562 -1.61328125 187.653320312 3.8984375 192.581054688 c 4
 9.41015625 198.122070312 17.986328125 198.122070312 22.884765625 192.581054688 c 6
 190.087890625 25.0751953125 l 6
 194.986328125 20.1474609375 194.986328125 11.5263671875 190.087890625 5.9833984375 c 4
190.087890625 192.581054688 m 4
 195.599609375 187.038085938 195.599609375 178.416992188 190.087890625 173.489257812 c 6
 22.884765625 5.9833984375 l 6
 17.373046875 0.4423828125 8.798828125 0.4423828125 3.8984375 5.9833984375 c 4
 -1.61328125 11.5263671875 -1.61328125 20.1474609375 3.8984375 25.0751953125 c 6
 170.48828125 192.581054688 l 6
 176 198.122070312 184.576171875 198.122070312 190.087890625 192.581054688 c 4
EndSplineSet
EndChar

StartChar: uni0086
Encoding: 134 134 134
Width: 251
VWidth: 94
Flags: W
LayerCount: 2
Fore
SplineSet
190.087890625 5.9833984375 m 4
 184.576171875 0.4423828125 176 0.4423828125 171.1015625 5.9833984375 c 6
 3.8984375 173.489257812 l 6
 -1.61328125 179.032226562 -1.61328125 187.653320312 3.8984375 192.581054688 c 4
 9.41015625 198.122070312 17.986328125 198.122070312 22.884765625 192.581054688 c 6
 190.087890625 25.0751953125 l 6
 194.986328125 20.1474609375 194.986328125 11.5263671875 190.087890625 5.9833984375 c 4
190.087890625 192.581054688 m 4
 195.599609375 187.038085938 195.599609375 178.416992188 190.087890625 173.489257812 c 6
 22.884765625 5.9833984375 l 6
 17.373046875 0.4423828125 8.798828125 0.4423828125 3.8984375 5.9833984375 c 4
 -1.61328125 11.5263671875 -1.61328125 20.1474609375 3.8984375 25.0751953125 c 6
 170.48828125 192.581054688 l 6
 176 198.122070312 184.576171875 198.122070312 190.087890625 192.581054688 c 4
EndSplineSet
EndChar

StartChar: uni0087
Encoding: 135 135 135
Width: 251
VWidth: 94
Flags: W
LayerCount: 2
Fore
SplineSet
190.087890625 5.9833984375 m 4
 184.576171875 0.4423828125 176 0.4423828125 171.1015625 5.9833984375 c 6
 3.8984375 173.489257812 l 6
 -1.61328125 179.032226562 -1.61328125 187.653320312 3.8984375 192.581054688 c 4
 9.41015625 198.122070312 17.986328125 198.122070312 22.884765625 192.581054688 c 6
 190.087890625 25.0751953125 l 6
 194.986328125 20.1474609375 194.986328125 11.5263671875 190.087890625 5.9833984375 c 4
190.087890625 192.581054688 m 4
 195.599609375 187.038085938 195.599609375 178.416992188 190.087890625 173.489257812 c 6
 22.884765625 5.9833984375 l 6
 17.373046875 0.4423828125 8.798828125 0.4423828125 3.8984375 5.9833984375 c 4
 -1.61328125 11.5263671875 -1.61328125 20.1474609375 3.8984375 25.0751953125 c 6
 170.48828125 192.581054688 l 6
 176 198.122070312 184.576171875 198.122070312 190.087890625 192.581054688 c 4
EndSplineSet
EndChar

StartChar: uni0088
Encoding: 136 136 136
Width: 251
VWidth: 94
Flags: W
LayerCount: 2
Fore
SplineSet
190.087890625 5.9833984375 m 4
 184.576171875 0.4423828125 176 0.4423828125 171.1015625 5.9833984375 c 6
 3.8984375 173.489257812 l 6
 -1.61328125 179.032226562 -1.61328125 187.653320312 3.8984375 192.581054688 c 4
 9.41015625 198.122070312 17.986328125 198.122070312 22.884765625 192.581054688 c 6
 190.087890625 25.0751953125 l 6
 194.986328125 20.1474609375 194.986328125 11.5263671875 190.087890625 5.9833984375 c 4
190.087890625 192.581054688 m 4
 195.599609375 187.038085938 195.599609375 178.416992188 190.087890625 173.489257812 c 6
 22.884765625 5.9833984375 l 6
 17.373046875 0.4423828125 8.798828125 0.4423828125 3.8984375 5.9833984375 c 4
 -1.61328125 11.5263671875 -1.61328125 20.1474609375 3.8984375 25.0751953125 c 6
 170.48828125 192.581054688 l 6
 176 198.122070312 184.576171875 198.122070312 190.087890625 192.581054688 c 4
EndSplineSet
EndChar

StartChar: uni0089
Encoding: 137 137 137
Width: 251
VWidth: 94
Flags: W
LayerCount: 2
Fore
SplineSet
190.087890625 5.9833984375 m 4
 184.576171875 0.4423828125 176 0.4423828125 171.1015625 5.9833984375 c 6
 3.8984375 173.489257812 l 6
 -1.61328125 179.032226562 -1.61328125 187.653320312 3.8984375 192.581054688 c 4
 9.41015625 198.122070312 17.986328125 198.122070312 22.884765625 192.581054688 c 6
 190.087890625 25.0751953125 l 6
 194.986328125 20.1474609375 194.986328125 11.5263671875 190.087890625 5.9833984375 c 4
190.087890625 192.581054688 m 4
 195.599609375 187.038085938 195.599609375 178.416992188 190.087890625 173.489257812 c 6
 22.884765625 5.9833984375 l 6
 17.373046875 0.4423828125 8.798828125 0.4423828125 3.8984375 5.9833984375 c 4
 -1.61328125 11.5263671875 -1.61328125 20.1474609375 3.8984375 25.0751953125 c 6
 170.48828125 192.581054688 l 6
 176 198.122070312 184.576171875 198.122070312 190.087890625 192.581054688 c 4
EndSplineSet
EndChar

StartChar: uni008A
Encoding: 138 138 138
Width: 251
VWidth: 94
Flags: W
LayerCount: 2
Fore
SplineSet
190.087890625 5.9833984375 m 4
 184.576171875 0.4423828125 176 0.4423828125 171.1015625 5.9833984375 c 6
 3.8984375 173.489257812 l 6
 -1.61328125 179.032226562 -1.61328125 187.653320312 3.8984375 192.581054688 c 4
 9.41015625 198.122070312 17.986328125 198.122070312 22.884765625 192.581054688 c 6
 190.087890625 25.0751953125 l 6
 194.986328125 20.1474609375 194.986328125 11.5263671875 190.087890625 5.9833984375 c 4
190.087890625 192.581054688 m 4
 195.599609375 187.038085938 195.599609375 178.416992188 190.087890625 173.489257812 c 6
 22.884765625 5.9833984375 l 6
 17.373046875 0.4423828125 8.798828125 0.4423828125 3.8984375 5.9833984375 c 4
 -1.61328125 11.5263671875 -1.61328125 20.1474609375 3.8984375 25.0751953125 c 6
 170.48828125 192.581054688 l 6
 176 198.122070312 184.576171875 198.122070312 190.087890625 192.581054688 c 4
EndSplineSet
EndChar

StartChar: uni008B
Encoding: 139 139 139
Width: 251
VWidth: 94
Flags: W
LayerCount: 2
Fore
SplineSet
190.087890625 5.9833984375 m 4
 184.576171875 0.4423828125 176 0.4423828125 171.1015625 5.9833984375 c 6
 3.8984375 173.489257812 l 6
 -1.61328125 179.032226562 -1.61328125 187.653320312 3.8984375 192.581054688 c 4
 9.41015625 198.122070312 17.986328125 198.122070312 22.884765625 192.581054688 c 6
 190.087890625 25.0751953125 l 6
 194.986328125 20.1474609375 194.986328125 11.5263671875 190.087890625 5.9833984375 c 4
190.087890625 192.581054688 m 4
 195.599609375 187.038085938 195.599609375 178.416992188 190.087890625 173.489257812 c 6
 22.884765625 5.9833984375 l 6
 17.373046875 0.4423828125 8.798828125 0.4423828125 3.8984375 5.9833984375 c 4
 -1.61328125 11.5263671875 -1.61328125 20.1474609375 3.8984375 25.0751953125 c 6
 170.48828125 192.581054688 l 6
 176 198.122070312 184.576171875 198.122070312 190.087890625 192.581054688 c 4
EndSplineSet
EndChar

StartChar: uni008C
Encoding: 140 140 140
Width: 251
VWidth: 94
Flags: W
LayerCount: 2
Fore
SplineSet
190.087890625 5.9833984375 m 4
 184.576171875 0.4423828125 176 0.4423828125 171.1015625 5.9833984375 c 6
 3.8984375 173.489257812 l 6
 -1.61328125 179.032226562 -1.61328125 187.653320312 3.8984375 192.581054688 c 4
 9.41015625 198.122070312 17.986328125 198.122070312 22.884765625 192.581054688 c 6
 190.087890625 25.0751953125 l 6
 194.986328125 20.1474609375 194.986328125 11.5263671875 190.087890625 5.9833984375 c 4
190.087890625 192.581054688 m 4
 195.599609375 187.038085938 195.599609375 178.416992188 190.087890625 173.489257812 c 6
 22.884765625 5.9833984375 l 6
 17.373046875 0.4423828125 8.798828125 0.4423828125 3.8984375 5.9833984375 c 4
 -1.61328125 11.5263671875 -1.61328125 20.1474609375 3.8984375 25.0751953125 c 6
 170.48828125 192.581054688 l 6
 176 198.122070312 184.576171875 198.122070312 190.087890625 192.581054688 c 4
EndSplineSet
EndChar

StartChar: uni008D
Encoding: 141 141 141
Width: 251
VWidth: 94
Flags: W
LayerCount: 2
Fore
SplineSet
190.087890625 5.9833984375 m 4
 184.576171875 0.4423828125 176 0.4423828125 171.1015625 5.9833984375 c 6
 3.8984375 173.489257812 l 6
 -1.61328125 179.032226562 -1.61328125 187.653320312 3.8984375 192.581054688 c 4
 9.41015625 198.122070312 17.986328125 198.122070312 22.884765625 192.581054688 c 6
 190.087890625 25.0751953125 l 6
 194.986328125 20.1474609375 194.986328125 11.5263671875 190.087890625 5.9833984375 c 4
190.087890625 192.581054688 m 4
 195.599609375 187.038085938 195.599609375 178.416992188 190.087890625 173.489257812 c 6
 22.884765625 5.9833984375 l 6
 17.373046875 0.4423828125 8.798828125 0.4423828125 3.8984375 5.9833984375 c 4
 -1.61328125 11.5263671875 -1.61328125 20.1474609375 3.8984375 25.0751953125 c 6
 170.48828125 192.581054688 l 6
 176 198.122070312 184.576171875 198.122070312 190.087890625 192.581054688 c 4
EndSplineSet
EndChar

StartChar: uni008E
Encoding: 142 142 142
Width: 251
VWidth: 94
Flags: W
LayerCount: 2
Fore
SplineSet
190.087890625 5.9833984375 m 4
 184.576171875 0.4423828125 176 0.4423828125 171.1015625 5.9833984375 c 6
 3.8984375 173.489257812 l 6
 -1.61328125 179.032226562 -1.61328125 187.653320312 3.8984375 192.581054688 c 4
 9.41015625 198.122070312 17.986328125 198.122070312 22.884765625 192.581054688 c 6
 190.087890625 25.0751953125 l 6
 194.986328125 20.1474609375 194.986328125 11.5263671875 190.087890625 5.9833984375 c 4
190.087890625 192.581054688 m 4
 195.599609375 187.038085938 195.599609375 178.416992188 190.087890625 173.489257812 c 6
 22.884765625 5.9833984375 l 6
 17.373046875 0.4423828125 8.798828125 0.4423828125 3.8984375 5.9833984375 c 4
 -1.61328125 11.5263671875 -1.61328125 20.1474609375 3.8984375 25.0751953125 c 6
 170.48828125 192.581054688 l 6
 176 198.122070312 184.576171875 198.122070312 190.087890625 192.581054688 c 4
EndSplineSet
EndChar

StartChar: uni008F
Encoding: 143 143 143
Width: 251
VWidth: 94
Flags: W
LayerCount: 2
Fore
SplineSet
190.087890625 5.9833984375 m 4
 184.576171875 0.4423828125 176 0.4423828125 171.1015625 5.9833984375 c 6
 3.8984375 173.489257812 l 6
 -1.61328125 179.032226562 -1.61328125 187.653320312 3.8984375 192.581054688 c 4
 9.41015625 198.122070312 17.986328125 198.122070312 22.884765625 192.581054688 c 6
 190.087890625 25.0751953125 l 6
 194.986328125 20.1474609375 194.986328125 11.5263671875 190.087890625 5.9833984375 c 4
190.087890625 192.581054688 m 4
 195.599609375 187.038085938 195.599609375 178.416992188 190.087890625 173.489257812 c 6
 22.884765625 5.9833984375 l 6
 17.373046875 0.4423828125 8.798828125 0.4423828125 3.8984375 5.9833984375 c 4
 -1.61328125 11.5263671875 -1.61328125 20.1474609375 3.8984375 25.0751953125 c 6
 170.48828125 192.581054688 l 6
 176 198.122070312 184.576171875 198.122070312 190.087890625 192.581054688 c 4
EndSplineSet
EndChar

StartChar: uni0090
Encoding: 144 144 144
Width: 251
VWidth: 94
Flags: W
LayerCount: 2
Fore
SplineSet
190.087890625 5.9833984375 m 4
 184.576171875 0.4423828125 176 0.4423828125 171.1015625 5.9833984375 c 6
 3.8984375 173.489257812 l 6
 -1.61328125 179.032226562 -1.61328125 187.653320312 3.8984375 192.581054688 c 4
 9.41015625 198.122070312 17.986328125 198.122070312 22.884765625 192.581054688 c 6
 190.087890625 25.0751953125 l 6
 194.986328125 20.1474609375 194.986328125 11.5263671875 190.087890625 5.9833984375 c 4
190.087890625 192.581054688 m 4
 195.599609375 187.038085938 195.599609375 178.416992188 190.087890625 173.489257812 c 6
 22.884765625 5.9833984375 l 6
 17.373046875 0.4423828125 8.798828125 0.4423828125 3.8984375 5.9833984375 c 4
 -1.61328125 11.5263671875 -1.61328125 20.1474609375 3.8984375 25.0751953125 c 6
 170.48828125 192.581054688 l 6
 176 198.122070312 184.576171875 198.122070312 190.087890625 192.581054688 c 4
EndSplineSet
EndChar

StartChar: uni0091
Encoding: 145 145 145
Width: 251
VWidth: 94
Flags: W
LayerCount: 2
Fore
SplineSet
190.087890625 5.9833984375 m 4
 184.576171875 0.4423828125 176 0.4423828125 171.1015625 5.9833984375 c 6
 3.8984375 173.489257812 l 6
 -1.61328125 179.032226562 -1.61328125 187.653320312 3.8984375 192.581054688 c 4
 9.41015625 198.122070312 17.986328125 198.122070312 22.884765625 192.581054688 c 6
 190.087890625 25.0751953125 l 6
 194.986328125 20.1474609375 194.986328125 11.5263671875 190.087890625 5.9833984375 c 4
190.087890625 192.581054688 m 4
 195.599609375 187.038085938 195.599609375 178.416992188 190.087890625 173.489257812 c 6
 22.884765625 5.9833984375 l 6
 17.373046875 0.4423828125 8.798828125 0.4423828125 3.8984375 5.9833984375 c 4
 -1.61328125 11.5263671875 -1.61328125 20.1474609375 3.8984375 25.0751953125 c 6
 170.48828125 192.581054688 l 6
 176 198.122070312 184.576171875 198.122070312 190.087890625 192.581054688 c 4
EndSplineSet
EndChar

StartChar: uni0092
Encoding: 146 146 146
Width: 251
VWidth: 94
Flags: W
LayerCount: 2
Fore
SplineSet
190.087890625 5.9833984375 m 4
 184.576171875 0.4423828125 176 0.4423828125 171.1015625 5.9833984375 c 6
 3.8984375 173.489257812 l 6
 -1.61328125 179.032226562 -1.61328125 187.653320312 3.8984375 192.581054688 c 4
 9.41015625 198.122070312 17.986328125 198.122070312 22.884765625 192.581054688 c 6
 190.087890625 25.0751953125 l 6
 194.986328125 20.1474609375 194.986328125 11.5263671875 190.087890625 5.9833984375 c 4
190.087890625 192.581054688 m 4
 195.599609375 187.038085938 195.599609375 178.416992188 190.087890625 173.489257812 c 6
 22.884765625 5.9833984375 l 6
 17.373046875 0.4423828125 8.798828125 0.4423828125 3.8984375 5.9833984375 c 4
 -1.61328125 11.5263671875 -1.61328125 20.1474609375 3.8984375 25.0751953125 c 6
 170.48828125 192.581054688 l 6
 176 198.122070312 184.576171875 198.122070312 190.087890625 192.581054688 c 4
EndSplineSet
EndChar

StartChar: uni0093
Encoding: 147 147 147
Width: 251
VWidth: 94
Flags: W
LayerCount: 2
Fore
SplineSet
190.087890625 5.9833984375 m 4
 184.576171875 0.4423828125 176 0.4423828125 171.1015625 5.9833984375 c 6
 3.8984375 173.489257812 l 6
 -1.61328125 179.032226562 -1.61328125 187.653320312 3.8984375 192.581054688 c 4
 9.41015625 198.122070312 17.986328125 198.122070312 22.884765625 192.581054688 c 6
 190.087890625 25.0751953125 l 6
 194.986328125 20.1474609375 194.986328125 11.5263671875 190.087890625 5.9833984375 c 4
190.087890625 192.581054688 m 4
 195.599609375 187.038085938 195.599609375 178.416992188 190.087890625 173.489257812 c 6
 22.884765625 5.9833984375 l 6
 17.373046875 0.4423828125 8.798828125 0.4423828125 3.8984375 5.9833984375 c 4
 -1.61328125 11.5263671875 -1.61328125 20.1474609375 3.8984375 25.0751953125 c 6
 170.48828125 192.581054688 l 6
 176 198.122070312 184.576171875 198.122070312 190.087890625 192.581054688 c 4
EndSplineSet
EndChar

StartChar: uni0094
Encoding: 148 148 148
Width: 251
VWidth: 94
Flags: W
LayerCount: 2
Fore
SplineSet
190.087890625 5.9833984375 m 4
 184.576171875 0.4423828125 176 0.4423828125 171.1015625 5.9833984375 c 6
 3.8984375 173.489257812 l 6
 -1.61328125 179.032226562 -1.61328125 187.653320312 3.8984375 192.581054688 c 4
 9.41015625 198.122070312 17.986328125 198.122070312 22.884765625 192.581054688 c 6
 190.087890625 25.0751953125 l 6
 194.986328125 20.1474609375 194.986328125 11.5263671875 190.087890625 5.9833984375 c 4
190.087890625 192.581054688 m 4
 195.599609375 187.038085938 195.599609375 178.416992188 190.087890625 173.489257812 c 6
 22.884765625 5.9833984375 l 6
 17.373046875 0.4423828125 8.798828125 0.4423828125 3.8984375 5.9833984375 c 4
 -1.61328125 11.5263671875 -1.61328125 20.1474609375 3.8984375 25.0751953125 c 6
 170.48828125 192.581054688 l 6
 176 198.122070312 184.576171875 198.122070312 190.087890625 192.581054688 c 4
EndSplineSet
EndChar

StartChar: uni0095
Encoding: 149 149 149
Width: 251
VWidth: 94
Flags: W
LayerCount: 2
Fore
SplineSet
190.087890625 5.9833984375 m 4
 184.576171875 0.4423828125 176 0.4423828125 171.1015625 5.9833984375 c 6
 3.8984375 173.489257812 l 6
 -1.61328125 179.032226562 -1.61328125 187.653320312 3.8984375 192.581054688 c 4
 9.41015625 198.122070312 17.986328125 198.122070312 22.884765625 192.581054688 c 6
 190.087890625 25.0751953125 l 6
 194.986328125 20.1474609375 194.986328125 11.5263671875 190.087890625 5.9833984375 c 4
190.087890625 192.581054688 m 4
 195.599609375 187.038085938 195.599609375 178.416992188 190.087890625 173.489257812 c 6
 22.884765625 5.9833984375 l 6
 17.373046875 0.4423828125 8.798828125 0.4423828125 3.8984375 5.9833984375 c 4
 -1.61328125 11.5263671875 -1.61328125 20.1474609375 3.8984375 25.0751953125 c 6
 170.48828125 192.581054688 l 6
 176 198.122070312 184.576171875 198.122070312 190.087890625 192.581054688 c 4
EndSplineSet
EndChar

StartChar: uni0096
Encoding: 150 150 150
Width: 251
VWidth: 94
Flags: W
LayerCount: 2
Fore
SplineSet
190.087890625 5.9833984375 m 4
 184.576171875 0.4423828125 176 0.4423828125 171.1015625 5.9833984375 c 6
 3.8984375 173.489257812 l 6
 -1.61328125 179.032226562 -1.61328125 187.653320312 3.8984375 192.581054688 c 4
 9.41015625 198.122070312 17.986328125 198.122070312 22.884765625 192.581054688 c 6
 190.087890625 25.0751953125 l 6
 194.986328125 20.1474609375 194.986328125 11.5263671875 190.087890625 5.9833984375 c 4
190.087890625 192.581054688 m 4
 195.599609375 187.038085938 195.599609375 178.416992188 190.087890625 173.489257812 c 6
 22.884765625 5.9833984375 l 6
 17.373046875 0.4423828125 8.798828125 0.4423828125 3.8984375 5.9833984375 c 4
 -1.61328125 11.5263671875 -1.61328125 20.1474609375 3.8984375 25.0751953125 c 6
 170.48828125 192.581054688 l 6
 176 198.122070312 184.576171875 198.122070312 190.087890625 192.581054688 c 4
EndSplineSet
EndChar

StartChar: uni0097
Encoding: 151 151 151
Width: 251
VWidth: 94
Flags: W
LayerCount: 2
Fore
SplineSet
190.087890625 5.9833984375 m 4
 184.576171875 0.4423828125 176 0.4423828125 171.1015625 5.9833984375 c 6
 3.8984375 173.489257812 l 6
 -1.61328125 179.032226562 -1.61328125 187.653320312 3.8984375 192.581054688 c 4
 9.41015625 198.122070312 17.986328125 198.122070312 22.884765625 192.581054688 c 6
 190.087890625 25.0751953125 l 6
 194.986328125 20.1474609375 194.986328125 11.5263671875 190.087890625 5.9833984375 c 4
190.087890625 192.581054688 m 4
 195.599609375 187.038085938 195.599609375 178.416992188 190.087890625 173.489257812 c 6
 22.884765625 5.9833984375 l 6
 17.373046875 0.4423828125 8.798828125 0.4423828125 3.8984375 5.9833984375 c 4
 -1.61328125 11.5263671875 -1.61328125 20.1474609375 3.8984375 25.0751953125 c 6
 170.48828125 192.581054688 l 6
 176 198.122070312 184.576171875 198.122070312 190.087890625 192.581054688 c 4
EndSplineSet
EndChar

StartChar: uni0098
Encoding: 152 152 152
Width: 251
VWidth: 94
Flags: W
LayerCount: 2
Fore
SplineSet
190.087890625 5.9833984375 m 4
 184.576171875 0.4423828125 176 0.4423828125 171.1015625 5.9833984375 c 6
 3.8984375 173.489257812 l 6
 -1.61328125 179.032226562 -1.61328125 187.653320312 3.8984375 192.581054688 c 4
 9.41015625 198.122070312 17.986328125 198.122070312 22.884765625 192.581054688 c 6
 190.087890625 25.0751953125 l 6
 194.986328125 20.1474609375 194.986328125 11.5263671875 190.087890625 5.9833984375 c 4
190.087890625 192.581054688 m 4
 195.599609375 187.038085938 195.599609375 178.416992188 190.087890625 173.489257812 c 6
 22.884765625 5.9833984375 l 6
 17.373046875 0.4423828125 8.798828125 0.4423828125 3.8984375 5.9833984375 c 4
 -1.61328125 11.5263671875 -1.61328125 20.1474609375 3.8984375 25.0751953125 c 6
 170.48828125 192.581054688 l 6
 176 198.122070312 184.576171875 198.122070312 190.087890625 192.581054688 c 4
EndSplineSet
EndChar

StartChar: uni0099
Encoding: 153 153 153
Width: 251
VWidth: 94
Flags: W
LayerCount: 2
Fore
SplineSet
190.087890625 5.9833984375 m 4
 184.576171875 0.4423828125 176 0.4423828125 171.1015625 5.9833984375 c 6
 3.8984375 173.489257812 l 6
 -1.61328125 179.032226562 -1.61328125 187.653320312 3.8984375 192.581054688 c 4
 9.41015625 198.122070312 17.986328125 198.122070312 22.884765625 192.581054688 c 6
 190.087890625 25.0751953125 l 6
 194.986328125 20.1474609375 194.986328125 11.5263671875 190.087890625 5.9833984375 c 4
190.087890625 192.581054688 m 4
 195.599609375 187.038085938 195.599609375 178.416992188 190.087890625 173.489257812 c 6
 22.884765625 5.9833984375 l 6
 17.373046875 0.4423828125 8.798828125 0.4423828125 3.8984375 5.9833984375 c 4
 -1.61328125 11.5263671875 -1.61328125 20.1474609375 3.8984375 25.0751953125 c 6
 170.48828125 192.581054688 l 6
 176 198.122070312 184.576171875 198.122070312 190.087890625 192.581054688 c 4
EndSplineSet
EndChar

StartChar: uni009A
Encoding: 154 154 154
Width: 251
VWidth: 94
Flags: W
LayerCount: 2
Fore
SplineSet
190.087890625 5.9833984375 m 4
 184.576171875 0.4423828125 176 0.4423828125 171.1015625 5.9833984375 c 6
 3.8984375 173.489257812 l 6
 -1.61328125 179.032226562 -1.61328125 187.653320312 3.8984375 192.581054688 c 4
 9.41015625 198.122070312 17.986328125 198.122070312 22.884765625 192.581054688 c 6
 190.087890625 25.0751953125 l 6
 194.986328125 20.1474609375 194.986328125 11.5263671875 190.087890625 5.9833984375 c 4
190.087890625 192.581054688 m 4
 195.599609375 187.038085938 195.599609375 178.416992188 190.087890625 173.489257812 c 6
 22.884765625 5.9833984375 l 6
 17.373046875 0.4423828125 8.798828125 0.4423828125 3.8984375 5.9833984375 c 4
 -1.61328125 11.5263671875 -1.61328125 20.1474609375 3.8984375 25.0751953125 c 6
 170.48828125 192.581054688 l 6
 176 198.122070312 184.576171875 198.122070312 190.087890625 192.581054688 c 4
EndSplineSet
EndChar

StartChar: uni009B
Encoding: 155 155 155
Width: 251
VWidth: 94
Flags: W
LayerCount: 2
Fore
SplineSet
190.087890625 5.9833984375 m 4
 184.576171875 0.4423828125 176 0.4423828125 171.1015625 5.9833984375 c 6
 3.8984375 173.489257812 l 6
 -1.61328125 179.032226562 -1.61328125 187.653320312 3.8984375 192.581054688 c 4
 9.41015625 198.122070312 17.986328125 198.122070312 22.884765625 192.581054688 c 6
 190.087890625 25.0751953125 l 6
 194.986328125 20.1474609375 194.986328125 11.5263671875 190.087890625 5.9833984375 c 4
190.087890625 192.581054688 m 4
 195.599609375 187.038085938 195.599609375 178.416992188 190.087890625 173.489257812 c 6
 22.884765625 5.9833984375 l 6
 17.373046875 0.4423828125 8.798828125 0.4423828125 3.8984375 5.9833984375 c 4
 -1.61328125 11.5263671875 -1.61328125 20.1474609375 3.8984375 25.0751953125 c 6
 170.48828125 192.581054688 l 6
 176 198.122070312 184.576171875 198.122070312 190.087890625 192.581054688 c 4
EndSplineSet
EndChar

StartChar: uni009C
Encoding: 156 156 156
Width: 251
VWidth: 94
Flags: W
LayerCount: 2
Fore
SplineSet
190.087890625 5.9833984375 m 4
 184.576171875 0.4423828125 176 0.4423828125 171.1015625 5.9833984375 c 6
 3.8984375 173.489257812 l 6
 -1.61328125 179.032226562 -1.61328125 187.653320312 3.8984375 192.581054688 c 4
 9.41015625 198.122070312 17.986328125 198.122070312 22.884765625 192.581054688 c 6
 190.087890625 25.0751953125 l 6
 194.986328125 20.1474609375 194.986328125 11.5263671875 190.087890625 5.9833984375 c 4
190.087890625 192.581054688 m 4
 195.599609375 187.038085938 195.599609375 178.416992188 190.087890625 173.489257812 c 6
 22.884765625 5.9833984375 l 6
 17.373046875 0.4423828125 8.798828125 0.4423828125 3.8984375 5.9833984375 c 4
 -1.61328125 11.5263671875 -1.61328125 20.1474609375 3.8984375 25.0751953125 c 6
 170.48828125 192.581054688 l 6
 176 198.122070312 184.576171875 198.122070312 190.087890625 192.581054688 c 4
EndSplineSet
EndChar

StartChar: uni009D
Encoding: 157 157 157
Width: 251
VWidth: 94
Flags: W
LayerCount: 2
Fore
SplineSet
190.087890625 5.9833984375 m 4
 184.576171875 0.4423828125 176 0.4423828125 171.1015625 5.9833984375 c 6
 3.8984375 173.489257812 l 6
 -1.61328125 179.032226562 -1.61328125 187.653320312 3.8984375 192.581054688 c 4
 9.41015625 198.122070312 17.986328125 198.122070312 22.884765625 192.581054688 c 6
 190.087890625 25.0751953125 l 6
 194.986328125 20.1474609375 194.986328125 11.5263671875 190.087890625 5.9833984375 c 4
190.087890625 192.581054688 m 4
 195.599609375 187.038085938 195.599609375 178.416992188 190.087890625 173.489257812 c 6
 22.884765625 5.9833984375 l 6
 17.373046875 0.4423828125 8.798828125 0.4423828125 3.8984375 5.9833984375 c 4
 -1.61328125 11.5263671875 -1.61328125 20.1474609375 3.8984375 25.0751953125 c 6
 170.48828125 192.581054688 l 6
 176 198.122070312 184.576171875 198.122070312 190.087890625 192.581054688 c 4
EndSplineSet
EndChar

StartChar: uni009E
Encoding: 158 158 158
Width: 251
VWidth: 94
Flags: W
LayerCount: 2
Fore
SplineSet
190.087890625 5.9833984375 m 4
 184.576171875 0.4423828125 176 0.4423828125 171.1015625 5.9833984375 c 6
 3.8984375 173.489257812 l 6
 -1.61328125 179.032226562 -1.61328125 187.653320312 3.8984375 192.581054688 c 4
 9.41015625 198.122070312 17.986328125 198.122070312 22.884765625 192.581054688 c 6
 190.087890625 25.0751953125 l 6
 194.986328125 20.1474609375 194.986328125 11.5263671875 190.087890625 5.9833984375 c 4
190.087890625 192.581054688 m 4
 195.599609375 187.038085938 195.599609375 178.416992188 190.087890625 173.489257812 c 6
 22.884765625 5.9833984375 l 6
 17.373046875 0.4423828125 8.798828125 0.4423828125 3.8984375 5.9833984375 c 4
 -1.61328125 11.5263671875 -1.61328125 20.1474609375 3.8984375 25.0751953125 c 6
 170.48828125 192.581054688 l 6
 176 198.122070312 184.576171875 198.122070312 190.087890625 192.581054688 c 4
EndSplineSet
EndChar

StartChar: uni009F
Encoding: 159 159 159
Width: 251
VWidth: 94
Flags: W
LayerCount: 2
Fore
SplineSet
190.087890625 5.9833984375 m 4
 184.576171875 0.4423828125 176 0.4423828125 171.1015625 5.9833984375 c 6
 3.8984375 173.489257812 l 6
 -1.61328125 179.032226562 -1.61328125 187.653320312 3.8984375 192.581054688 c 4
 9.41015625 198.122070312 17.986328125 198.122070312 22.884765625 192.581054688 c 6
 190.087890625 25.0751953125 l 6
 194.986328125 20.1474609375 194.986328125 11.5263671875 190.087890625 5.9833984375 c 4
190.087890625 192.581054688 m 4
 195.599609375 187.038085938 195.599609375 178.416992188 190.087890625 173.489257812 c 6
 22.884765625 5.9833984375 l 6
 17.373046875 0.4423828125 8.798828125 0.4423828125 3.8984375 5.9833984375 c 4
 -1.61328125 11.5263671875 -1.61328125 20.1474609375 3.8984375 25.0751953125 c 6
 170.48828125 192.581054688 l 6
 176 198.122070312 184.576171875 198.122070312 190.087890625 192.581054688 c 4
EndSplineSet
EndChar

StartChar: uni00A0
Encoding: 160 160 160
Width: 251
VWidth: 94
Flags: W
LayerCount: 2
Fore
SplineSet
190.087890625 5.9833984375 m 4
 184.576171875 0.4423828125 176 0.4423828125 171.1015625 5.9833984375 c 6
 3.8984375 173.489257812 l 6
 -1.61328125 179.032226562 -1.61328125 187.653320312 3.8984375 192.581054688 c 4
 9.41015625 198.122070312 17.986328125 198.122070312 22.884765625 192.581054688 c 6
 190.087890625 25.0751953125 l 6
 194.986328125 20.1474609375 194.986328125 11.5263671875 190.087890625 5.9833984375 c 4
190.087890625 192.581054688 m 4
 195.599609375 187.038085938 195.599609375 178.416992188 190.087890625 173.489257812 c 6
 22.884765625 5.9833984375 l 6
 17.373046875 0.4423828125 8.798828125 0.4423828125 3.8984375 5.9833984375 c 4
 -1.61328125 11.5263671875 -1.61328125 20.1474609375 3.8984375 25.0751953125 c 6
 170.48828125 192.581054688 l 6
 176 198.122070312 184.576171875 198.122070312 190.087890625 192.581054688 c 4
EndSplineSet
EndChar

StartChar: exclamdown
Encoding: 161 161 161
Width: 251
VWidth: 94
Flags: W
LayerCount: 2
Fore
SplineSet
190.087890625 5.9833984375 m 4
 184.576171875 0.4423828125 176 0.4423828125 171.1015625 5.9833984375 c 6
 3.8984375 173.489257812 l 6
 -1.61328125 179.032226562 -1.61328125 187.653320312 3.8984375 192.581054688 c 4
 9.41015625 198.122070312 17.986328125 198.122070312 22.884765625 192.581054688 c 6
 190.087890625 25.0751953125 l 6
 194.986328125 20.1474609375 194.986328125 11.5263671875 190.087890625 5.9833984375 c 4
190.087890625 192.581054688 m 4
 195.599609375 187.038085938 195.599609375 178.416992188 190.087890625 173.489257812 c 6
 22.884765625 5.9833984375 l 6
 17.373046875 0.4423828125 8.798828125 0.4423828125 3.8984375 5.9833984375 c 4
 -1.61328125 11.5263671875 -1.61328125 20.1474609375 3.8984375 25.0751953125 c 6
 170.48828125 192.581054688 l 6
 176 198.122070312 184.576171875 198.122070312 190.087890625 192.581054688 c 4
EndSplineSet
EndChar

StartChar: cent
Encoding: 162 162 162
Width: 251
VWidth: 94
Flags: W
LayerCount: 2
Fore
SplineSet
190.087890625 5.9833984375 m 4
 184.576171875 0.4423828125 176 0.4423828125 171.1015625 5.9833984375 c 6
 3.8984375 173.489257812 l 6
 -1.61328125 179.032226562 -1.61328125 187.653320312 3.8984375 192.581054688 c 4
 9.41015625 198.122070312 17.986328125 198.122070312 22.884765625 192.581054688 c 6
 190.087890625 25.0751953125 l 6
 194.986328125 20.1474609375 194.986328125 11.5263671875 190.087890625 5.9833984375 c 4
190.087890625 192.581054688 m 4
 195.599609375 187.038085938 195.599609375 178.416992188 190.087890625 173.489257812 c 6
 22.884765625 5.9833984375 l 6
 17.373046875 0.4423828125 8.798828125 0.4423828125 3.8984375 5.9833984375 c 4
 -1.61328125 11.5263671875 -1.61328125 20.1474609375 3.8984375 25.0751953125 c 6
 170.48828125 192.581054688 l 6
 176 198.122070312 184.576171875 198.122070312 190.087890625 192.581054688 c 4
EndSplineSet
EndChar

StartChar: sterling
Encoding: 163 163 163
Width: 251
VWidth: 94
Flags: W
LayerCount: 2
Fore
SplineSet
190.087890625 5.9833984375 m 4
 184.576171875 0.4423828125 176 0.4423828125 171.1015625 5.9833984375 c 6
 3.8984375 173.489257812 l 6
 -1.61328125 179.032226562 -1.61328125 187.653320312 3.8984375 192.581054688 c 4
 9.41015625 198.122070312 17.986328125 198.122070312 22.884765625 192.581054688 c 6
 190.087890625 25.0751953125 l 6
 194.986328125 20.1474609375 194.986328125 11.5263671875 190.087890625 5.9833984375 c 4
190.087890625 192.581054688 m 4
 195.599609375 187.038085938 195.599609375 178.416992188 190.087890625 173.489257812 c 6
 22.884765625 5.9833984375 l 6
 17.373046875 0.4423828125 8.798828125 0.4423828125 3.8984375 5.9833984375 c 4
 -1.61328125 11.5263671875 -1.61328125 20.1474609375 3.8984375 25.0751953125 c 6
 170.48828125 192.581054688 l 6
 176 198.122070312 184.576171875 198.122070312 190.087890625 192.581054688 c 4
EndSplineSet
EndChar

StartChar: currency
Encoding: 164 164 164
Width: 251
VWidth: 94
Flags: W
LayerCount: 2
Fore
SplineSet
190.087890625 5.9833984375 m 4
 184.576171875 0.4423828125 176 0.4423828125 171.1015625 5.9833984375 c 6
 3.8984375 173.489257812 l 6
 -1.61328125 179.032226562 -1.61328125 187.653320312 3.8984375 192.581054688 c 4
 9.41015625 198.122070312 17.986328125 198.122070312 22.884765625 192.581054688 c 6
 190.087890625 25.0751953125 l 6
 194.986328125 20.1474609375 194.986328125 11.5263671875 190.087890625 5.9833984375 c 4
190.087890625 192.581054688 m 4
 195.599609375 187.038085938 195.599609375 178.416992188 190.087890625 173.489257812 c 6
 22.884765625 5.9833984375 l 6
 17.373046875 0.4423828125 8.798828125 0.4423828125 3.8984375 5.9833984375 c 4
 -1.61328125 11.5263671875 -1.61328125 20.1474609375 3.8984375 25.0751953125 c 6
 170.48828125 192.581054688 l 6
 176 198.122070312 184.576171875 198.122070312 190.087890625 192.581054688 c 4
EndSplineSet
EndChar

StartChar: yen
Encoding: 165 165 165
Width: 251
VWidth: 94
Flags: W
LayerCount: 2
Fore
SplineSet
190.087890625 5.9833984375 m 4
 184.576171875 0.4423828125 176 0.4423828125 171.1015625 5.9833984375 c 6
 3.8984375 173.489257812 l 6
 -1.61328125 179.032226562 -1.61328125 187.653320312 3.8984375 192.581054688 c 4
 9.41015625 198.122070312 17.986328125 198.122070312 22.884765625 192.581054688 c 6
 190.087890625 25.0751953125 l 6
 194.986328125 20.1474609375 194.986328125 11.5263671875 190.087890625 5.9833984375 c 4
190.087890625 192.581054688 m 4
 195.599609375 187.038085938 195.599609375 178.416992188 190.087890625 173.489257812 c 6
 22.884765625 5.9833984375 l 6
 17.373046875 0.4423828125 8.798828125 0.4423828125 3.8984375 5.9833984375 c 4
 -1.61328125 11.5263671875 -1.61328125 20.1474609375 3.8984375 25.0751953125 c 6
 170.48828125 192.581054688 l 6
 176 198.122070312 184.576171875 198.122070312 190.087890625 192.581054688 c 4
EndSplineSet
EndChar

StartChar: brokenbar
Encoding: 166 166 166
Width: 251
VWidth: 94
Flags: W
LayerCount: 2
Fore
SplineSet
190.087890625 5.9833984375 m 4
 184.576171875 0.4423828125 176 0.4423828125 171.1015625 5.9833984375 c 6
 3.8984375 173.489257812 l 6
 -1.61328125 179.032226562 -1.61328125 187.653320312 3.8984375 192.581054688 c 4
 9.41015625 198.122070312 17.986328125 198.122070312 22.884765625 192.581054688 c 6
 190.087890625 25.0751953125 l 6
 194.986328125 20.1474609375 194.986328125 11.5263671875 190.087890625 5.9833984375 c 4
190.087890625 192.581054688 m 4
 195.599609375 187.038085938 195.599609375 178.416992188 190.087890625 173.489257812 c 6
 22.884765625 5.9833984375 l 6
 17.373046875 0.4423828125 8.798828125 0.4423828125 3.8984375 5.9833984375 c 4
 -1.61328125 11.5263671875 -1.61328125 20.1474609375 3.8984375 25.0751953125 c 6
 170.48828125 192.581054688 l 6
 176 198.122070312 184.576171875 198.122070312 190.087890625 192.581054688 c 4
EndSplineSet
EndChar

StartChar: section
Encoding: 167 167 167
Width: 251
VWidth: 94
Flags: W
LayerCount: 2
Fore
SplineSet
190.087890625 5.9833984375 m 4
 184.576171875 0.4423828125 176 0.4423828125 171.1015625 5.9833984375 c 6
 3.8984375 173.489257812 l 6
 -1.61328125 179.032226562 -1.61328125 187.653320312 3.8984375 192.581054688 c 4
 9.41015625 198.122070312 17.986328125 198.122070312 22.884765625 192.581054688 c 6
 190.087890625 25.0751953125 l 6
 194.986328125 20.1474609375 194.986328125 11.5263671875 190.087890625 5.9833984375 c 4
190.087890625 192.581054688 m 4
 195.599609375 187.038085938 195.599609375 178.416992188 190.087890625 173.489257812 c 6
 22.884765625 5.9833984375 l 6
 17.373046875 0.4423828125 8.798828125 0.4423828125 3.8984375 5.9833984375 c 4
 -1.61328125 11.5263671875 -1.61328125 20.1474609375 3.8984375 25.0751953125 c 6
 170.48828125 192.581054688 l 6
 176 198.122070312 184.576171875 198.122070312 190.087890625 192.581054688 c 4
EndSplineSet
EndChar

StartChar: dieresis
Encoding: 168 168 168
Width: 251
VWidth: 94
Flags: W
LayerCount: 2
Fore
SplineSet
190.087890625 5.9833984375 m 4
 184.576171875 0.4423828125 176 0.4423828125 171.1015625 5.9833984375 c 6
 3.8984375 173.489257812 l 6
 -1.61328125 179.032226562 -1.61328125 187.653320312 3.8984375 192.581054688 c 4
 9.41015625 198.122070312 17.986328125 198.122070312 22.884765625 192.581054688 c 6
 190.087890625 25.0751953125 l 6
 194.986328125 20.1474609375 194.986328125 11.5263671875 190.087890625 5.9833984375 c 4
190.087890625 192.581054688 m 4
 195.599609375 187.038085938 195.599609375 178.416992188 190.087890625 173.489257812 c 6
 22.884765625 5.9833984375 l 6
 17.373046875 0.4423828125 8.798828125 0.4423828125 3.8984375 5.9833984375 c 4
 -1.61328125 11.5263671875 -1.61328125 20.1474609375 3.8984375 25.0751953125 c 6
 170.48828125 192.581054688 l 6
 176 198.122070312 184.576171875 198.122070312 190.087890625 192.581054688 c 4
EndSplineSet
EndChar

StartChar: copyright
Encoding: 169 169 169
Width: 251
VWidth: 94
Flags: W
LayerCount: 2
Fore
SplineSet
190.087890625 5.9833984375 m 4
 184.576171875 0.4423828125 176 0.4423828125 171.1015625 5.9833984375 c 6
 3.8984375 173.489257812 l 6
 -1.61328125 179.032226562 -1.61328125 187.653320312 3.8984375 192.581054688 c 4
 9.41015625 198.122070312 17.986328125 198.122070312 22.884765625 192.581054688 c 6
 190.087890625 25.0751953125 l 6
 194.986328125 20.1474609375 194.986328125 11.5263671875 190.087890625 5.9833984375 c 4
190.087890625 192.581054688 m 4
 195.599609375 187.038085938 195.599609375 178.416992188 190.087890625 173.489257812 c 6
 22.884765625 5.9833984375 l 6
 17.373046875 0.4423828125 8.798828125 0.4423828125 3.8984375 5.9833984375 c 4
 -1.61328125 11.5263671875 -1.61328125 20.1474609375 3.8984375 25.0751953125 c 6
 170.48828125 192.581054688 l 6
 176 198.122070312 184.576171875 198.122070312 190.087890625 192.581054688 c 4
EndSplineSet
EndChar

StartChar: ordfeminine
Encoding: 170 170 170
Width: 251
VWidth: 94
Flags: W
LayerCount: 2
Fore
SplineSet
190.087890625 5.9833984375 m 4
 184.576171875 0.4423828125 176 0.4423828125 171.1015625 5.9833984375 c 6
 3.8984375 173.489257812 l 6
 -1.61328125 179.032226562 -1.61328125 187.653320312 3.8984375 192.581054688 c 4
 9.41015625 198.122070312 17.986328125 198.122070312 22.884765625 192.581054688 c 6
 190.087890625 25.0751953125 l 6
 194.986328125 20.1474609375 194.986328125 11.5263671875 190.087890625 5.9833984375 c 4
190.087890625 192.581054688 m 4
 195.599609375 187.038085938 195.599609375 178.416992188 190.087890625 173.489257812 c 6
 22.884765625 5.9833984375 l 6
 17.373046875 0.4423828125 8.798828125 0.4423828125 3.8984375 5.9833984375 c 4
 -1.61328125 11.5263671875 -1.61328125 20.1474609375 3.8984375 25.0751953125 c 6
 170.48828125 192.581054688 l 6
 176 198.122070312 184.576171875 198.122070312 190.087890625 192.581054688 c 4
EndSplineSet
EndChar

StartChar: guillemotleft
Encoding: 171 171 171
Width: 251
VWidth: 94
Flags: W
LayerCount: 2
Fore
SplineSet
190.087890625 5.9833984375 m 4
 184.576171875 0.4423828125 176 0.4423828125 171.1015625 5.9833984375 c 6
 3.8984375 173.489257812 l 6
 -1.61328125 179.032226562 -1.61328125 187.653320312 3.8984375 192.581054688 c 4
 9.41015625 198.122070312 17.986328125 198.122070312 22.884765625 192.581054688 c 6
 190.087890625 25.0751953125 l 6
 194.986328125 20.1474609375 194.986328125 11.5263671875 190.087890625 5.9833984375 c 4
190.087890625 192.581054688 m 4
 195.599609375 187.038085938 195.599609375 178.416992188 190.087890625 173.489257812 c 6
 22.884765625 5.9833984375 l 6
 17.373046875 0.4423828125 8.798828125 0.4423828125 3.8984375 5.9833984375 c 4
 -1.61328125 11.5263671875 -1.61328125 20.1474609375 3.8984375 25.0751953125 c 6
 170.48828125 192.581054688 l 6
 176 198.122070312 184.576171875 198.122070312 190.087890625 192.581054688 c 4
EndSplineSet
EndChar

StartChar: logicalnot
Encoding: 172 172 172
Width: 251
VWidth: 94
Flags: W
LayerCount: 2
Fore
SplineSet
190.087890625 5.9833984375 m 4
 184.576171875 0.4423828125 176 0.4423828125 171.1015625 5.9833984375 c 6
 3.8984375 173.489257812 l 6
 -1.61328125 179.032226562 -1.61328125 187.653320312 3.8984375 192.581054688 c 4
 9.41015625 198.122070312 17.986328125 198.122070312 22.884765625 192.581054688 c 6
 190.087890625 25.0751953125 l 6
 194.986328125 20.1474609375 194.986328125 11.5263671875 190.087890625 5.9833984375 c 4
190.087890625 192.581054688 m 4
 195.599609375 187.038085938 195.599609375 178.416992188 190.087890625 173.489257812 c 6
 22.884765625 5.9833984375 l 6
 17.373046875 0.4423828125 8.798828125 0.4423828125 3.8984375 5.9833984375 c 4
 -1.61328125 11.5263671875 -1.61328125 20.1474609375 3.8984375 25.0751953125 c 6
 170.48828125 192.581054688 l 6
 176 198.122070312 184.576171875 198.122070312 190.087890625 192.581054688 c 4
EndSplineSet
EndChar

StartChar: uni00AD
Encoding: 173 173 173
Width: 251
VWidth: 94
Flags: W
LayerCount: 2
Fore
SplineSet
190.087890625 5.9833984375 m 4
 184.576171875 0.4423828125 176 0.4423828125 171.1015625 5.9833984375 c 6
 3.8984375 173.489257812 l 6
 -1.61328125 179.032226562 -1.61328125 187.653320312 3.8984375 192.581054688 c 4
 9.41015625 198.122070312 17.986328125 198.122070312 22.884765625 192.581054688 c 6
 190.087890625 25.0751953125 l 6
 194.986328125 20.1474609375 194.986328125 11.5263671875 190.087890625 5.9833984375 c 4
190.087890625 192.581054688 m 4
 195.599609375 187.038085938 195.599609375 178.416992188 190.087890625 173.489257812 c 6
 22.884765625 5.9833984375 l 6
 17.373046875 0.4423828125 8.798828125 0.4423828125 3.8984375 5.9833984375 c 4
 -1.61328125 11.5263671875 -1.61328125 20.1474609375 3.8984375 25.0751953125 c 6
 170.48828125 192.581054688 l 6
 176 198.122070312 184.576171875 198.122070312 190.087890625 192.581054688 c 4
EndSplineSet
EndChar

StartChar: registered
Encoding: 174 174 174
Width: 251
VWidth: 94
Flags: W
LayerCount: 2
Fore
SplineSet
190.087890625 5.9833984375 m 4
 184.576171875 0.4423828125 176 0.4423828125 171.1015625 5.9833984375 c 6
 3.8984375 173.489257812 l 6
 -1.61328125 179.032226562 -1.61328125 187.653320312 3.8984375 192.581054688 c 4
 9.41015625 198.122070312 17.986328125 198.122070312 22.884765625 192.581054688 c 6
 190.087890625 25.0751953125 l 6
 194.986328125 20.1474609375 194.986328125 11.5263671875 190.087890625 5.9833984375 c 4
190.087890625 192.581054688 m 4
 195.599609375 187.038085938 195.599609375 178.416992188 190.087890625 173.489257812 c 6
 22.884765625 5.9833984375 l 6
 17.373046875 0.4423828125 8.798828125 0.4423828125 3.8984375 5.9833984375 c 4
 -1.61328125 11.5263671875 -1.61328125 20.1474609375 3.8984375 25.0751953125 c 6
 170.48828125 192.581054688 l 6
 176 198.122070312 184.576171875 198.122070312 190.087890625 192.581054688 c 4
EndSplineSet
EndChar

StartChar: macron
Encoding: 175 175 175
Width: 251
VWidth: 94
Flags: W
LayerCount: 2
Fore
SplineSet
190.087890625 5.9833984375 m 4
 184.576171875 0.4423828125 176 0.4423828125 171.1015625 5.9833984375 c 6
 3.8984375 173.489257812 l 6
 -1.61328125 179.032226562 -1.61328125 187.653320312 3.8984375 192.581054688 c 4
 9.41015625 198.122070312 17.986328125 198.122070312 22.884765625 192.581054688 c 6
 190.087890625 25.0751953125 l 6
 194.986328125 20.1474609375 194.986328125 11.5263671875 190.087890625 5.9833984375 c 4
190.087890625 192.581054688 m 4
 195.599609375 187.038085938 195.599609375 178.416992188 190.087890625 173.489257812 c 6
 22.884765625 5.9833984375 l 6
 17.373046875 0.4423828125 8.798828125 0.4423828125 3.8984375 5.9833984375 c 4
 -1.61328125 11.5263671875 -1.61328125 20.1474609375 3.8984375 25.0751953125 c 6
 170.48828125 192.581054688 l 6
 176 198.122070312 184.576171875 198.122070312 190.087890625 192.581054688 c 4
EndSplineSet
EndChar

StartChar: degree
Encoding: 176 176 176
Width: 251
VWidth: 94
Flags: W
LayerCount: 2
Fore
SplineSet
190.087890625 5.9833984375 m 4
 184.576171875 0.4423828125 176 0.4423828125 171.1015625 5.9833984375 c 6
 3.8984375 173.489257812 l 6
 -1.61328125 179.032226562 -1.61328125 187.653320312 3.8984375 192.581054688 c 4
 9.41015625 198.122070312 17.986328125 198.122070312 22.884765625 192.581054688 c 6
 190.087890625 25.0751953125 l 6
 194.986328125 20.1474609375 194.986328125 11.5263671875 190.087890625 5.9833984375 c 4
190.087890625 192.581054688 m 4
 195.599609375 187.038085938 195.599609375 178.416992188 190.087890625 173.489257812 c 6
 22.884765625 5.9833984375 l 6
 17.373046875 0.4423828125 8.798828125 0.4423828125 3.8984375 5.9833984375 c 4
 -1.61328125 11.5263671875 -1.61328125 20.1474609375 3.8984375 25.0751953125 c 6
 170.48828125 192.581054688 l 6
 176 198.122070312 184.576171875 198.122070312 190.087890625 192.581054688 c 4
EndSplineSet
EndChar

StartChar: plusminus
Encoding: 177 177 177
Width: 251
VWidth: 94
Flags: W
LayerCount: 2
Fore
SplineSet
190.087890625 5.9833984375 m 4
 184.576171875 0.4423828125 176 0.4423828125 171.1015625 5.9833984375 c 6
 3.8984375 173.489257812 l 6
 -1.61328125 179.032226562 -1.61328125 187.653320312 3.8984375 192.581054688 c 4
 9.41015625 198.122070312 17.986328125 198.122070312 22.884765625 192.581054688 c 6
 190.087890625 25.0751953125 l 6
 194.986328125 20.1474609375 194.986328125 11.5263671875 190.087890625 5.9833984375 c 4
190.087890625 192.581054688 m 4
 195.599609375 187.038085938 195.599609375 178.416992188 190.087890625 173.489257812 c 6
 22.884765625 5.9833984375 l 6
 17.373046875 0.4423828125 8.798828125 0.4423828125 3.8984375 5.9833984375 c 4
 -1.61328125 11.5263671875 -1.61328125 20.1474609375 3.8984375 25.0751953125 c 6
 170.48828125 192.581054688 l 6
 176 198.122070312 184.576171875 198.122070312 190.087890625 192.581054688 c 4
EndSplineSet
EndChar

StartChar: uni00B2
Encoding: 178 178 178
Width: 251
VWidth: 94
Flags: W
LayerCount: 2
Fore
SplineSet
190.087890625 5.9833984375 m 4
 184.576171875 0.4423828125 176 0.4423828125 171.1015625 5.9833984375 c 6
 3.8984375 173.489257812 l 6
 -1.61328125 179.032226562 -1.61328125 187.653320312 3.8984375 192.581054688 c 4
 9.41015625 198.122070312 17.986328125 198.122070312 22.884765625 192.581054688 c 6
 190.087890625 25.0751953125 l 6
 194.986328125 20.1474609375 194.986328125 11.5263671875 190.087890625 5.9833984375 c 4
190.087890625 192.581054688 m 4
 195.599609375 187.038085938 195.599609375 178.416992188 190.087890625 173.489257812 c 6
 22.884765625 5.9833984375 l 6
 17.373046875 0.4423828125 8.798828125 0.4423828125 3.8984375 5.9833984375 c 4
 -1.61328125 11.5263671875 -1.61328125 20.1474609375 3.8984375 25.0751953125 c 6
 170.48828125 192.581054688 l 6
 176 198.122070312 184.576171875 198.122070312 190.087890625 192.581054688 c 4
EndSplineSet
EndChar

StartChar: uni00B3
Encoding: 179 179 179
Width: 251
VWidth: 94
Flags: W
LayerCount: 2
Fore
SplineSet
190.087890625 5.9833984375 m 4
 184.576171875 0.4423828125 176 0.4423828125 171.1015625 5.9833984375 c 6
 3.8984375 173.489257812 l 6
 -1.61328125 179.032226562 -1.61328125 187.653320312 3.8984375 192.581054688 c 4
 9.41015625 198.122070312 17.986328125 198.122070312 22.884765625 192.581054688 c 6
 190.087890625 25.0751953125 l 6
 194.986328125 20.1474609375 194.986328125 11.5263671875 190.087890625 5.9833984375 c 4
190.087890625 192.581054688 m 4
 195.599609375 187.038085938 195.599609375 178.416992188 190.087890625 173.489257812 c 6
 22.884765625 5.9833984375 l 6
 17.373046875 0.4423828125 8.798828125 0.4423828125 3.8984375 5.9833984375 c 4
 -1.61328125 11.5263671875 -1.61328125 20.1474609375 3.8984375 25.0751953125 c 6
 170.48828125 192.581054688 l 6
 176 198.122070312 184.576171875 198.122070312 190.087890625 192.581054688 c 4
EndSplineSet
EndChar

StartChar: acute
Encoding: 180 180 180
Width: 251
VWidth: 94
Flags: W
LayerCount: 2
Fore
SplineSet
190.087890625 5.9833984375 m 4
 184.576171875 0.4423828125 176 0.4423828125 171.1015625 5.9833984375 c 6
 3.8984375 173.489257812 l 6
 -1.61328125 179.032226562 -1.61328125 187.653320312 3.8984375 192.581054688 c 4
 9.41015625 198.122070312 17.986328125 198.122070312 22.884765625 192.581054688 c 6
 190.087890625 25.0751953125 l 6
 194.986328125 20.1474609375 194.986328125 11.5263671875 190.087890625 5.9833984375 c 4
190.087890625 192.581054688 m 4
 195.599609375 187.038085938 195.599609375 178.416992188 190.087890625 173.489257812 c 6
 22.884765625 5.9833984375 l 6
 17.373046875 0.4423828125 8.798828125 0.4423828125 3.8984375 5.9833984375 c 4
 -1.61328125 11.5263671875 -1.61328125 20.1474609375 3.8984375 25.0751953125 c 6
 170.48828125 192.581054688 l 6
 176 198.122070312 184.576171875 198.122070312 190.087890625 192.581054688 c 4
EndSplineSet
EndChar

StartChar: mu
Encoding: 181 181 181
Width: 251
VWidth: 94
Flags: W
LayerCount: 2
Fore
SplineSet
190.087890625 5.9833984375 m 4
 184.576171875 0.4423828125 176 0.4423828125 171.1015625 5.9833984375 c 6
 3.8984375 173.489257812 l 6
 -1.61328125 179.032226562 -1.61328125 187.653320312 3.8984375 192.581054688 c 4
 9.41015625 198.122070312 17.986328125 198.122070312 22.884765625 192.581054688 c 6
 190.087890625 25.0751953125 l 6
 194.986328125 20.1474609375 194.986328125 11.5263671875 190.087890625 5.9833984375 c 4
190.087890625 192.581054688 m 4
 195.599609375 187.038085938 195.599609375 178.416992188 190.087890625 173.489257812 c 6
 22.884765625 5.9833984375 l 6
 17.373046875 0.4423828125 8.798828125 0.4423828125 3.8984375 5.9833984375 c 4
 -1.61328125 11.5263671875 -1.61328125 20.1474609375 3.8984375 25.0751953125 c 6
 170.48828125 192.581054688 l 6
 176 198.122070312 184.576171875 198.122070312 190.087890625 192.581054688 c 4
EndSplineSet
EndChar

StartChar: paragraph
Encoding: 182 182 182
Width: 251
VWidth: 94
Flags: W
LayerCount: 2
Fore
SplineSet
190.087890625 5.9833984375 m 4
 184.576171875 0.4423828125 176 0.4423828125 171.1015625 5.9833984375 c 6
 3.8984375 173.489257812 l 6
 -1.61328125 179.032226562 -1.61328125 187.653320312 3.8984375 192.581054688 c 4
 9.41015625 198.122070312 17.986328125 198.122070312 22.884765625 192.581054688 c 6
 190.087890625 25.0751953125 l 6
 194.986328125 20.1474609375 194.986328125 11.5263671875 190.087890625 5.9833984375 c 4
190.087890625 192.581054688 m 4
 195.599609375 187.038085938 195.599609375 178.416992188 190.087890625 173.489257812 c 6
 22.884765625 5.9833984375 l 6
 17.373046875 0.4423828125 8.798828125 0.4423828125 3.8984375 5.9833984375 c 4
 -1.61328125 11.5263671875 -1.61328125 20.1474609375 3.8984375 25.0751953125 c 6
 170.48828125 192.581054688 l 6
 176 198.122070312 184.576171875 198.122070312 190.087890625 192.581054688 c 4
EndSplineSet
EndChar

StartChar: periodcentered
Encoding: 183 183 183
Width: 251
VWidth: 94
Flags: W
LayerCount: 2
Fore
SplineSet
190.087890625 5.9833984375 m 4
 184.576171875 0.4423828125 176 0.4423828125 171.1015625 5.9833984375 c 6
 3.8984375 173.489257812 l 6
 -1.61328125 179.032226562 -1.61328125 187.653320312 3.8984375 192.581054688 c 4
 9.41015625 198.122070312 17.986328125 198.122070312 22.884765625 192.581054688 c 6
 190.087890625 25.0751953125 l 6
 194.986328125 20.1474609375 194.986328125 11.5263671875 190.087890625 5.9833984375 c 4
190.087890625 192.581054688 m 4
 195.599609375 187.038085938 195.599609375 178.416992188 190.087890625 173.489257812 c 6
 22.884765625 5.9833984375 l 6
 17.373046875 0.4423828125 8.798828125 0.4423828125 3.8984375 5.9833984375 c 4
 -1.61328125 11.5263671875 -1.61328125 20.1474609375 3.8984375 25.0751953125 c 6
 170.48828125 192.581054688 l 6
 176 198.122070312 184.576171875 198.122070312 190.087890625 192.581054688 c 4
EndSplineSet
EndChar

StartChar: cedilla
Encoding: 184 184 184
Width: 251
VWidth: 94
Flags: W
LayerCount: 2
Fore
SplineSet
190.087890625 5.9833984375 m 4
 184.576171875 0.4423828125 176 0.4423828125 171.1015625 5.9833984375 c 6
 3.8984375 173.489257812 l 6
 -1.61328125 179.032226562 -1.61328125 187.653320312 3.8984375 192.581054688 c 4
 9.41015625 198.122070312 17.986328125 198.122070312 22.884765625 192.581054688 c 6
 190.087890625 25.0751953125 l 6
 194.986328125 20.1474609375 194.986328125 11.5263671875 190.087890625 5.9833984375 c 4
190.087890625 192.581054688 m 4
 195.599609375 187.038085938 195.599609375 178.416992188 190.087890625 173.489257812 c 6
 22.884765625 5.9833984375 l 6
 17.373046875 0.4423828125 8.798828125 0.4423828125 3.8984375 5.9833984375 c 4
 -1.61328125 11.5263671875 -1.61328125 20.1474609375 3.8984375 25.0751953125 c 6
 170.48828125 192.581054688 l 6
 176 198.122070312 184.576171875 198.122070312 190.087890625 192.581054688 c 4
EndSplineSet
EndChar

StartChar: uni00B9
Encoding: 185 185 185
Width: 251
VWidth: 94
Flags: W
LayerCount: 2
Fore
SplineSet
190.087890625 5.9833984375 m 4
 184.576171875 0.4423828125 176 0.4423828125 171.1015625 5.9833984375 c 6
 3.8984375 173.489257812 l 6
 -1.61328125 179.032226562 -1.61328125 187.653320312 3.8984375 192.581054688 c 4
 9.41015625 198.122070312 17.986328125 198.122070312 22.884765625 192.581054688 c 6
 190.087890625 25.0751953125 l 6
 194.986328125 20.1474609375 194.986328125 11.5263671875 190.087890625 5.9833984375 c 4
190.087890625 192.581054688 m 4
 195.599609375 187.038085938 195.599609375 178.416992188 190.087890625 173.489257812 c 6
 22.884765625 5.9833984375 l 6
 17.373046875 0.4423828125 8.798828125 0.4423828125 3.8984375 5.9833984375 c 4
 -1.61328125 11.5263671875 -1.61328125 20.1474609375 3.8984375 25.0751953125 c 6
 170.48828125 192.581054688 l 6
 176 198.122070312 184.576171875 198.122070312 190.087890625 192.581054688 c 4
EndSplineSet
EndChar

StartChar: ordmasculine
Encoding: 186 186 186
Width: 251
VWidth: 94
Flags: W
LayerCount: 2
Fore
SplineSet
190.087890625 5.9833984375 m 4
 184.576171875 0.4423828125 176 0.4423828125 171.1015625 5.9833984375 c 6
 3.8984375 173.489257812 l 6
 -1.61328125 179.032226562 -1.61328125 187.653320312 3.8984375 192.581054688 c 4
 9.41015625 198.122070312 17.986328125 198.122070312 22.884765625 192.581054688 c 6
 190.087890625 25.0751953125 l 6
 194.986328125 20.1474609375 194.986328125 11.5263671875 190.087890625 5.9833984375 c 4
190.087890625 192.581054688 m 4
 195.599609375 187.038085938 195.599609375 178.416992188 190.087890625 173.489257812 c 6
 22.884765625 5.9833984375 l 6
 17.373046875 0.4423828125 8.798828125 0.4423828125 3.8984375 5.9833984375 c 4
 -1.61328125 11.5263671875 -1.61328125 20.1474609375 3.8984375 25.0751953125 c 6
 170.48828125 192.581054688 l 6
 176 198.122070312 184.576171875 198.122070312 190.087890625 192.581054688 c 4
EndSplineSet
EndChar

StartChar: guillemotright
Encoding: 187 187 187
Width: 251
VWidth: 94
Flags: W
LayerCount: 2
Fore
SplineSet
190.087890625 5.9833984375 m 4
 184.576171875 0.4423828125 176 0.4423828125 171.1015625 5.9833984375 c 6
 3.8984375 173.489257812 l 6
 -1.61328125 179.032226562 -1.61328125 187.653320312 3.8984375 192.581054688 c 4
 9.41015625 198.122070312 17.986328125 198.122070312 22.884765625 192.581054688 c 6
 190.087890625 25.0751953125 l 6
 194.986328125 20.1474609375 194.986328125 11.5263671875 190.087890625 5.9833984375 c 4
190.087890625 192.581054688 m 4
 195.599609375 187.038085938 195.599609375 178.416992188 190.087890625 173.489257812 c 6
 22.884765625 5.9833984375 l 6
 17.373046875 0.4423828125 8.798828125 0.4423828125 3.8984375 5.9833984375 c 4
 -1.61328125 11.5263671875 -1.61328125 20.1474609375 3.8984375 25.0751953125 c 6
 170.48828125 192.581054688 l 6
 176 198.122070312 184.576171875 198.122070312 190.087890625 192.581054688 c 4
EndSplineSet
EndChar

StartChar: onequarter
Encoding: 188 188 188
Width: 251
VWidth: 94
Flags: W
LayerCount: 2
Fore
SplineSet
190.087890625 5.9833984375 m 4
 184.576171875 0.4423828125 176 0.4423828125 171.1015625 5.9833984375 c 6
 3.8984375 173.489257812 l 6
 -1.61328125 179.032226562 -1.61328125 187.653320312 3.8984375 192.581054688 c 4
 9.41015625 198.122070312 17.986328125 198.122070312 22.884765625 192.581054688 c 6
 190.087890625 25.0751953125 l 6
 194.986328125 20.1474609375 194.986328125 11.5263671875 190.087890625 5.9833984375 c 4
190.087890625 192.581054688 m 4
 195.599609375 187.038085938 195.599609375 178.416992188 190.087890625 173.489257812 c 6
 22.884765625 5.9833984375 l 6
 17.373046875 0.4423828125 8.798828125 0.4423828125 3.8984375 5.9833984375 c 4
 -1.61328125 11.5263671875 -1.61328125 20.1474609375 3.8984375 25.0751953125 c 6
 170.48828125 192.581054688 l 6
 176 198.122070312 184.576171875 198.122070312 190.087890625 192.581054688 c 4
EndSplineSet
EndChar

StartChar: onehalf
Encoding: 189 189 189
Width: 251
VWidth: 94
Flags: W
LayerCount: 2
Fore
SplineSet
190.087890625 5.9833984375 m 4
 184.576171875 0.4423828125 176 0.4423828125 171.1015625 5.9833984375 c 6
 3.8984375 173.489257812 l 6
 -1.61328125 179.032226562 -1.61328125 187.653320312 3.8984375 192.581054688 c 4
 9.41015625 198.122070312 17.986328125 198.122070312 22.884765625 192.581054688 c 6
 190.087890625 25.0751953125 l 6
 194.986328125 20.1474609375 194.986328125 11.5263671875 190.087890625 5.9833984375 c 4
190.087890625 192.581054688 m 4
 195.599609375 187.038085938 195.599609375 178.416992188 190.087890625 173.489257812 c 6
 22.884765625 5.9833984375 l 6
 17.373046875 0.4423828125 8.798828125 0.4423828125 3.8984375 5.9833984375 c 4
 -1.61328125 11.5263671875 -1.61328125 20.1474609375 3.8984375 25.0751953125 c 6
 170.48828125 192.581054688 l 6
 176 198.122070312 184.576171875 198.122070312 190.087890625 192.581054688 c 4
EndSplineSet
EndChar

StartChar: threequarters
Encoding: 190 190 190
Width: 251
VWidth: 94
Flags: W
LayerCount: 2
Fore
SplineSet
190.087890625 5.9833984375 m 4
 184.576171875 0.4423828125 176 0.4423828125 171.1015625 5.9833984375 c 6
 3.8984375 173.489257812 l 6
 -1.61328125 179.032226562 -1.61328125 187.653320312 3.8984375 192.581054688 c 4
 9.41015625 198.122070312 17.986328125 198.122070312 22.884765625 192.581054688 c 6
 190.087890625 25.0751953125 l 6
 194.986328125 20.1474609375 194.986328125 11.5263671875 190.087890625 5.9833984375 c 4
190.087890625 192.581054688 m 4
 195.599609375 187.038085938 195.599609375 178.416992188 190.087890625 173.489257812 c 6
 22.884765625 5.9833984375 l 6
 17.373046875 0.4423828125 8.798828125 0.4423828125 3.8984375 5.9833984375 c 4
 -1.61328125 11.5263671875 -1.61328125 20.1474609375 3.8984375 25.0751953125 c 6
 170.48828125 192.581054688 l 6
 176 198.122070312 184.576171875 198.122070312 190.087890625 192.581054688 c 4
EndSplineSet
EndChar

StartChar: questiondown
Encoding: 191 191 191
Width: 251
VWidth: 94
Flags: W
LayerCount: 2
Fore
SplineSet
190.087890625 5.9833984375 m 4
 184.576171875 0.4423828125 176 0.4423828125 171.1015625 5.9833984375 c 6
 3.8984375 173.489257812 l 6
 -1.61328125 179.032226562 -1.61328125 187.653320312 3.8984375 192.581054688 c 4
 9.41015625 198.122070312 17.986328125 198.122070312 22.884765625 192.581054688 c 6
 190.087890625 25.0751953125 l 6
 194.986328125 20.1474609375 194.986328125 11.5263671875 190.087890625 5.9833984375 c 4
190.087890625 192.581054688 m 4
 195.599609375 187.038085938 195.599609375 178.416992188 190.087890625 173.489257812 c 6
 22.884765625 5.9833984375 l 6
 17.373046875 0.4423828125 8.798828125 0.4423828125 3.8984375 5.9833984375 c 4
 -1.61328125 11.5263671875 -1.61328125 20.1474609375 3.8984375 25.0751953125 c 6
 170.48828125 192.581054688 l 6
 176 198.122070312 184.576171875 198.122070312 190.087890625 192.581054688 c 4
EndSplineSet
EndChar

StartChar: Agrave
Encoding: 192 192 192
Width: 251
VWidth: 94
Flags: W
LayerCount: 2
Fore
SplineSet
190.087890625 5.9833984375 m 4
 184.576171875 0.4423828125 176 0.4423828125 171.1015625 5.9833984375 c 6
 3.8984375 173.489257812 l 6
 -1.61328125 179.032226562 -1.61328125 187.653320312 3.8984375 192.581054688 c 4
 9.41015625 198.122070312 17.986328125 198.122070312 22.884765625 192.581054688 c 6
 190.087890625 25.0751953125 l 6
 194.986328125 20.1474609375 194.986328125 11.5263671875 190.087890625 5.9833984375 c 4
190.087890625 192.581054688 m 4
 195.599609375 187.038085938 195.599609375 178.416992188 190.087890625 173.489257812 c 6
 22.884765625 5.9833984375 l 6
 17.373046875 0.4423828125 8.798828125 0.4423828125 3.8984375 5.9833984375 c 4
 -1.61328125 11.5263671875 -1.61328125 20.1474609375 3.8984375 25.0751953125 c 6
 170.48828125 192.581054688 l 6
 176 198.122070312 184.576171875 198.122070312 190.087890625 192.581054688 c 4
EndSplineSet
EndChar

StartChar: Aacute
Encoding: 193 193 193
Width: 251
VWidth: 94
Flags: W
LayerCount: 2
Fore
SplineSet
190.087890625 5.9833984375 m 4
 184.576171875 0.4423828125 176 0.4423828125 171.1015625 5.9833984375 c 6
 3.8984375 173.489257812 l 6
 -1.61328125 179.032226562 -1.61328125 187.653320312 3.8984375 192.581054688 c 4
 9.41015625 198.122070312 17.986328125 198.122070312 22.884765625 192.581054688 c 6
 190.087890625 25.0751953125 l 6
 194.986328125 20.1474609375 194.986328125 11.5263671875 190.087890625 5.9833984375 c 4
190.087890625 192.581054688 m 4
 195.599609375 187.038085938 195.599609375 178.416992188 190.087890625 173.489257812 c 6
 22.884765625 5.9833984375 l 6
 17.373046875 0.4423828125 8.798828125 0.4423828125 3.8984375 5.9833984375 c 4
 -1.61328125 11.5263671875 -1.61328125 20.1474609375 3.8984375 25.0751953125 c 6
 170.48828125 192.581054688 l 6
 176 198.122070312 184.576171875 198.122070312 190.087890625 192.581054688 c 4
EndSplineSet
EndChar

StartChar: Acircumflex
Encoding: 194 194 194
Width: 251
VWidth: 94
Flags: W
LayerCount: 2
Fore
SplineSet
190.087890625 5.9833984375 m 4
 184.576171875 0.4423828125 176 0.4423828125 171.1015625 5.9833984375 c 6
 3.8984375 173.489257812 l 6
 -1.61328125 179.032226562 -1.61328125 187.653320312 3.8984375 192.581054688 c 4
 9.41015625 198.122070312 17.986328125 198.122070312 22.884765625 192.581054688 c 6
 190.087890625 25.0751953125 l 6
 194.986328125 20.1474609375 194.986328125 11.5263671875 190.087890625 5.9833984375 c 4
190.087890625 192.581054688 m 4
 195.599609375 187.038085938 195.599609375 178.416992188 190.087890625 173.489257812 c 6
 22.884765625 5.9833984375 l 6
 17.373046875 0.4423828125 8.798828125 0.4423828125 3.8984375 5.9833984375 c 4
 -1.61328125 11.5263671875 -1.61328125 20.1474609375 3.8984375 25.0751953125 c 6
 170.48828125 192.581054688 l 6
 176 198.122070312 184.576171875 198.122070312 190.087890625 192.581054688 c 4
EndSplineSet
EndChar

StartChar: Atilde
Encoding: 195 195 195
Width: 251
VWidth: 94
Flags: W
LayerCount: 2
Fore
SplineSet
190.087890625 5.9833984375 m 4
 184.576171875 0.4423828125 176 0.4423828125 171.1015625 5.9833984375 c 6
 3.8984375 173.489257812 l 6
 -1.61328125 179.032226562 -1.61328125 187.653320312 3.8984375 192.581054688 c 4
 9.41015625 198.122070312 17.986328125 198.122070312 22.884765625 192.581054688 c 6
 190.087890625 25.0751953125 l 6
 194.986328125 20.1474609375 194.986328125 11.5263671875 190.087890625 5.9833984375 c 4
190.087890625 192.581054688 m 4
 195.599609375 187.038085938 195.599609375 178.416992188 190.087890625 173.489257812 c 6
 22.884765625 5.9833984375 l 6
 17.373046875 0.4423828125 8.798828125 0.4423828125 3.8984375 5.9833984375 c 4
 -1.61328125 11.5263671875 -1.61328125 20.1474609375 3.8984375 25.0751953125 c 6
 170.48828125 192.581054688 l 6
 176 198.122070312 184.576171875 198.122070312 190.087890625 192.581054688 c 4
EndSplineSet
EndChar

StartChar: Adieresis
Encoding: 196 196 196
Width: 251
VWidth: 94
Flags: W
LayerCount: 2
Fore
SplineSet
190.087890625 5.9833984375 m 4
 184.576171875 0.4423828125 176 0.4423828125 171.1015625 5.9833984375 c 6
 3.8984375 173.489257812 l 6
 -1.61328125 179.032226562 -1.61328125 187.653320312 3.8984375 192.581054688 c 4
 9.41015625 198.122070312 17.986328125 198.122070312 22.884765625 192.581054688 c 6
 190.087890625 25.0751953125 l 6
 194.986328125 20.1474609375 194.986328125 11.5263671875 190.087890625 5.9833984375 c 4
190.087890625 192.581054688 m 4
 195.599609375 187.038085938 195.599609375 178.416992188 190.087890625 173.489257812 c 6
 22.884765625 5.9833984375 l 6
 17.373046875 0.4423828125 8.798828125 0.4423828125 3.8984375 5.9833984375 c 4
 -1.61328125 11.5263671875 -1.61328125 20.1474609375 3.8984375 25.0751953125 c 6
 170.48828125 192.581054688 l 6
 176 198.122070312 184.576171875 198.122070312 190.087890625 192.581054688 c 4
EndSplineSet
EndChar

StartChar: Aring
Encoding: 197 197 197
Width: 251
VWidth: 94
Flags: W
LayerCount: 2
Fore
SplineSet
190.087890625 5.9833984375 m 4
 184.576171875 0.4423828125 176 0.4423828125 171.1015625 5.9833984375 c 6
 3.8984375 173.489257812 l 6
 -1.61328125 179.032226562 -1.61328125 187.653320312 3.8984375 192.581054688 c 4
 9.41015625 198.122070312 17.986328125 198.122070312 22.884765625 192.581054688 c 6
 190.087890625 25.0751953125 l 6
 194.986328125 20.1474609375 194.986328125 11.5263671875 190.087890625 5.9833984375 c 4
190.087890625 192.581054688 m 4
 195.599609375 187.038085938 195.599609375 178.416992188 190.087890625 173.489257812 c 6
 22.884765625 5.9833984375 l 6
 17.373046875 0.4423828125 8.798828125 0.4423828125 3.8984375 5.9833984375 c 4
 -1.61328125 11.5263671875 -1.61328125 20.1474609375 3.8984375 25.0751953125 c 6
 170.48828125 192.581054688 l 6
 176 198.122070312 184.576171875 198.122070312 190.087890625 192.581054688 c 4
EndSplineSet
EndChar

StartChar: AE
Encoding: 198 198 198
Width: 251
VWidth: 94
Flags: W
LayerCount: 2
Fore
SplineSet
190.087890625 5.9833984375 m 4
 184.576171875 0.4423828125 176 0.4423828125 171.1015625 5.9833984375 c 6
 3.8984375 173.489257812 l 6
 -1.61328125 179.032226562 -1.61328125 187.653320312 3.8984375 192.581054688 c 4
 9.41015625 198.122070312 17.986328125 198.122070312 22.884765625 192.581054688 c 6
 190.087890625 25.0751953125 l 6
 194.986328125 20.1474609375 194.986328125 11.5263671875 190.087890625 5.9833984375 c 4
190.087890625 192.581054688 m 4
 195.599609375 187.038085938 195.599609375 178.416992188 190.087890625 173.489257812 c 6
 22.884765625 5.9833984375 l 6
 17.373046875 0.4423828125 8.798828125 0.4423828125 3.8984375 5.9833984375 c 4
 -1.61328125 11.5263671875 -1.61328125 20.1474609375 3.8984375 25.0751953125 c 6
 170.48828125 192.581054688 l 6
 176 198.122070312 184.576171875 198.122070312 190.087890625 192.581054688 c 4
EndSplineSet
EndChar

StartChar: Ccedilla
Encoding: 199 199 199
Width: 251
VWidth: 94
Flags: W
LayerCount: 2
Fore
SplineSet
190.087890625 5.9833984375 m 4
 184.576171875 0.4423828125 176 0.4423828125 171.1015625 5.9833984375 c 6
 3.8984375 173.489257812 l 6
 -1.61328125 179.032226562 -1.61328125 187.653320312 3.8984375 192.581054688 c 4
 9.41015625 198.122070312 17.986328125 198.122070312 22.884765625 192.581054688 c 6
 190.087890625 25.0751953125 l 6
 194.986328125 20.1474609375 194.986328125 11.5263671875 190.087890625 5.9833984375 c 4
190.087890625 192.581054688 m 4
 195.599609375 187.038085938 195.599609375 178.416992188 190.087890625 173.489257812 c 6
 22.884765625 5.9833984375 l 6
 17.373046875 0.4423828125 8.798828125 0.4423828125 3.8984375 5.9833984375 c 4
 -1.61328125 11.5263671875 -1.61328125 20.1474609375 3.8984375 25.0751953125 c 6
 170.48828125 192.581054688 l 6
 176 198.122070312 184.576171875 198.122070312 190.087890625 192.581054688 c 4
EndSplineSet
EndChar

StartChar: Egrave
Encoding: 200 200 200
Width: 251
VWidth: 94
Flags: W
LayerCount: 2
Fore
SplineSet
190.087890625 5.9833984375 m 4
 184.576171875 0.4423828125 176 0.4423828125 171.1015625 5.9833984375 c 6
 3.8984375 173.489257812 l 6
 -1.61328125 179.032226562 -1.61328125 187.653320312 3.8984375 192.581054688 c 4
 9.41015625 198.122070312 17.986328125 198.122070312 22.884765625 192.581054688 c 6
 190.087890625 25.0751953125 l 6
 194.986328125 20.1474609375 194.986328125 11.5263671875 190.087890625 5.9833984375 c 4
190.087890625 192.581054688 m 4
 195.599609375 187.038085938 195.599609375 178.416992188 190.087890625 173.489257812 c 6
 22.884765625 5.9833984375 l 6
 17.373046875 0.4423828125 8.798828125 0.4423828125 3.8984375 5.9833984375 c 4
 -1.61328125 11.5263671875 -1.61328125 20.1474609375 3.8984375 25.0751953125 c 6
 170.48828125 192.581054688 l 6
 176 198.122070312 184.576171875 198.122070312 190.087890625 192.581054688 c 4
EndSplineSet
EndChar

StartChar: Eacute
Encoding: 201 201 201
Width: 251
VWidth: 94
Flags: W
LayerCount: 2
Fore
SplineSet
190.087890625 5.9833984375 m 4
 184.576171875 0.4423828125 176 0.4423828125 171.1015625 5.9833984375 c 6
 3.8984375 173.489257812 l 6
 -1.61328125 179.032226562 -1.61328125 187.653320312 3.8984375 192.581054688 c 4
 9.41015625 198.122070312 17.986328125 198.122070312 22.884765625 192.581054688 c 6
 190.087890625 25.0751953125 l 6
 194.986328125 20.1474609375 194.986328125 11.5263671875 190.087890625 5.9833984375 c 4
190.087890625 192.581054688 m 4
 195.599609375 187.038085938 195.599609375 178.416992188 190.087890625 173.489257812 c 6
 22.884765625 5.9833984375 l 6
 17.373046875 0.4423828125 8.798828125 0.4423828125 3.8984375 5.9833984375 c 4
 -1.61328125 11.5263671875 -1.61328125 20.1474609375 3.8984375 25.0751953125 c 6
 170.48828125 192.581054688 l 6
 176 198.122070312 184.576171875 198.122070312 190.087890625 192.581054688 c 4
EndSplineSet
EndChar

StartChar: Ecircumflex
Encoding: 202 202 202
Width: 251
VWidth: 94
Flags: W
LayerCount: 2
Fore
SplineSet
190.087890625 5.9833984375 m 4
 184.576171875 0.4423828125 176 0.4423828125 171.1015625 5.9833984375 c 6
 3.8984375 173.489257812 l 6
 -1.61328125 179.032226562 -1.61328125 187.653320312 3.8984375 192.581054688 c 4
 9.41015625 198.122070312 17.986328125 198.122070312 22.884765625 192.581054688 c 6
 190.087890625 25.0751953125 l 6
 194.986328125 20.1474609375 194.986328125 11.5263671875 190.087890625 5.9833984375 c 4
190.087890625 192.581054688 m 4
 195.599609375 187.038085938 195.599609375 178.416992188 190.087890625 173.489257812 c 6
 22.884765625 5.9833984375 l 6
 17.373046875 0.4423828125 8.798828125 0.4423828125 3.8984375 5.9833984375 c 4
 -1.61328125 11.5263671875 -1.61328125 20.1474609375 3.8984375 25.0751953125 c 6
 170.48828125 192.581054688 l 6
 176 198.122070312 184.576171875 198.122070312 190.087890625 192.581054688 c 4
EndSplineSet
EndChar

StartChar: Edieresis
Encoding: 203 203 203
Width: 251
VWidth: 94
Flags: W
LayerCount: 2
Fore
SplineSet
190.087890625 5.9833984375 m 4
 184.576171875 0.4423828125 176 0.4423828125 171.1015625 5.9833984375 c 6
 3.8984375 173.489257812 l 6
 -1.61328125 179.032226562 -1.61328125 187.653320312 3.8984375 192.581054688 c 4
 9.41015625 198.122070312 17.986328125 198.122070312 22.884765625 192.581054688 c 6
 190.087890625 25.0751953125 l 6
 194.986328125 20.1474609375 194.986328125 11.5263671875 190.087890625 5.9833984375 c 4
190.087890625 192.581054688 m 4
 195.599609375 187.038085938 195.599609375 178.416992188 190.087890625 173.489257812 c 6
 22.884765625 5.9833984375 l 6
 17.373046875 0.4423828125 8.798828125 0.4423828125 3.8984375 5.9833984375 c 4
 -1.61328125 11.5263671875 -1.61328125 20.1474609375 3.8984375 25.0751953125 c 6
 170.48828125 192.581054688 l 6
 176 198.122070312 184.576171875 198.122070312 190.087890625 192.581054688 c 4
EndSplineSet
EndChar

StartChar: Igrave
Encoding: 204 204 204
Width: 251
VWidth: 94
Flags: W
LayerCount: 2
Fore
SplineSet
190.087890625 5.9833984375 m 4
 184.576171875 0.4423828125 176 0.4423828125 171.1015625 5.9833984375 c 6
 3.8984375 173.489257812 l 6
 -1.61328125 179.032226562 -1.61328125 187.653320312 3.8984375 192.581054688 c 4
 9.41015625 198.122070312 17.986328125 198.122070312 22.884765625 192.581054688 c 6
 190.087890625 25.0751953125 l 6
 194.986328125 20.1474609375 194.986328125 11.5263671875 190.087890625 5.9833984375 c 4
190.087890625 192.581054688 m 4
 195.599609375 187.038085938 195.599609375 178.416992188 190.087890625 173.489257812 c 6
 22.884765625 5.9833984375 l 6
 17.373046875 0.4423828125 8.798828125 0.4423828125 3.8984375 5.9833984375 c 4
 -1.61328125 11.5263671875 -1.61328125 20.1474609375 3.8984375 25.0751953125 c 6
 170.48828125 192.581054688 l 6
 176 198.122070312 184.576171875 198.122070312 190.087890625 192.581054688 c 4
EndSplineSet
EndChar

StartChar: Iacute
Encoding: 205 205 205
Width: 251
VWidth: 94
Flags: W
LayerCount: 2
Fore
SplineSet
190.087890625 5.9833984375 m 4
 184.576171875 0.4423828125 176 0.4423828125 171.1015625 5.9833984375 c 6
 3.8984375 173.489257812 l 6
 -1.61328125 179.032226562 -1.61328125 187.653320312 3.8984375 192.581054688 c 4
 9.41015625 198.122070312 17.986328125 198.122070312 22.884765625 192.581054688 c 6
 190.087890625 25.0751953125 l 6
 194.986328125 20.1474609375 194.986328125 11.5263671875 190.087890625 5.9833984375 c 4
190.087890625 192.581054688 m 4
 195.599609375 187.038085938 195.599609375 178.416992188 190.087890625 173.489257812 c 6
 22.884765625 5.9833984375 l 6
 17.373046875 0.4423828125 8.798828125 0.4423828125 3.8984375 5.9833984375 c 4
 -1.61328125 11.5263671875 -1.61328125 20.1474609375 3.8984375 25.0751953125 c 6
 170.48828125 192.581054688 l 6
 176 198.122070312 184.576171875 198.122070312 190.087890625 192.581054688 c 4
EndSplineSet
EndChar

